/* XPM */
static char *aclockwise0_xpm[] = {
/* columns rows colors chars-per-pixel */
"64 64 69 1",
"  c #428100",
". c #488506",
"X c #498609",
"o c #4C880D",
"O c #4E8910",
"+ c #528B14",
"@ c #558E1A",
"# c #58901D",
"$ c #5D9324",
"% c #5F9528",
"& c #61962A",
"* c #64982E",
"= c #669931",
"- c #699B34",
"; c #6C9D39",
": c #709E3D",
"> c #70A03D",
", c #73A243",
"< c #79A54A",
"1 c #7CA353",
"2 c #7DA950",
"3 c #81AB55",
"4 c #85AE5B",
"5 c #8FAE6F",
"6 c #8AB161",
"7 c #8FB469",
"8 c #91B56B",
"9 c #96B972",
"0 c #98BA75",
"q c #9DBD7A",
"w c #A0C07F",
"e c #AEB9A3",
"r c #A2C182",
"t c #A7C588",
"y c #AAC58C",
"u c #ACC691",
"i c #ADC891",
"p c #B0CA96",
"a c #B4CD9B",
"s c #B8CF9F",
"d c #BAD0A2",
"f c #BED4A9",
"g c #C2D6AD",
"h c #C0C3BD",
"j c #C5D8B1",
"k c #C8DBB6",
"l c #CDDDBC",
"z c #CFCFCF",
"x c #CED3C8",
"c c #D0DFC0",
"v c #D6D6D6",
"b c #DDDDDC",
"n c #D2E1C3",
"m c #D6E3C8",
"M c #D9E5CD",
"N c #DBE7D0",
"B c #DEE9D4",
"V c #E0EAD6",
"C c #E2EBD9",
"Z c #E4E4E4",
"A c #E8EFE0",
"S c #EBEBEB",
"D c #EBF1E5",
"F c #EEF3EA",
"G c #F0F4EB",
"H c #F3F3F3",
"J c #F6F8F3",
"K c #FAFAFA",
"L c None",
/* pixels */
"LLLLLLLLLLLLLLLLLLLLLLLLLLLLLLLLLLLLLLLLLLLLLLLLLLLLLLLLLLLLLLLL",
"LLLLLLLLLLLLLLLLLLLLLLLLLLLLLLLLLLLLLLLLLLLLLLLLLLLLLLLLLLLLLLLL",
"LLLLLLLLLLLLLLLLLLLLLLLLLLLLLLLLLLLLLLLLLLLLLLLLLLLLLLLLLLLLLLLL",
"LLLLLLLLLLLLLLLLLLLLLLfLLLLLLLLLLLLLLLLLLLLLLLLLLLLLLLLLLLLLLLLL",
"LLLLLLLLLLLLLLLLLLLLL4<LLLLLLLLLLLLLLLLLLLLLLLLLLLLLLLLLLLLLLLLL",
"LLLLLLLLLLLLLLLLLLLL8.-LLLLLLLLLLLLLLLLLLLLLLLLLLLLLLLLLLLLLLLLL",
"LLLLLLLLLLLLLLLLLLL0X #LLLLLku6<-&%;<0pmLLLLLLLLLLLLLLLLLLLLLLLL",
"LLLLLLLLLLLLLLLLLL0X  +LLs6@            %0jLLLLLLLLLLLLLLLLLLLLL",
"LLLLLLLLLLLLLLLLLwo    6-.                o<sSLLLLLLLLLLLLLLLLLL",
"LLLLLLLLLLLLLLLLp+     .                    O:fLLLLLLLLLLLLLLLLL",
"LLLLLLLLLLLLLLLyO  ..                         X1MLLLLLLLLLLLLLLL",
"LLLLLLLLLLLLLLi+                                ;jLLLLLLLLLLLLLL",
"LLLLLLLLLLLLLg@                                  @aLLLLLLLLLLLLL",
"LLLLLLLLLLLLn%  .       O#<0ifgu0<@O              OrLLLLLLLLLLLL",
"LLLLLLLLLLLLM0&.       .jFLLLLLLLLFf6$             orLLLLLLLLLLL",
"LLLLLLLLLLLLLLLr-.     .HLLLLLLLLLLLLl9@            OsLLLLLLLLLL",
"LLLLLLLLLLLLLLLLLp-.   .CLLLLLLLLLLLLLLc;            $LLLLLLLLLL",
"LLLLLLLLLLLLLLLLLLLk2@ .cLLLLLLLLLLLLLLLLr@           ,BLLLLLLLL",
"LLLLLLLLLLLLLLLLLLLLLj8&fLLLLLLLLLLLLLLLLLs@           rLLLLLLLL",
"LLLLLLLLLLLLLLLLLLLLLLLLBLLLLLLLLLLLLLLLLLLso          OcLLLLLLL",
"LLLLLLLLLLLLLLLLLLLLLLLLLLLLLLLLLLLLLLLLLLLLi+          6LLLLLLL",
"LLLLLLLLLLLLLLLLLLLLLLLLLLLLLLLLLLLLLLLLLLLLL9.         +cLLLLLL",
"LLLLLLLLLLLLLLLLLLLLLLLLLLLLLLLLLLLLLLLLLLLLLB*          9LLLLLL",
"LLLLLLLLLLLLLLLLLLLLLLLLLLLLLLLLLLLLLLLLLLLLLLp          =LLLLLL",
"LLLLLLLLLLLLLLLLLLLLLLLLLLLLLLLLLLLLLLLLLLLLLLC%         XaLLLLL",
"LLLLLLLLLLLLLLLLLLLLLLLLLLLLLLLLLLLLLLLLLLLLLLLt          7LLLLL",
"LLLLLLLLLLLLLLLLLLLLLLLLLLLLLLLLLLLLLLLLLLLLLLLLO         &LLLLL",
"LLLLLLLLLLLLLLLLLLLLLLLLLLLLLLLLLLLLLLLLLLLLLLLL1          cLLLL",
"LLLL4         &ALLLLLLLLLLLLLLLLLLLLLLLLLLLLLLLL5          sLLLL",
"LLLL2     .   &ALLLLLLLLLLLLLLLLLLLLLLLLLLLLLLLLuo         0LLLL",
"LLLL<         &CLLLLLLLLLLLLLLLLLLLLLLLLLLLLLLLLf+         4LLLL",
"LLLL<         &MLLLLLLLLLLLLLLLLLLLLLLLLLLLLLLLLN$         <LLLL",
"LLLL4         #cLLLLLLLLLLLLLLLLLLLLLLLLLLLLLLLLV&         ,LLLL",
"LLLL8     .   +dLLLLLLLLLLLLLLLLLLLLLLLLLLLLLLLLD&         <LLLL",
"LLLLi         XtLLLLLLLLLLLLLLLLLLLLLLLLLLLLLLLLA*         1LLLL",
"LLLLk          6LLLLLLLLLLLLLLLLLLLLLLLLLLLLLLLLF4-----;---rLLLL",
"LLLLL@   .     ;LLLLLLLLLLLLLLLLLLLLLLLLLLLLLLLLLLLLLLLLLLLLLLLL",
"LLLLL<         oLLLLLLLLLLLLLLLLLLLLLLLLLLLLLLLLLLLLLLLLLLLLLLLL",
"LLLLLt  .       6LLLLLLLLLLLLLLLLLLLLLLLLLLLLLLLLLLLLLLLLLLLLLLL",
"LLLLLk#         OnLLLLLLLLLLLLLLLLLLLLLLLLLLLLLLLLLLLLLLLLLLLLLL",
"LLLLLL<          8LLLLLLLLLLLLLLLLLLLLLLLLLLLLLLLLLLLLLLLLLLLLLL",
"LLLLLLdX         @jLLLLLLLLLLLLLLLLLLLLLLLLLLLLLLLLLLLLLLLLLLLLL",
"LLLLLLF&          <LLLLLLLLLLLLLLLLLLLLLLLLLLLLLLLLLLLLLLLLLLLLL",
"LLLLLLLy.      .  .6LLLLLLLLLLLLLLLLLLLLLLLLLLLLLLLLLLLLLLLLLLLL",
"LLLLLLLL<           8LLLLLLLLLLLLLLLLLLlpLLLLLLLLLLLLLLLLLLLLLLL",
"LLLLLLLLg# .   .    .8CLLLLLLLLLLLLLLLLko=qmLLLLLLLLLLLLLLLLLLLL",
"LLLLLLLLL0.          o<nLLLLLLLLLLLLLLLM. .%7nLLLLLLLLLLLLLLLLLL",
"LLLLLLLLLL3            otNLLLLLLLLLLLLLF.    o<fLLLLLLLLLLLLLLLL",
"LLLLLLLLLLL-           ..-tLLLLLLLLLLLLK.      X<sLLLLLLLLLLLLLL",
"LLLLLLLLLLLk*   .    .    .-7sCLLLLLLCd5         o,gLLLLLLLLLLLL",
"LLLLLLLLLLLLk;        .      O+%,36<-@X           ;NLLLLLLLLLLLL",
"LLLLLLLLLLLLLL,.                                 =LLLLLLLLLLLLLL",
"LLLLLLLLLLLLLLB0O                               =kLLLLLLLLLLLLLL",
"LLLLLLLLLLLLLLLLf$                             $jLLLLLLLLLLLLLLL",
"LLLLLLLLLLLLLLLLLDw&.    .             .+     $lLLLLLLLLLLLLLLLL",
"LLLLLLLLLLLLLLLLLLLCr,o              .=9u    $dLLLLLLLLLLLLLLLLL",
"LLLLLLLLLLLLLLLLLLLLLLgq;o        .%6dLLL@  @pLLLLLLLLLLLLLLLLLL",
"LLLLLLLLLLLLLLLLLLLLLLKKJSMguqqpacFHLLLLL* @sLLLLLLLLLLLLLLLLLLL",
"LLLLKKKKKKKKKKKKKKKKKKKKKKKKKKKKKKKKKKKKV;OuKKLLLLLLLLLLLLLLLLLL",
"LKKKKKKKKJKJKHHJHHHHHHHSHSSHSHSHSHSHHHHSz15bZSSHKKKKKLLLLLLLLLLL",
"LKKKKKJHHHSHHSSSSSZSSZSSZSSZZZZZSSZSZSSbeezzvbZSHHKKKLLLLLLLLLLL",
"LKKKKKKHKJHHHHHHHHHSHHSSSSSSHSSHSSSSHSHSbbZZSHHJJKKKKLLLLLLLLLLL",
"LLLKKKKKKKKKKKKHKKKKJKKJKKKJKHKKJKKKKKKHKKKKKKLLLLLLLLLLLLLLLLLL",
"LLLLLLLLLLLLLLLLLKKKKKKLLLKKKKKKKKKKKKKLLLLLLLLLLLLLLLLLLLLLLLLL"
};
