/* XPM */
static const char *bmpout0_xpm[] = {
/* columns rows colors chars-per-pixel */
"32 32 232 2",
"   c #4A661A",
".  c #557518",
"X  c #557618",
"o  c #567618",
"O  c #5C7E18",
"+  c #618517",
"@  c #638717",
"#  c #678C15",
"$  c #668C16",
"%  c #699016",
"&  c #6C9414",
"*  c #6D9515",
"=  c #6E9514",
"-  c #6E9615",
";  c #6F9715",
":  c #709715",
">  c #709815",
",  c #739D14",
"<  c #7CA713",
"1  c #7EAA12",
"2  c #709F32",
"3  c #709F33",
"4  c #7DAF23",
"5  c #7BAB26",
"6  c #7AAA27",
"7  c #7BAC26",
"8  c #7CAD24",
"9  c #75A62B",
"0  c #77A72A",
"q  c #76A62B",
"w  c #76A72B",
"e  c #77A72B",
"r  c #74A32F",
"t  c #75A52D",
"y  c #75A62C",
"u  c #76A62C",
"i  c #76A72C",
"p  c #74A42E",
"a  c #78A829",
"s  c #78A929",
"d  c #7AAA28",
"f  c #7FB121",
"g  c #7FB220",
"h  c #7FB022",
"j  c #72A131",
"k  c #71A230",
"l  c #73A330",
"z  c #70A032",
"x  c #71A032",
"c  c #80AC12",
"v  c #86B412",
"b  c #87B512",
"n  c #86B612",
"m  c #88B712",
"M  c #89B712",
"N  c #87BB16",
"B  c #87BB17",
"V  c #89BA10",
"C  c #8ABB10",
"Z  c #8BBE13",
"A  c #8ABF13",
"S  c #8BBF13",
"D  c #8EBF10",
"F  c #8EBF11",
"G  c #89BD14",
"H  c #88BC16",
"J  c #89BC16",
"K  c #83B71B",
"L  c #84B61B",
"P  c #81B31E",
"I  c #81B31F",
"U  c #82B41C",
"Y  c #82B51D",
"T  c #85B918",
"R  c #84B819",
"E  c #85BA18",
"W  c #85B81A",
"Q  c #80B220",
"!  c #8FC10F",
"~  c #8DC20F",
"^  c #8EC30F",
"/  c #8FC40E",
"(  c #90C20F",
")  c #90C30F",
"_  c #92C40F",
"`  c #93C70F",
"'  c #94CA0D",
"]  c #95CB0D",
"[  c #95C90E",
"{  c #95C90F",
"}  c #96CA0E",
"|  c #95CC0D",
" . c #96CD0D",
".. c #97CD0D",
"X. c #97CC0F",
"o. c #98CE0D",
"O. c #98CF0D",
"+. c #99CF0D",
"@. c #9ACF0D",
"#. c #98CC0F",
"$. c #98CE0E",
"%. c #99CF0E",
"&. c #9ACF0E",
"*. c #9BCE0F",
"=. c #9ACF0F",
"-. c #99D00D",
";. c #9AD00D",
":. c #9BD10D",
">. c #9BD20D",
",. c #99D00E",
"<. c #9AD00E",
"1. c #9AD10E",
"2. c #9BD10E",
"3. c #9DD20D",
"4. c #9CD30D",
"5. c #9DD30D",
"6. c #9CD10F",
"7. c #9CD20E",
"8. c #9DD20E",
"9. c #9DD30E",
"0. c #9DD20F",
"q. c #9ED40D",
"w. c #9ED40E",
"e. c #9ED50E",
"r. c #9FD50E",
"t. c #9FD60E",
"y. c #8AC013",
"u. c #8BC013",
"i. c #8CC111",
"p. c #8EC010",
"a. c #8FC010",
"s. c #8FC110",
"d. c #8DC210",
"f. c #8DC211",
"g. c #8CC112",
"h. c #90C210",
"j. c #90C310",
"k. c #94C517",
"l. c #95CA17",
"z. c #95C819",
"x. c #97C919",
"c. c #99CB19",
"v. c #9ACE19",
"b. c #9ACE1F",
"n. c #9BD014",
"m. c #9CD017",
"M. c #9FD219",
"N. c #A0D50E",
"B. c #A1D50F",
"V. c #A0D60E",
"C. c #A1D60E",
"Z. c #A1D70E",
"A. c #A1D60F",
"S. c #A1D70F",
"D. c #A2D80E",
"F. c #A3D80E",
"G. c #A2D90E",
"H. c #A3D90E",
"J. c #A2D80F",
"K. c #A4D90E",
"L. c #A4D90F",
"P. c #A4DA0E",
"I. c #A5DA0E",
"U. c #A5DB0E",
"Y. c #A4DA0F",
"T. c #A5DB0F",
"R. c #A6DB0E",
"E. c #A6DB0F",
"W. c #A5DC0F",
"Q. c #A6DC0E",
"!. c #A7DC0E",
"~. c #A7DD0E",
"^. c #A6DC0F",
"/. c #A7DC0F",
"(. c #A7DD0F",
"). c #A9DE0E",
"_. c #A9DE0F",
"`. c #A9DF0F",
"'. c #AADF0F",
"]. c #A9E00F",
"[. c #AAE00F",
"{. c #ABE10F",
"}. c #ACE20F",
"|. c #ADE30F",
" X c #AEE30F",
".X c #ABE010",
"XX c #ABE110",
"oX c #ADE110",
"OX c #AFE310",
"+X c #ACE016",
"@X c #9ED128",
"#X c #A2D620",
"$X c #A6D927",
"%X c #A2D42E",
"&X c #ACDE2A",
"*X c #ACDC2E",
"=X c #A2D430",
"-X c #A3D431",
";X c #A4D534",
":X c #A5D537",
">X c #A5D637",
",X c #A6D639",
"<X c #A7D73B",
"1X c #A7D73C",
"2X c #B0DF34",
"3X c #B1E321",
"4X c #B6E62D",
"5X c #B1E133",
"6X c #B4E23C",
"7X c #B5E43C",
"8X c #BBEA3A",
"9X c #B7E542",
"0X c #BAE746",
"qX c #BBE849",
"wX c #BEE94E",
"eX c #BFEA4F",
"rX c #C0EC46",
"tX c #C1EB53",
"yX c #C4EE50",
"uX c #C2ED56",
"iX c #C3ED58",
"pX c #C7F057",
"aX c #C8EF62",
"sX c #CCF26B",
"dX c #CFF473",
"fX c #D2F57C",
"gX c #D5F783",
"hX c #D7F889",
"jX c #D8F98E",
"kX c #D9F990",
"lX c #F7F9F5",
"zX c None",
/* pixels */
"zXzXzXzXzXzXzXzXzXzXzXzXzXzXzX^ zXzXzXzXzXzXzXzXzXzXzXzXzXzXzXzX",
"zXzXzXzXzXzXzXzXzXzXzXzXzXzX^ ^ zXzXzXzXzXzXzXzXzXzXzXzXzXzXzXzX",
"zXzXzXzXzXzXzXzXzXzXzXzXzX^ lX^ zXzXzXzXzXzXzXzXzXzXzXzXzXzXzXzX",
"zXzXzXzXzXzXzXzXzXzXzXzXa.jXpXu.zXzXzXzXzXzXzXzXzXzXzXzXzXzXzXzX",
"zXzXzXzXzXzXzXzXzXzXzXu.hXOXyXu.zXzXzXzXzXzXzXzXzXzXzXzXzXzXzXzX",
"zXzXzXzXzXzXzXzXzXzXu.gX X XrXZ zXzXzXzXzXzXzXzXzXzXzXzXzXzXzXzX",
"zXzXzXzXzXzXzXzXzXu.fX[.oX[.8XZ zXzXzXzXzXzXzXzXzXzXzXzXzXzXzXzX",
"zXzXzXzXzXzXzXzXG dXoXXXXX|.4XG zXzXzXzXzXzXzXzXzXzXzXzXzXzXzXzX",
"zXzXzXzXzXzXzXB sX[.).[.`.XX3XJ y.y.y.y.y.y.a.G u.u.u.u.y.y.y.y.",
"zXzXzXzXzXzXB aX).).).).`.).+XlXkXkXkXkXkXkXkXkXkXkXkXjXkXkXlXB ",
"zXzXzXzXzXB iXT.(.T.(.(././.I.)././././.(.(.T./.]./././.(.(.eXE ",
"zXzXzXzXR tXI.T.T.T.W.(././.I.I.W.U.(.U./.(.T.I./.U./.U./.H.uXK ",
"zXzXzXL 0XI.T.T.I.T.I.I.I.W.T.I.W.H./.H.I.I.T.T.T.H.T.I.W.V.eXR ",
"zXzXY 7XH.H.H.I.V.< % > @ 6.V.M ; t.H.> M L.; :   ; < I.t.n.qXU ",
"zXP 5XV.V.V.V.V.a.@ V.V.6.O V.M ; t.t.> M V.V.V.o V.V.V.V.=.9XY ",
"g &XV.V.t.V.V.V.; n t.t.0.o V.n ; t.t.; n V.V.t.o t.t.V.V.#.6Xg ",
"zXQ v.6.0.t.t.t., 1 0.t.t.o t.n * 0.t.; n t.0.t.X 5.t.0.q.' 2Xg ",
"zXzX4 n...0.>.0.h.@ :.9.V $ :.a.+ 0.:.+ j.:.0.0.. 5.5.0.0.` *X4 ",
"zXzXzX7 c.' :.:.:.V $ * % :.:.:.1 # $ 1 :.O.:.:.$ >.:.=.' ( $X4 ",
"zXzXzXzX7 z.` =.:.n...:.:.:.:.:.-.-.=.=.:.O.:.:.O.=.>.' h.( #X6 ",
"zXzXzXzXzX6 z.( ..=.O.O...j.j.a.~ ~ h.h.F h.a.a.a.a.a.~ h.( M.d ",
"zXzXzXzXzXzXd k.~ ( ......F h.h.D ~ D h.a.a.a.a.a.a.a.F h.F n.a ",
"zXzXzXzXzXzXzXe %X~ ~ ] ' a.' 1X1X1X1X1X1X1X1X1X1X1X1X1X1X1X1Xe ",
"zXzXzXzXzXzXzXzXe -X( D ' F ;Xu e u u u e u e 9 w i e t u u e e ",
"zXzXzXzXzXzXzXzXzXu ;XF F F -Xu zXzXzXzXzXzXzXzXzXzXzXzXzXzXzXzX",
"zXzXzXzXzXzXzXzXzXzXl ;XF F @Xu zXzXzXzXzXzXzXzXzXzXzXzXzXzXzXzX",
"zXzXzXzXzXzXzXzXzXzXzXl ,XF b.l zXzXzXzXzXzXzXzXzXzXzXzXzXzXzXzX",
"zXzXzXzXzXzXzXzXzXzXzXzXr ,Xl.z zXzXzXzXzXzXzXzXzXzXzXzXzXzXzXzX",
"zXzXzXzXzXzXzXzXzXzXzXzXzXz 1Xz zXzXzXzXzXzXzXzXzXzXzXzXzXzXzXzX",
"zXzXzXzXzXzXzXzXzXzXzXzXzXzXz z zXzXzXzXzXzXzXzXzXzXzXzXzXzXzXzX",
"zXzXzXzXzXzXzXzXzXzXzXzXzXzXzXz zXzXzXzXzXzXzXzXzXzXzXzXzXzXzXzX",
"zXzXzXzXzXzXzXzXzXzXzXzXzXzXzXzXzXzXzXzXzXzXzXzXzXzXzXzXzXzXzXzX"
};
