/* XPM */
static const char *clockwise2_xpm[] = {
/* columns rows colors chars-per-pixel */
"16 16 59 1",
"  c #428100",
". c #438200",
"X c #438201",
"o c #448203",
"O c #458304",
"+ c #468406",
"@ c #478406",
"# c #4A860A",
"$ c #4A870A",
"% c #4C870D",
"& c #4C880D",
"* c #4E8910",
"= c #508B14",
"- c #528B15",
"; c #538C16",
": c #558D19",
"> c #568F1B",
", c #59901E",
"< c #5A911F",
"1 c #5A9120",
"2 c #5B9222",
"3 c #5C9223",
"4 c #5D9324",
"5 c #5D9325",
"6 c #5F9426",
"7 c #5F9528",
"8 c #609528",
"9 c #63972C",
"0 c #689A33",
"q c #6C9D38",
"w c #6D9D39",
"e c #6F9F3D",
"r c #71A040",
"t c #72A141",
"y c #73A242",
"u c #75A345",
"i c #7BA74D",
"p c #7CA74E",
"a c #7CA551",
"s c #7DA850",
"d c #B4CB9C",
"f c #C3D5B0",
"g c #C6D7B4",
"h c #D2DDC6",
"j c #DEDFDC",
"k c #E5EBDE",
"l c #EBEFE6",
"z c #ECECEC",
"x c #F0F0F0",
"c c #F1F1F1",
"v c #F2F2F2",
"b c #F3F3F3",
"n c #F5F5F5",
"m c #F6F6F6",
"M c #F7F7F7",
"N c #F8F8F8",
"B c #F9F9F9",
"V c #FBFBFB",
"C c None",
/* pixels */
"CCCCCCCCCCCCCCCC",
"CCCCCCCCCC5CCCCC",
"CCCCw....O@-CCCC",
"CCC;..>ras..pCCC",
"CC2..qCCCC8CCCCC",
"CC..wCCCCCCCCCCC",
"C6.@CCCCCCCCCCCC",
"C>.9CCCCCCCCr.-C",
"C2&pCCCCCCCC7.1C",
"CCCCCCCCCCCCO.5C",
"CCCCCCCCCCC7..CC",
"CCCCCC.CCCe. 5CC",
"CCCr.. C0*..:CCC",
"CCCC>##  .%rCCCC",
"CCCChakfdglmmVVC",
"CCCVzjbbcxbbbbVC"
};
