/* XPM */
static const char *clockwise0_xpm[] = {
/* columns rows colors chars-per-pixel */
"64 64 69 1",
"  c #428100",
". c #488506",
"X c #498609",
"o c #4C880D",
"O c #4E8910",
"+ c #528B14",
"@ c #558E1A",
"# c #58901D",
"$ c #5D9324",
"% c #5F9528",
"& c #61962A",
"* c #64982E",
"= c #669931",
"- c #699B34",
"; c #6C9D39",
": c #709E3D",
"> c #70A03D",
", c #73A243",
"< c #79A54A",
"1 c #7CA353",
"2 c #7DA950",
"3 c #81AB55",
"4 c #85AE5B",
"5 c #8FAE6F",
"6 c #8AB161",
"7 c #8FB469",
"8 c #91B56B",
"9 c #96B972",
"0 c #98BA75",
"q c #9DBD7A",
"w c #A0C07F",
"e c #AEB9A3",
"r c #A2C182",
"t c #A7C588",
"y c #AAC58C",
"u c #ACC691",
"i c #ADC891",
"p c #B0CA96",
"a c #B4CD9B",
"s c #B8CF9F",
"d c #BAD0A2",
"f c #BED4A9",
"g c #C2D6AD",
"h c #C0C3BD",
"j c #C5D8B1",
"k c #C8DBB6",
"l c #CDDDBC",
"z c #CFCFCF",
"x c #CED3C8",
"c c #D0DFC0",
"v c #D6D6D6",
"b c #DDDDDC",
"n c #D2E1C3",
"m c #D6E3C8",
"M c #D9E5CD",
"N c #DBE7D0",
"B c #DEE9D4",
"V c #E0EAD6",
"C c #E2EBD9",
"Z c #E4E4E4",
"A c #E8EFE0",
"S c #EBEBEB",
"D c #EBF1E5",
"F c #EEF3EA",
"G c #F0F4EB",
"H c #F3F3F3",
"J c #F6F8F3",
"K c #FAFAFA",
"L c None",
/* pixels */
"LLLLLLLLLLLLLLLLLLLLLLLLLLLLLLLLLLLLLLLLLLLLLLLLLLLLLLLLLLLLLLLL",
"LLLLLLLLLLLLLLLLLLLLLLLLLLLLLLLLLLLLLLLLLLLLLLLLLLLLLLLLLLLLLLLL",
"LLLLLLLLLLLLLLLLLLLLLLLLLLLLLLLLLLLLLLLLLLLLLLLLLLLLLLLLLLLLLLLL",
"LLLLLLLLLLLLLLLLLLLLLLLLLLLLLLLLLLLLLLLLLfLLLLLLLLLLLLLLLLLLLLLL",
"LLLLLLLLLLLLLLLLLLLLLLLLLLLLLLLLLLLLLLLLL<4LLLLLLLLLLLLLLLLLLLLL",
"LLLLLLLLLLLLLLLLLLLLLLLLLLLLLLLLLLLLLLLLL=.7LLLLLLLLLLLLLLLLLLLL",
"LLLLLLLLLLLLLLLLLLLLLLLLmp02;&%-<6ykLLLLL$ XqLLLLLLLLLLLLLLLLLLL",
"LLLLLLLLLLLLLLLLLLLLLj0%            @6aLLo .X0LLLLLLLLLLLLLLLLLL",
"LLLLLLLLLLLLLLLLLLDs<o                .;6    XrLLLLLLLLLLLLLLLLL",
"LLLLLLLLLLLLLLLLLg>o                    .     OuLLLLLLLLLLLLLLLL",
"LLLLLLLLLLLLLLLM7.   .                         OyLLLLLLLLLLLLLLL",
"LLLLLLLLLLLLLLg; .                              +iLLLLLLLLLLLLLL",
"LLLLLLLLLLLLLa@   .                              @jLLLLLLLLLLLLL",
"LLLLLLLLLLLLr+              o@2quffi0<#O          &lLLLLLLLLLLLL",
"LLLLLLLLLLLro            .$6fFLLLLLLLLDg        .&9MLLLLLLLLLLLL",
"LLLLLLLLLLao    .       @8lLLLLLLLLLLLLJ.      =rLLLLLLLLLLLLLLL",
"LLLLLLLLLL%       .   .;lLLLLLLLLLLLLLLC.   .-iLLLLLLLLLLLLLLLLL",
"LLLLLLLLB,     .     @rLLLLLLLLLLLLLLLLl..@2kLLLLLLLLLLLLLLLLLLL",
"LLLLLLLLw.          #dLLLLLLLLLLLLLLLLLf%8jLLLLLLLLLLLLLLLLLLLLL",
"LLLLLLLn@ .      . OdLLLLLLLLLLLLLLLLLLBLLLLLLLLLLLLLLLLLLLLLLLL",
"LLLLLLL4          +iLLLLLLLLLLLLLLLLLLLLLLLLLLLLLLLLLLLLLLLLLLLL",
"LLLLLLl+ .     . .0LLLLLLLLLLLLLLLLLLLLLLLLLLLLLLLLLLLLLLLLLLLLL",
"LLLLLL8.         *VLLLLLLLLLLLLLLLLLLLLLLLLLLLLLLLLLLLLLLLLLLLLL",
"LLLLLL=          pLLLLLLLLLLLLLLLLLLLLLLLLLLLLLLLLLLLLLLLLLLLLLL",
"LLLLLao         %CLLLLLLLLLLLLLLLLLLLLLLLLLLLLLLLLLLLLLLLLLLLLLL",
"LLLLL6         .rLLLLLLLLLLLLLLLLLLLLLLLLLLLLLLLLLLLLLLLLLLLLLLL",
"LLLLL*         @LLLLLLLLLLLLLLLLLLLLLLLLLLLLLLLLLLLLLLLLLLLLLLLL",
"LLLLn          <LLLLLLLLLLLLLLLLLLLLLLLLLLLLLLLLLLLLLLLLLLLLLLLL",
"LLLLa       .  0LLLLLLLLLLLLLLLLLLLLLLLLLLLLLLLLA*         4LLLL",
"LLLLq         XiLLLLLLLLLLLLLLLLLLLLLLLLLLLLLLLLA&         2LLLL",
"LLLL4         @jLLLLLLLLLLLLLLLLLLLLLLLLLLLLLLLLC%         <LLLL",
"LLLL<     .   $mLLLLLLLLLLLLLLLLLLLLLLLLLLLLLLLLM$         <LLLL",
"LLLL>         &BLLLLLLLLLLLLLLLLLLLLLLLLLLLLLLLLc@         1LLLL",
"LLLL<         &DLLLLLLLLLLLLLLLLLLLLLLLLLLLLLLLLf+         5LLLL",
"LLLL3         *DLLLLLLLLLLLLLLLLLLLLLLLLLLLLLLLLt.         uLLLL",
"LLLLr-;-;;----4GLLLLLLLLLLLLLLLLLLLLLLLLLLLLLLLL6          fLLLL",
"LLLLLLLLLLLLLLLLLLLLLLLLLLLLLLLLLLLLLLLLLLLLLLLL;         +LLLLL",
"LLLLLLLLLLLLLLLLLLLLLLLLLLLLLLLLLLLLLLLLLLLLLLLLo         <LLLLL",
"LLLLLLLLLLLLLLLLLLLLLLLLLLLLLLLLLLLLLLLLLLLLLLL6         .tLLLLL",
"LLLLLLLLLLLLLLLLLLLLLLLLLLLLLLLLLLLLLLLLLLLLLLnO         @kLLLLL",
"LLLLLLLLLLLLLLLLLLLLLLLLLLLLLLLLLLLLLLLLLLLLLL8          <LLLLLL",
"LLLLLLLLLLLLLLLLLLLLLLLLLLLLLLLLLLLLLLLLLLLLLj+         oaLLLLLL",
"LLLLLLLLLLLLLLLLLLLLLLLLLLLLLLLLLLLLLLLLLLLLL,          *DLLLLLL",
"LLLLLLLLLLLLLLLLLLLLLLLLLLLLLLLLLLLLLLLLLLLL6.          yLLLLLLL",
"LLLLLLLLLLLLLLLLLLLLLLLilLLLLLLLLLLLLLLLLLL8           <LLLLLLLL",
"LLLLLLLLLLLLLLLLLLLLmq-okLLLLLLLLLLLLLLLLC7.          @gLLLLLLLL",
"LLLLLLLLLLLLLLLLLLm8%. .MLLLLLLLLLLLLLLLn<o          o9LLLLLLLLL",
"LLLLLLLLLLLLLLLLf<.    .FLLLLLLLLLLLLLNto            2LLLLLLLLLL",
"LLLLLLLLLLLLLLa<o      oKLLLLLLLLLLLLt*             =LLLLLLLLLLL",
"LLLLLLLLLLLLj,X  .   . .8dCLLLLLLBd5-.             %kLLLLLLLLLLL",
"LLLLLLLLLLLLN>           o@-<62,=@O               -lLLLLLLLLLLLL",
"LLLLLLLLLLLLLL=       .                         .,LLLLLLLLLLLLLL",
"LLLLLLLLLLLLLLk-                               O9BLLLLLLLLLLLLLL",
"LLLLLLLLLLLLLLLj&                             $fLLLLLLLLLLLLLLLL",
"LLLLLLLLLLLLLLLLc$     +.                   =rALLLLLLLLLLLLLLLLL",
"LLLLLLLLLLLLLLLLLf#   .i9=.              o:rBLLLLLLLLLLLLLLLLLLL",
"LLLLLLLLLLLLLLLLLLa@  +LLLf6%.        X;qgLLLLLLLLLLLLLLLLLLLLLL",
"LLLLLLLLLLLLLLLLLLLd@ *LLLLLGScsuqrufvDJKKLLLLLLLLLLLLLLLLLLLLLL",
"LLLLLLLLLLLLLLLLLLKKuo;CKKKJKKKKKKKKKKKKHKKKKKKKKKKKKKKKKKKKLLLL",
"LLLLLLLLLLLKKKKJHSSZb51xSHHHHHSHSHSHSHFHHHHHHHHHJJHHHKKKKKKKKKKL",
"LLLLLLLLLLLKKKHHSZbvzfexbSSSSSZSZZZZZSSZSSSSSZSSSSHSHSHHHHKKKKKL",
"LLLLLLLLLLLKKKKJJJHSZZvbSSHSSSSSSSHHSSSSSSSSHHHHHHHHHHHHKKKKKKKL",
"LLLLLLLLLLLLLLLLLLKKKKKHKKHKKKJKJKKJJKKKKKKKJJKKJKKKKKKKKKKKKLLL",
"LLLLLLLLLLLLLLLLLLLLLLLLLKKKKKKKKKKKKKLLLKKKKKKLLLLLLLLLLLLLLLLL"
};
