/* XPM */
static const char *close_xpm[] = {
/* columns rows colors chars-per-pixel */
"16 16 110 2",
"   c #A35B18",
".  c #A45B18",
"X  c #A55C1A",
"o  c #A6601F",
"O  c #A86222",
"+  c #A4652B",
"@  c #AA6729",
"#  c #AD6B2F",
"$  c #976640",
"%  c #B57A44",
"&  c #B57B45",
"*  c #B87F4B",
"=  c #80757C",
"-  c #BF8D5E",
";  c #C29165",
":  c #C39266",
">  c #7E86A3",
",  c #7988AD",
"<  c #6987BE",
"1  c #6B89BF",
"2  c #6C89BE",
"3  c #718DBF",
"4  c #5F83C5",
"5  c #6484C0",
"6  c #6285C4",
"7  c #6788C5",
"8  c #6A8BC5",
"9  c #6E8DC6",
"0  c #6A8DC9",
"q  c #6C8ECA",
"w  c #6C8FCB",
"e  c #688CCC",
"r  c #6D91CE",
"t  c #7690C1",
"y  c #7191CA",
"u  c #7294CE",
"i  c #7495CE",
"p  c #7496CE",
"a  c #7597CE",
"s  c #7797CF",
"d  c #6D92D3",
"f  c #6E94D5",
"g  c #7295D1",
"h  c #7597D0",
"j  c #7699D3",
"k  c #779AD4",
"l  c #789AD3",
"z  c #7C9AD0",
"x  c #7B9CD2",
"c  c #7A9DD7",
"v  c #7BA2DF",
"b  c #7CA1DD",
"n  c #79A0E0",
"m  c #7BA3E2",
"M  c #7FA5E2",
"N  c #7EA6E4",
"B  c #7EA6E5",
"V  c #7FA7E5",
"C  c #958F97",
"Z  c #809ED2",
"A  c #87A3D4",
"S  c #86A3D5",
"D  c #8FA6D0",
"F  c #88A4D6",
"G  c #81A3DA",
"H  c #82A5DB",
"J  c #86A4D8",
"K  c #9FB3D6",
"L  c #9FB6DE",
"P  c #A6AFC6",
"I  c #A2AFCB",
"U  c #A7BBDF",
"Y  c #AEBDD9",
"T  c #80A8E9",
"R  c #81A8E9",
"E  c #84ACEA",
"W  c #84ADEA",
"Q  c #86AEEA",
"!  c #87AFEB",
"~  c #87AEED",
"^  c #8BB2EE",
"/  c #8AB3EF",
"(  c #8CB3EE",
")  c #8BB4EF",
"_  c #8CB4EF",
"`  c #97BDEF",
"'  c #8BB4F1",
"]  c #8DB6F2",
"[  c #8EB7F4",
"{  c #8FB8F2",
"}  c #90B8F2",
"|  c #94BCF3",
" . c #90B9F4",
".. c #9FC1EF",
"X. c #9AC0F2",
"o. c #9EC3F2",
"O. c #97C1FA",
"+. c #98C1FA",
"@. c #98C2FB",
"#. c #99C2FC",
"$. c #AEC1E2",
"%. c #A0C7F4",
"&. c #A1C8F4",
"*. c #A6CCF6",
"=. c #ACD3F6",
"-. c #ADD4F6",
";. c #AED5F7",
":. c #B0D6F7",
">. c #BEE2F7",
",. c None",
/* pixels */
"@ - ,.,.p x J l w ,.,.,.,.,.,.,.",
"% . I j ..>.&.~ +.g l w $.,.,.,.",
",.= < G ] =.:.^ ] | e n u ,.,.,.",
",.C 5 t Q | ;.o.R +.^ 4 N F ,.,.",
",.,., 7 h ] %.;.^ ' +.f n j ,.,.",
",.,.,.9 y H { *.X.R O.[ f Q p ,.",
",.,.,.D 6 2 _ | ` M Q #.N N b L ",
",.,.,.,.3 1 > c p S r Q ' n v w ",
",.,.,.,.K 6 8 Y ,.,.,.S p Z U ,.",
",.,.,.,.,.P $ * ,.,.,.,.,.,.,.,.",
",.,.,.,.,.,.% X ,.,.,.,.,.,.,.,.",
",.,.,.,.,.,.,.X # ,.,.,.,.,.,.,.",
",.,.,.,.,.,.,.: . ,.,.,.,.,.,.,.",
",.,.,.,.,.,.,.,.O o ,.,.,.,.,.,.",
",.,.,.,.,.,.,.,.,.. ; ,.,.,.,.,.",
",.,.,.,.,.,.,.,.,.+ X ,.,.,.,.,."
};
