/* XPM */
static const char *custompal1_xpm[] = {
/* columns rows colors chars-per-pixel */
"16 16 129 2",
"   c #000000",
".  c #772D00",
"X  c #7B2A00",
"o  c #6D3600",
"O  c #633E00",
"+  c #346900",
"@  c #287500",
"#  c #237A00",
"$  c #5F4200",
"%  c #5C4400",
"&  c #574900",
"*  c #4D5200",
"=  c #485700",
"-  c #445A00",
";  c #405E00",
":  c #9A0E00",
">  c #8B1C00",
",  c #961200",
"<  c #901800",
"1  c #AA0000",
"2  c #A40713",
"3  c #A30817",
"4  c #A10A1D",
"5  c #842200",
"6  c #9F0E27",
"7  c #9D102E",
"8  c #9A1438",
"9  c #981740",
"0  c #961945",
"q  c #951B4B",
"w  c #91205A",
"e  c #8D2668",
"r  c #8B286E",
"t  c #8A2973",
"y  c #882C7A",
"u  c #1B8300",
"i  c #178800",
"p  c #0F9100",
"a  c #099900",
"s  c #03A300",
"d  c #05A000",
"f  c #00A900",
"g  c #00AE01",
"h  c #00B103",
"j  c #00BA06",
"k  c #00BD07",
"l  c #07CD0F",
"z  c #13DD19",
"x  c #15E01A",
"c  c #19E31C",
"v  c #1EE820",
"b  c #21EC22",
"n  c #26F026",
"m  c #2CF52A",
"M  c #2FF72C",
"N  c #36FB31",
"B  c #3BFF35",
"V  c #3DFF37",
"C  c #42FF3A",
"Z  c #47FF3F",
"A  c #39A576",
"S  c #3BAB74",
"D  c #3EB372",
"F  c #42BF6F",
"G  c #4AFF41",
"H  c #4CFF44",
"J  c #51FF4A",
"K  c #55FF52",
"L  c #55FE56",
"P  c #53F45C",
"I  c #55FC58",
"U  c #45C76D",
"Y  c #4CDD66",
"T  c #48D16A",
"R  c #4EE164",
"E  c #51EC60",
"W  c #04139F",
"Q  c #071E9B",
"!  c #0D2E95",
"~  c #092299",
"^  c #103892",
"/  c #0003A7",
"(  c #020BA3",
")  c #0001A9",
"_  c #0000AF",
"`  c #0300B7",
"'  c #0500BE",
"]  c #7F379A",
"[  c #7E389C",
"{  c #783EAE",
"}  c #174C8D",
"|  c #1C5A89",
" . c #134090",
".. c #7343BD",
"X. c #0700C2",
"o. c #0800C6",
"O. c #0C04CC",
"+. c #0D06CF",
"@. c #100AD3",
"#. c #140FDA",
"$. c #1815E0",
"%. c #1F1FE9",
"&. c #2324ED",
"*. c #2628F0",
"=. c #2A2EF5",
"-. c #2D32F7",
";. c #3136FA",
":. c #3C44FF",
">. c #6D49CE",
",. c #7145C3",
"<. c #7047C7",
"1. c #6C4AD3",
"2. c #674EDF",
"3. c #694CDA",
"4. c #464EFF",
"5. c #484FFF",
"6. c #4A51FF",
"7. c #4C52FF",
"8. c #5B54F7",
"9. c #5054FF",
"0. c #5655FE",
"q. c #5855FB",
"w. c #654FE2",
"e. c #6052EF",
"r. c #852F83",
"t. c #843189",
"y. c #813491",
"u. c #803696",
"i. c #2B8080",
/* pixels */
"{ [ t.t w 9 6 2 1 1 > 5 o % * ; ",
"..{ ] r.e q 7 2 1 , > . O * ; + ",
">.,.{ u.y w 8 3 1 : 5 o & - + @ ",
"2.1.,.{ y.r 0 4 1 , X $ = + @ u ",
"e.w.3.<.{ t.w 6 1 < o * + # i p ",
"q.8.e.w.>.{ y 8 1 5 & + # p a d ",
"9.9.0.q.e.3.{ w 1 o + i a s f g ",
"4.5.6.7.9.q.e.    + a f h j j k ",
":.:.:.:.:.:.:.    l l l l l l l ",
";.;.-.=.*.%.#.` | J N n v c x z ",
"&.&.%.$.#.O.` W A E J C N m n b ",
"%.$.#.@.o.` / ! i.T I J Z V N M ",
"#.@.+.X.` _ W  .| U E L J G C B ",
"O.o.' ` _ ( ~ } A D Y P K J G Z ",
"o.' ` ` ) W ! | | F T E I J J H ",
"' ` _ / ( Q ^ | i.S U R P L K J "
};
