/* XPM */
static const char *custompal0_xpm[] = {
/* columns rows colors chars-per-pixel */
"32 32 158 2",
"   c #000000",
".  c #762D00",
"X  c #7B2A00",
"o  c #6D3600",
"O  c #643C00",
"+  c #683A00",
"@  c #723100",
"#  c #1F7F00",
"$  c #2E6F00",
"%  c #3B6200",
"&  c #346900",
"*  c #267600",
"=  c #2A7200",
"-  c #227B00",
";  c #5D4300",
":  c #544B00",
">  c #4B5300",
",  c #425B00",
"<  c #624000",
"1  c #9C0C00",
"2  c #8A1C00",
"3  c #941300",
"4  c #981000",
"5  c #901800",
"6  c #A30600",
"7  c #A90000",
"8  c #A00800",
"9  c #A6030B",
"0  c #A80308",
"q  c #A40612",
"w  c #A30816",
"e  c #A1091C",
"r  c #832200",
"t  c #9F0E27",
"y  c #9E0F2A",
"u  c #9D102D",
"i  c #9B1132",
"p  c #991439",
"a  c #A00B21",
"s  c #961844",
"d  c #941B4B",
"f  c #931D52",
"g  c #91205A",
"h  c #8E2363",
"j  c #8C2669",
"k  c #8B286E",
"l  c #892973",
"z  c #872D7E",
"x  c #882C7A",
"c  c #1B8300",
"v  c #148A00",
"b  c #0D9300",
"n  c #069D00",
"m  c #099900",
"M  c #109000",
"N  c #02A300",
"B  c #00AB00",
"V  c #00B303",
"C  c #00BB06",
"Z  c #00BE08",
"A  c #02C30A",
"S  c #07CD0F",
"D  c #0DD614",
"F  c #0FD815",
"G  c #11DA16",
"H  c #13DD18",
"J  c #15E01A",
"K  c #1AE41D",
"L  c #21EC22",
"P  c #28F227",
"I  c #2CF42A",
"U  c #32F82E",
"Y  c #36FB31",
"T  c #3AFE35",
"R  c #43FF3B",
"E  c #32937A",
"W  c #359A78",
"Q  c #38A476",
"!  c #3BAB74",
"~  c #3EB471",
"^  c #42BF6F",
"/  c #40B970",
"(  c #4BFF43",
")  c #51FF4B",
"_  c #54FE53",
"`  c #53F35C",
"'  c #54FA58",
"]  c #44C56D",
"[  c #46CB6B",
"{  c #4BDB66",
"}  c #48D269",
"|  c #4EE363",
" . c #50E762",
".. c #51EC60",
"X. c #04139F",
"o. c #061A9C",
"O. c #081F9A",
"+. c #0C2C95",
"@. c #092398",
"#. c #0E3493",
"$. c #103991",
"%. c #0004A6",
"&. c #020BA2",
"*. c #0000AB",
"=. c #0200B4",
"-. c #0400BC",
";. c #7F3799",
":. c #7D389C",
">. c #7B3AA2",
",. c #783EAE",
"<. c #15458E",
"1. c #164B8D",
"2. c #1A538B",
"3. c #1C5B88",
"4. c #1F6287",
"5. c #206686",
"6. c #236B84",
"7. c #7541B6",
"8. c #7342BB",
"9. c #0600C1",
"0. c #0800C5",
"q. c #0B04CB",
"w. c #0E07D0",
"e. c #0F08D1",
"r. c #100BD4",
"t. c #140FDA",
"y. c #1612DD",
"u. c #1815DF",
"i. c #1815E0",
"p. c #1B1AE4",
"a. c #1F1FE9",
"s. c #2223EC",
"d. c #2628F0",
"f. c #292DF4",
"g. c #2C31F6",
"h. c #3035FA",
"j. c #343BFD",
"k. c #3C44FF",
"l. c #6F47CA",
"z. c #6D48CD",
"x. c #7045C3",
"c. c #6B4AD3",
"v. c #674EDE",
"b. c #684CDA",
"n. c #434BFF",
"m. c #484FFF",
"M. c #4B51FF",
"N. c #5C53F5",
"B. c #5354FE",
"V. c #5954F9",
"C. c #654EE1",
"Z. c #6350E6",
"A. c #6051ED",
"S. c #852E82",
"D. c #843085",
"F. c #83318A",
"G. c #803493",
"H. c #2B8080",
/* pixels */
",.>.:.G.F.z l j g d p p t e q 0 7 6 8 4 5 r r . o O ; : > , , % ",
"7.,.>.:.G.D.x k g g s p y e q 0 7 6 8 3 5 r X @ + < ; > > , % & ",
"8.7.,.>.:.F.S.l j g d p u a q 0 7 6 1 3 2 r . o < ; > > , % & = ",
"l.8.7.,.>.;.F.z l h f s i a w 0 7 6 1 5 r X @ + ; : > , % & $ * ",
"z.l.8.7.,.>.;.F.x j g s p t w 9 7 6 1 5 r X o < ; > , % & & * - ",
"b.c.l.x.7.,.>.G.D.l h f p u e 9 7 6 4 5 r @ O ; > , , & = * - c ",
"b.b.c.z.x.7.,.:.G.D.k g s i e 9 7 8 3 r X o < : > % & = * # c v ",
"Z.C.b.b.z.x.8.,.:.F.x j d p a 9 7 8 3 r @ O : > , & = * c c v v ",
"A.A.C.C.b.z.l.8.7.G.D.l g p y q 7 8 5 X o ; > , & = - c v M M b ",
"N.N.A.A.Z.v.c.z.7.7.;.D.j d u w 7 1 2 X < : , & * - c v v b m n ",
"V.V.N.N.A.A.Z.b.z.8.7.G.x g p w 7 1 r o : , & * - v M b m n N N ",
"B.B.B.V.N.N.A.Z.Z.c.8.,.G.k s e 7 3 X ; > & * c v b m n N N N B ",
"B.B.B.B.B.B.V.N.A.Z.b.l.,.D.g a 7 5 o > & * v b m N N N B B B V ",
"M.M.M.M.B.B.B.B.V.N.A.Z.z.,.x p 7 r ; & c v m n N B B B V V V V ",
"n.M.m.n.M.M.M.B.M.B.B.V.A.b.7.g 7 o & v m N B B V V V C C Z Z Z ",
"n.k.n.n.n.n.n.n.m.M.M.M.M.B.A.    & m B V V C Z Z Z A A A A A A ",
"k.n.k.k.k.k.k.k.k.k.k.k.n.j.n.    S S S S S S S S S S S S S S S ",
"j.j.j.j.j.j.j.h.h.h.g.f.d.a.t.=.H.) Y L K K J H G G F F D D D D ",
"h.h.g.g.f.f.f.f.d.s.a.p.t.q.=.X.E ..) R U U L L L K K K K H H G ",
"f.f.f.f.f.s.s.a.p.u.t.e.0.=.%.#.6.} ' ) R R U U P L L L K K K K ",
"d.s.s.s.a.p.p.u.t.r.q.0.=.*.X.$.E ~ .._ ) ( R T U U I P P L L L ",
"s.a.p.p.i.u.t.r.w.0.-.=.*.%.@.1.E ! { ` ) ) ( R R T Y U I I I L ",
"p.p.i.y.t.r.r.0.0.-.-.*.%.X.+.2.6.! } ..' ) ) ( R R T T Y U U I ",
"i.y.t.r.r.e.0.0.-.-.*.*.&.o.$.3.H.Q ] | ` ' _ ) ( R R R T T U U ",
"t.r.r.r.0.0.0.-.=.=.%.%.X.+.$.4.H.W ^ { ..' _ _ ) ( R R R R R Y ",
"r.e.q.0.0.0.-.=.=.*.%.&.o.+.<.4.H.W / [  .` ' _ ) ) ) R R R R T ",
"q.q.0.0.-.-.=.=.*.%.%.X.O.#.1.5.H.W / ] { ..` ' _ ) ) ) ) R R R ",
"q.0.0.0.-.=.=.*.*.&.&.o.+.$.2.5.H.W / ] }  .` ` ' _ ) ) ( ( R R ",
"0.9.-.-.=.=.*.*.%.&.X.@.#.$.2.6.H.E / / } | ..` ' _ ) ) ) ) R ( ",
"9.-.-.=.=.*.*.*.&.&.X.@.#.<.2.6.H.E / / [ {  .` ' ' _ _ ) ) ) ( ",
"-.-.=.=.*.*.*.%.&.X.o.+.$.<.2.6.H.E W / ] } | ..` ' ' _ _ ) ) ( ",
"-.=.=.=.*.*.%.&.X.X.@.#.$.1.3.5.H.E W / ^ } {  .` ' ' _ _ ) ) ) "
};
