/* XPM */
static const char *exportraw_xpm[] = {
/* columns rows colors chars-per-pixel */
"16 16 116 2",
"   c #43494F",
".  c #444B50",
"X  c #464D53",
"o  c #474E54",
"O  c #4C545C",
"+  c #5579B1",
"@  c #5679B1",
"#  c #557AB1",
"$  c #567AB1",
"%  c #7891A4",
"&  c #698DB4",
"*  c #6990B4",
"=  c #6990B5",
"-  c #6E94B6",
";  c #7198B9",
":  c #6894C1",
">  c #6994C1",
",  c #6996C1",
"<  c #6A98C2",
"1  c #6C9BC3",
"2  c #6E9CC5",
"3  c #709FC6",
"4  c #70A0C8",
"5  c #73A2C9",
"6  c #75A4C9",
"7  c #76A5CA",
"8  c #79A8CD",
"9  c #7AA9CC",
"0  c #7AA9CD",
"q  c #7AABCD",
"w  c #7BACCE",
"e  c #7FADCE",
"r  c #7FAFCE",
"t  c #8AAAC0",
"y  c #85ADC9",
"u  c #87AFCA",
"i  c #84B1CE",
"p  c #85B1CE",
"a  c #88B1CD",
"s  c #89B1CD",
"d  c #8FB1CC",
"f  c #8EB4CD",
"g  c #8FB4CD",
"h  c #94B8CE",
"j  c #80A1D8",
"k  c #80A3D8",
"l  c #84B1D0",
"z  c #85B1D0",
"x  c #87B1D0",
"c  c #87B2D0",
"v  c #88B1D0",
"b  c #89B2D0",
"n  c #88B4D0",
"m  c #8EB5D0",
"M  c #8FB5D0",
"N  c #92B8D0",
"B  c #94B8D0",
"V  c #94B9D0",
"C  c #96B9D0",
"Z  c #92B2D8",
"A  c #94B9DB",
"S  c #98BCDD",
"D  c #99BCDF",
"F  c #99BDDF",
"G  c #9BBDE1",
"H  c #9BBFE1",
"J  c #A8C1D2",
"K  c #BECCD5",
"L  c #9FC3E3",
"P  c #96C1EB",
"I  c #9BC9EF",
"U  c #9ECDF0",
"Y  c #A5CDEB",
"T  c #A1D0F1",
"R  c #A1D0F3",
"E  c #A5D0F3",
"W  c #A5D2F3",
"Q  c #A5D4F5",
"!  c #AFD6F0",
"~  c #ABD4F5",
"^  c #A9D6F5",
"/  c #A9D7F5",
"(  c #ABD6F5",
")  c #ABD7F5",
"_  c #ADD8F5",
"`  c #AFDAF5",
"'  c #ADD8F7",
"]  c #AFDAF7",
"[  c #B7D7F1",
"{  c #B1DAF5",
"}  c #B1DBF5",
"|  c #B2DBF5",
" . c #B3DBF5",
".. c #B1DBF7",
"X. c #B3DBF7",
"o. c #B3DDF5",
"O. c #B5DDF5",
"+. c #B7DDF5",
"@. c #B7DDF7",
"#. c #BCDDF3",
"$. c #B9DDF5",
"%. c #BBDDF5",
"&. c #B9DFF7",
"*. c #BBDFF7",
"=. c #BDDDF5",
"-. c #BCDFF5",
";. c #BCDFF7",
":. c #BDE1F7",
">. c #BFE1F7",
",. c #C0E1F7",
"<. c #CDE4F5",
"1. c #CAE6F8",
"2. c #D0E8F9",
"3. c #D2EAF9",
"4. c #E8F5FC",
"5. c None",
/* pixels */
"X X q Q w w Q Q w O X 5.X X 5.5.",
"X 5.q ,.,.C ,.;.; ,.o 5.5.X 5.5.",
"X X 8 ,.h M h #.- h t 5.X X X 5.",
"5.5.R ;.>.>.;.*.A 3.,.1.5.5.5.5.",
"5.X 6 ;.;.h M g S K J ,.2.o o o ",
"5.5.6 *.*.M *.g S 4.K <.[ % 5.X ",
"5.X 5 M *.M M g Y & = & Z < X X ",
"5.5.I O.O.O.O.O.Y S G S S I 5.5.",
"X X 2 o.b n X.o.a a a ! y 3 5.5.",
"X 5.2  .) l o.] x  .l '  .2 5.5.",
"X X 2 ] q u l ] u l l E i 1 X 5.",
"5.5.P ' U U ' ' ' ) E U ) P 5.5.",
"5.X < ' U 4 4 4 I 3 3 U ) < X X ",
"5.5.< Q ' k / r Q ' e ' ) , 5.X ",
"5.  , $ j @ @ @ 8 @ @ @ 8 , . X ",
"5.5.5.5.5.5.5.5.5.5.5.5.5.5.5.5."
};
