/* XPM */
static const char *FLIP_xpm[] = {
/* columns rows colors chars-per-pixel */
"32 32 142 2",
"   c #719F32",
".  c #709F33",
"X  c #719F33",
"o  c #7DAF22",
"O  c #7EAF22",
"+  c #7AAC26",
"@  c #7BAC26",
"#  c #74A32E",
"$  c #76A62C",
"%  c #74A42F",
"&  c #78A929",
"*  c #79A929",
"=  c #7FB021",
"-  c #7EB121",
";  c #7FB121",
":  c #72A130",
">  c #87BA17",
",  c #8CBA13",
"<  c #8DBB13",
"1  c #8BBF13",
"2  c #8FBF11",
"3  c #8DBC12",
"4  c #8EBD12",
"5  c #8EBE12",
"6  c #8FBE12",
"7  c #89BC15",
"8  c #8ABD14",
"9  c #85B918",
"0  c #8EC30F",
"q  c #8FC40E",
"w  c #93C70E",
"e  c #95CB0D",
"r  c #96CB0D",
"t  c #97CB0F",
"y  c #96CC0D",
"u  c #96CC0E",
"i  c #97CD0E",
"p  c #97CC0F",
"a  c #98CD0E",
"s  c #99CE0E",
"d  c #99CF0E",
"f  c #9ACE0F",
"g  c #9ACF0F",
"h  c #9CCF0F",
"j  c #9AD00E",
"k  c #9BD00E",
"l  c #9BD10E",
"z  c #9CD10E",
"x  c #9CD20E",
"c  c #9CD30E",
"v  c #9DD30E",
"b  c #9DD20F",
"n  c #9DD30F",
"m  c #9ED40E",
"M  c #9FD40E",
"N  c #9FD50E",
"B  c #9ED40F",
"V  c #9FD40F",
"C  c #8DC111",
"Z  c #8DC210",
"A  c #8CC012",
"S  c #90C111",
"D  c #91C111",
"F  c #92C310",
"G  c #93C410",
"H  c #95C910",
"J  c #A0D50E",
"K  c #A0D60E",
"L  c #A1D70E",
"P  c #A1D60F",
"I  c #A1D70F",
"U  c #A2D70F",
"Y  c #A2D80E",
"T  c #A3D90E",
"R  c #A3D80F",
"E  c #A3D90F",
"W  c #A4D90F",
"Q  c #A4DA0E",
"!  c #A4DA0F",
"~  c #A5DA0F",
"^  c #A6DA0F",
"/  c #A6DB0F",
"(  c #A6DC0F",
")  c #A7DC0F",
"_  c #A8DD0F",
"`  c #A8DE0F",
"'  c #A9DF0F",
"]  c #AADF0F",
"[  c #A8DE10",
"{  c #A9DF10",
"}  c #A1D51B",
"|  c #AAE00F",
" . c #ABE00F",
".. c #ABE10F",
"X. c #ACE10F",
"o. c #ADE20F",
"O. c #AEE30F",
"+. c #AFE40F",
"@. c #B0E50F",
"#. c #B1E50F",
"$. c #AAE010",
"%. c #ABE010",
"&. c #ABE110",
"*. c #ADE210",
"=. c #AEE310",
"-. c #AEE410",
";. c #AFE410",
":. c #B0E410",
">. c #B0E510",
",. c #B1E510",
"<. c #B0E610",
"1. c #B1E610",
"2. c #A0D421",
"3. c #A1D421",
"4. c #A1D327",
"5. c #A1D427",
"6. c #ACDE27",
"7. c #A2D42D",
"8. c #A4D533",
"9. c #A5D637",
"0. c #A5D638",
"q. c #A7D73B",
"w. c #AFE02C",
"e. c #B2E130",
"r. c #B5E435",
"t. c #B7E639",
"y. c #BAE73D",
"u. c #BBE941",
"i. c #BDEB46",
"p. c #BFEC4A",
"a. c #BEE757",
"s. c #BFEA56",
"d. c #BFEA57",
"f. c #C2ED4D",
"g. c #C3EE50",
"h. c #C5F053",
"j. c #C7F055",
"k. c #C8F157",
"l. c #D9F990",
"z. c #EBF5CE",
"x. c #FFFFFF",
"c. c None",
/* pixels */
"c.c.c.q q q q q w 0 0 q c.c.c.c.c.c.c.c.c.c.c.c.  c.c.c.c.c.c.c.",
"c.c.c.q x.l.l.l.l.l.x.0 c.c.c.c.c.c.c.c.c.c.c.  q.  c.c.c.c.c.c.",
"c.c.c.q j.1.1.#.1.1.j.q c.c.c.c.c.c.c.c.c.c.c.  <   c.c.c.c.c.c.",
"c.c.c.q j.1.=.1.-.1.j.q c.c.c.c.c.c.c.c.c.c.: 9., 9.: c.c.c.c.c.",
"c.c.c.q j.-.+.-.=.-.h.q c.c.c.c.c.c.c.c.c.c.# < 1 < # c.c.c.c.c.",
"c.c.c.0 g.=.O.O.=.=.g.q c.c.c.c.c.c.c.c.c.% 8.2 w < 8.% c.c.c.c.",
"c.c.c.0 f.=.O...=.=.f.Z c.c.c.c.c.c.c.c.c.% 1 r a r 6 # c.c.c.c.",
"c.c.c.0 p.] O.......f.Z c.c.c.c.c.c.c.c.% 7.2 a r r 1 7.% c.c.c.",
"c.c.c.Z i.[ [ [ O.] i.Z c.c.c.c.c.c.c.c.% Z i i a a s 6 $ c.c.c.",
"c.c.c.Z u.[ O.[ ] ] u.Z c.c.c.c.c.c.c.* 5.G s s s s s w 5.* c.c.",
"c.c.c.1 y.] [ ] ] [ y.1 c.c.c.c.c.c.c.* H v s j s s s s H * c.c.",
"c.c.c.1 t.[ Q [ Q Q t.1 c.c.c.c.c.c.@ 3.r v n n v v v v a 3.@ c.",
"c.c.c.7 r.) W W W [ r.1 c.c.c.c.c.c.@ f B h B B v v v v v f @ c.",
"c.c.c.7 e.Q W W Q Q r.> c.c.c.c.c.O } h h h B B B B B B v s } O ",
"c.c.c.> w.R R E L W 6.> c.c.c.c.c.O a.d.a.z.J L L B B z.d.d.a.O ",
"; ; ; ; 6.L L L R U 6.9 9 @ O c.c.; ; ; 9 6.L L L L U 6.9 ; ; ; ",
"O a.d.d.z.L L L B L z.d.d.a.O c.c.c.c.c.> w.Q R W L W 6.> c.c.c.",
"O } h L B h v v v B B B s } O c.c.c.c.c.7 e.Q R W W W e.> c.c.c.",
"c.@ s v v v v v v v B v s @ c.c.c.c.c.c.7 r.[ Q W [ Q r.5 c.c.c.",
"c.@ 3.H v v v v v v v H 3.@ c.c.c.c.c.c.1 t.) Q [ Q [ t.5 c.c.c.",
"c.c.* H s s j j s j v w * c.c.c.c.c.c.c.Z y.] [ ) ) ) y.A c.c.c.",
"c.c.* 5.w s s s s s G 5.* c.c.c.c.c.c.c.1 u.[ ] &.] ] u.Z c.c.c.",
"c.c.c.% 6 s a a a a D % c.c.c.c.c.c.c.c.Z i...] &...&.p.Z c.c.c.",
"c.c.c.$ 7.6 r r a 1 7.& c.c.c.c.c.c.c.c.Z f.......&.&.p.Z c.c.c.",
"c.c.c.c.% 1 a r r < # c.c.c.c.c.c.c.c.c.0 f.=.O...=.=.f.0 c.c.c.",
"c.c.c.c.% 8.2 w 1 8.# c.c.c.c.c.c.c.c.c.0 g.=.O.O.=.=.g.0 c.c.c.",
"c.c.c.c.c.  < < < : c.c.c.c.c.c.c.c.c.c.0 h.-.+.=.-.-.h.q c.c.c.",
"c.c.c.c.c.# 9.< 9.: c.c.c.c.c.c.c.c.c.c.q j.1.-.-.1.#.j.q c.c.c.",
"c.c.c.c.c.c.  <   c.c.c.c.c.c.c.c.c.c.c.q k.#.1.#.1.1.k.q c.c.c.",
"c.c.c.c.c.c.  q.  c.c.c.c.c.c.c.c.c.c.c.q x.l.l.l.l.l.x.q c.c.c.",
"c.c.c.c.c.c.c.  c.c.c.c.c.c.c.c.c.c.c.c.q q q q 0 q q q q c.c.c.",
"c.c.c.c.c.c.c.c.c.c.c.c.c.c.c.c.c.c.c.c.c.c.c.c.c.c.c.c.c.c.c.c."
};
