/* XPM */
static const char *folder__ico__[] = {
/* columns rows colors chars-per-pixel */
"16 16 118 2",
"   c #648AC9",
".  c #698FCF",
"X  c #6F96D2",
"o  c #7097D6",
"O  c #759BD2",
"+  c #749BD3",
"@  c #769ED6",
"#  c #7199DD",
"$  c #729ADF",
"%  c #779EDD",
"&  c #79A0D8",
"*  c #7CA3DB",
"=  c #79A1DD",
"-  c #7EA6DE",
";  c #729AE0",
":  c #739BE0",
">  c #739CE1",
",  c #749CE1",
"<  c #759DE2",
"1  c #769EE3",
"2  c #75A0E3",
"3  c #76A0E2",
"4  c #77A0E3",
"5  c #76A0E4",
"6  c #76A1E4",
"7  c #77A2E5",
"8  c #7AA3E0",
"9  c #79A2E2",
"0  c #78A1E4",
"q  c #79A2E5",
"w  c #7BA4E7",
"e  c #7BA4E9",
"r  c #7BA4EA",
"t  c #7CA5E9",
"y  c #7CA6EA",
"u  c #7DA7EB",
"i  c #7EA8EB",
"p  c #7FA8EB",
"a  c #7FA9EC",
"s  c #80A9E1",
"d  c #82AAE2",
"f  c #81A8E6",
"g  c #80A9E6",
"h  c #87AFE6",
"j  c #83ACE8",
"k  c #80A9EC",
"l  c #81AAED",
"z  c #81ABED",
"x  c #82ACED",
"c  c #82ACEE",
"v  c #83ADEE",
"b  c #86AFEC",
"n  c #84AEEE",
"m  c #85AEEE",
"M  c #85AEEF",
"N  c #85AFEF",
"B  c #8AB0E7",
"V  c #87B0ED",
"C  c #8AB1E9",
"Z  c #8AB2E8",
"A  c #8FB6EA",
"S  c #88B1ED",
"D  c #89B2EE",
"F  c #89B2EF",
"G  c #8AB3EF",
"H  c #92B6E8",
"J  c #90B7EE",
"K  c #96BBEB",
"L  c #95BBEF",
"P  c #96BBEE",
"I  c #97BBEE",
"U  c #96BBEF",
"Y  c #95BDEE",
"T  c #99BCEB",
"R  c #9ABBEC",
"E  c #86B0F0",
"W  c #87B1F0",
"Q  c #87B1F1",
"!  c #88B2F0",
"~  c #88B2F1",
"^  c #88B3F1",
"/  c #89B3F1",
"(  c #8AB3F0",
")  c #8BB3F0",
"_  c #89B3F2",
"`  c #8BB4F1",
"'  c #8BB5F1",
"]  c #8AB4F2",
"[  c #8AB5F2",
"{  c #8BB5F2",
"}  c #8BB6F3",
"|  c #8CB5F1",
" . c #8CB6F3",
".. c #8CB7F3",
"X. c #8DB7F4",
"o. c #8EB8F1",
"O. c #8FB8F2",
"+. c #8DB8F4",
"@. c #8EB8F4",
"#. c #8EB9F4",
"$. c #8EB9F5",
"%. c #8FB9F5",
"&. c #8FBAF5",
"*. c #90BAF3",
"=. c #95BDF0",
"-. c #95BDF1",
";. c #90BBF5",
":. c #90BBF6",
">. c #91BCF6",
",. c #92BDF7",
"<. c #93BEF7",
"1. c #94BFF8",
"2. c #98C0F1",
"3. c #A6C1E6",
"4. c #A1C2E8",
"5. c #A6C8EB",
"6. c #B1CBEB",
"7. c None",
/* pixels */
"7.7.7.7.7.7.7.7.7.7.7.7.7.7.7.7.",
"7.7.7.7.7.7.7.7.7.7.7.7.7.7.7.7.",
"3.T K K K 7.7.7.7.7.7.7.7.7.7.7.",
"Z ` ` ` ` J 6.5.5.5.5.5.4.7.7.7.",
"h ` ` | ` ` ` ` ` ` ` ` o.7.7.7.",
"d g b V V G G ) G G ` ) ) 7.7.7.",
"- % 8 R I I =.=.-.-.-.-.=.I 2.A ",
"* o = o.` o.+.+.>.&.<.<.<.1.1.Z ",
"& . d v E E ` ` o.+.+.,.,.,.+.7.",
"@   j v v E E E [ ` } } $.$.Z 7.",
"+ X u i z z v v E E E [ ` ) 7.7.",
"O 2 e e e i i i a v V E v g 7.7.",
"H # # > : > 1 1 1 2 q q e 7.7.7.",
"7.2 1 7 1 7 1 2 7 2 7 7 2 7.7.7.",
"7.7.7.7.7.7.7.7.7.7.7.7.7.7.7.7.",
"7.7.7.7.7.7.7.7.7.7.7.7.7.7.7.7."
};
