/* XPM */
static const char *GBS0_xpm[] = {
/* columns rows colors chars-per-pixel */
"48 48 253 2",
"   c #5E310A",
".  c #773E04",
"X  c #7A3D01",
"o  c #753E09",
"O  c #6E3C11",
"+  c #483626",
"@  c #7B4005",
"#  c #75400B",
"$  c #7B4008",
"%  c #46484B",
"&  c #4A4B4A",
"*  c #645C53",
"=  c #6A6259",
"-  c #565D63",
";  c #4F6162",
":  c #526264",
">  c #5A6166",
",  c #536568",
"<  c #5E656A",
"1  c #55686B",
"2  c #5B6B6C",
"3  c #536770",
"4  c #556A76",
"5  c #5A6E74",
"6  c #566B7B",
"7  c #59697B",
"8  c #5C7176",
"9  c #5C727B",
"0  c #616B6F",
"q  c #7D746B",
"w  c #646A71",
"e  c #6E6F71",
"r  c #627072",
"t  c #677778",
"y  c #6D7378",
"u  c #677878",
"i  c #6C7B7C",
"p  c #70797D",
"a  c #814405",
"s  c #965404",
"d  c #9D5A05",
"f  c #A86609",
"g  c #B37513",
"h  c #BA7B16",
"j  c #BC7A19",
"k  c #B06D33",
"l  c #807469",
"z  c #BF8118",
"x  c #CC8F1B",
"c  c #E7A42F",
"v  c #E8B03A",
"b  c #5D6C83",
"n  c #51668E",
"m  c #5C7284",
"M  c #5A738C",
"N  c #566B93",
"B  c #5D7795",
"V  c #5C769B",
"C  c #5D799C",
"Z  c #617086",
"A  c #637883",
"S  c #627A8E",
"D  c #6D798B",
"F  c #747B80",
"G  c #787F83",
"H  c #627C93",
"J  c #677E9C",
"K  c #697FA6",
"L  c #798486",
"P  c #7E8388",
"I  c #7E8B8C",
"U  c #6C8991",
"Y  c #66819E",
"T  c #688299",
"R  c #708997",
"E  c #798F90",
"W  c #73899A",
"Q  c #76909F",
"!  c #6C84A6",
"~  c #6A86AB",
"^  c #6E89AB",
"/  c #788FA2",
"(  c #7187AC",
")  c #7189AD",
"_  c #7795A1",
"`  c #7B95A5",
"'  c #7791AE",
"]  c #7A95AA",
"[  c #7C98A8",
"{  c #6481B2",
"}  c #6B89B3",
"|  c #6F90BE",
" . c #7492B3",
".. c #7A95B3",
"X. c #7F98B1",
"o. c #7A97B8",
"O. c #7D9BBC",
"+. c #6686C2",
"@. c #6788C4",
"#. c #6889CA",
"$. c #6F90CC",
"%. c #7497C2",
"&. c #7398D5",
"*. c #7A9FDB",
"=. c #808D8E",
"-. c #838F90",
";. c #8A8E92",
":. c #899495",
">. c #969B9D",
",. c #8F9AA1",
"<. c #809AAB",
"1. c #8E9FB0",
"2. c #839DBB",
"3. c #9BA4A6",
"4. c #9DA7A8",
"5. c #8BABB3",
"6. c #83A1B8",
"7. c #8AA3BB",
"8. c #8DAABB",
"9. c #92A8BA",
"0. c #98ADBD",
"q. c #95B1B1",
"w. c #ABA5A0",
"e. c #A4A8AB",
"r. c #A5B3BC",
"t. c #BABBBC",
"y. c #FCED93",
"u. c #819EC0",
"i. c #84A2C3",
"p. c #8BA5C3",
"a. c #8EA8C4",
"s. c #8CA5C9",
"d. c #8CABCB",
"f. c #92AAC4",
"g. c #99AFC4",
"h. c #93ACCA",
"j. c #98AFCB",
"k. c #97B2C7",
"l. c #9AB2C7",
"z. c #9BBAC4",
"x. c #97B0C8",
"c. c #9BB3CB",
"v. c #9EBACE",
"b. c #92AED1",
"n. c #8DB1DC",
"m. c #95B2D2",
"M. c #9BB4D3",
"N. c #9FB8D3",
"B. c #9AB7D8",
"V. c #9DBADA",
"C. c #A5B6C3",
"Z. c #B3BDC4",
"A. c #A0B6D1",
"S. c #A2BAD3",
"D. c #A8BDD1",
"F. c #A3BBDA",
"G. c #A8BED8",
"H. c #A2BEE1",
"J. c #A8BFE0",
"K. c #9FC1CC",
"L. c #A3C4CC",
"P. c #ACC4CB",
"I. c #A6C8CE",
"U. c #B5C2C8",
"Y. c #B8C5CA",
"T. c #BEC8CF",
"R. c #A1C5D1",
"E. c #A9C4D5",
"W. c #A7C9D2",
"Q. c #A9CAD0",
"!. c #AAC2DA",
"~. c #ADCADB",
"^. c #B4CCD4",
"/. c #BCC9D2",
"(. c #B0C6DF",
"). c #B3CADC",
"_. c #ACD2D5",
"`. c #B2D4D6",
"'. c #BED3D7",
"]. c #B3D2DB",
"[. c #B6D8DD",
"{. c #A6C2E1",
"}. c #AAC4E4",
"|. c #ABC8E7",
" X c #ADC4E8",
".X c #ADCAEA",
"XX c #B0C5E3",
"oX c #B2CBE4",
"OX c #B8CFE5",
"+X c #B1C4EA",
"@X c #B3CCEC",
"#X c #B9CEEC",
"$X c #B5D1E2",
"%X c #BAD3E6",
"&X c #BCDAE4",
"*X c #BCD3EB",
"=X c #BFD9EB",
"-X c #B3CEF0",
";X c #B6D2F1",
":X c #BAD3F4",
">X c #BDD8F6",
",X c #BDD7F8",
"<X c #BEDAF9",
"1X c #BFE0E6",
"2X c #C6CFD6",
"3X c #C4D3D7",
"4X c #C9D3D7",
"5X c #C3D4DF",
"6X c #C3D4E1",
"7X c #C6D8E6",
"8X c #CFDAE1",
"9X c #C0D6ED",
"0X c #C2DBEB",
"qX c #C9DCEC",
"wX c #D2DCE3",
"eX c #C0D6F4",
"rX c #C3D9F4",
"tX c #C8DEF4",
"yX c #C1DDFB",
"uX c #C8DEF8",
"iX c #CEE1E4",
"pX c #C2E3E9",
"aX c #D9E1E6",
"sX c #D7E3EC",
"dX c #D8E3EA",
"fX c #C4E2F1",
"gX c #CCE2F4",
"hX c #CDEBF5",
"jX c #C6E0FB",
"kX c #CCE3FB",
"lX c #CDEAFA",
"zX c #D0E5F7",
"xX c #D0EEF5",
"cX c #DDE8F1",
"vX c #D1E7FB",
"bX c #D3EBFD",
"nX c #DAEDFD",
"mX c #D0F0F5",
"MX c #D2F1FC",
"NX c #D9F4FE",
"BX c #D7F8FE",
"VX c #D9F8FF",
"CX c #E3EAEB",
"ZX c #E1EBF3",
"AX c #E9EFF3",
"SX c #E0EEFB",
"DX c #E0F2F6",
"FX c #EBF2F5",
"GX c #E4F1FC",
"HX c #ECF4FA",
"JX c #F0F6FB",
"KX c #F1F8FD",
"LX c None",
/* pixels */
"LXLXLXLXLXLXLXLXLXLXLXLXLXLXLXLXLXLXLXLXLXLXLXLXLXLXLXLXLXLXLXLXLXLXLXLXLXLXLXLXLXLXLXLXLXLXLXLX",
"LXLX> LXLXLX> > P LXLX;.P LXLXP > > LXLXLX- LXLXLX> > P LXLX:.P LXLX=.- > LXLXLXy LXLXLX> 0 0 LX",
"LXP - LXLXF LXLXw LXLXy P LXLXw LXLXp LXG - LXLXF LXLXw LXLXy P LXLXw LXLXp LX>.0 LXLXe.;.LX;.e.",
"LXLX< LXLX< LXLXP LXLXLXP LXL : ; 3 b m 4 : : p > LXLXP LXLXLXP LXLXP LXLX0 LXLX=.LXLX=.LXLXLXP ",
"LXLX< LXLX0 LXLX=.LXLX:.: 6 { #. X Xn +X+Xn J.#.C 1 i y LXLXLX=.LXLXP LXLX< LXLXP LXLX=.LXLXLX=.",
"LXLX< LXLXF LXLXw LXt M #.+XJ.~ o.V.,XyXV.m. .:XK u.+.7 i LXLX=.LXLXw LXLXF LXLX=.LXLXe.;.LX;.e.",
"LX< - < LXLX> > r 3 #.N C <XyXyXkXnXnXSXGXnXlXyXyXyXV K { : - - F LXP > > LXLXF - - >.LX0 0 0 LX",
"LXLXLXLXLXLXLX=.M  X-XjX<XyXlXGXHXHXKXKXHXFXHXSXyXyXyXyX-XXX4 3.LXLXLXLXLXLXLXLXLXLXLXLXLXLXLXLX",
"LXLXLXLXLXLXI B +X,X,X.XyXjXcX8XwXZXKXHX8X2X3XaXSXyX<X;X<X:X|.6 4.LXLXLXLXLXLXLXLXLXLXLXLXLXLXLX",
"LXLXLXLXLX3.M @X,X|.i.%.m.>X/.r./.sXHXwXZ.T./.U.9X.Xd.O.|.<X,X+X6 LXLXLXLXLXLXLXLXLXLXLXLXLXLXLX",
"LXLXLXLXLX6 .X|.|.d.@XM.m.>XoXC./.sXZXY./.dXcXS.d.|.}.i.d.yXd.M.oX> LXLXLXLXLXLXLXLXLXLXLXLXLXLX",
"LX> P > 2 #.) <Xp..XjXd.B.yX;Xp.A.9XqXg.E.*X;XB.s.|.<XV.i.<X}.}.) } < > LXLXLXw F < LXLXP - LXLX",
">.>.LXi H }.^ <XO.;X<Xd.B.<X;Xu.m.|.-Xu.B..X:XV.p.|.yX|.i.<X;Xi.>X@X4 0 LXLXLXy LXLXy LXLX> LXLX",
"P LXLX: &.,X}.<X .;X;XO.V.,X@X%.b.|.-XB.i.H..Xi.m..XyX-Xo.<X<Xo.yX:X| , LXLXLXP LXLX< LXLX0 LXLX",
"P LXLXm ( V.:X:XO.V.m.i.|.|.b.o.%.b.H..Xi.i.d.O.{.-X.XB. .{.<XO..Xs.:X, 3.LXLXP LXLX< LXLX< LXLX",
"LXy L } M.o.i.:Xm. .O.V.-XV.i.%.u.s.V.:XB.i.i.d..X-XV.2.O.o..X|.2.s.:XY L LXLX< LX>.;.LXLX< LXLX",
"LXP ; *.<XB.}.:X-X.X-X:X-X:X:X:X:X:X;X:X:X:X:X:X:X:XeXeX,X:X,X,X.XV.^ o.: >.LXe.< y LXLX< < < LX",
"LXLX, :X<X<X,X>X:X:X:X,X:X:X:X:X:X:X:X:X:X:X-XeX:X:XyXyXyXyXyXyXyXyXyX#X: LXLXLXLXLXLXLXLXLXLXLX",
"LXLX9 :XjX<X,X>X:X:X:X:X:X:X:X:X:X:X:X#XeXeX#XeX:XeXeXuXyXyXyXuXjXjXyXeX; LXLXLXLXLXLXLXLXLXLXLX",
"LXLXS >X,X;X>X,X;X-X+X:X:X-X+XG.G.+X:X:XeXJ.J.eXeXeXeX+XOX:XyXyXrX>XyX,X1 LXLXLXLXLXLXLXLXLXLXLX",
"LXLXT rXm.' {.<X-Xm.h.:XeXF.2.K ( j.#XeXeXM.2.9XtXeXJ.2.) f.@XyX@Xx.jXJ 4 LXLXLX>.LXLXLXP < P LX",
"LX> S yXs.!.c..Xd.o.h.eXeXM.u.G.s.u.M.eXh.' 2.eXuXoXj.f.!.f.!.@Xa.i.jX%X: L LXF - LXLXLXy LXy LX",
"LXLXm tXM.:Xh.oXS.p.h.uX#XM.j.eXXXf.f.uXF.p.2.rXuXJ.p.oXrXj.S.OXS.p.*X9X; < LXLXP LXLXP LXLXLXP ",
"LXLX, tX2.yXh.oX9XA.h.uXXXc.A.uXkXA.f.uXuXG.p.uXvXG.f.kXvXA.A.:XoXa.!.9X; < LXLXP LXLXP LXLXLXP ",
"LXLX; n.kXjXa.%X*XS.j.uXXXc.A.kXvXA.p.lXkXG.a.jXkXG.f.kXkXA.S.tXXXz.<.O.0 y LXLX=.LXLX>.>.LX>.>.",
"LXP ; ..%X!.7.:XtXG.f.uX*XA.l.vXrXA.f.lXlX!.8.lXvXG.k.9XvXf.(.tXE.c.' A > LXLX>.0 y LXLX- =.> LX",
"LXLX-.5 9Xk.7.gX!.p.2.!.9X!.a.(.A.l.N.lX%Xx.O.].rX(.c.c.D.7.rX).9.z.tX; LXLXLXLXLXLXLXLXLXLXLXLX",
"LXLXLX: d.vXgXvXOXc.g.S.9X*Xk.f.9.A.%XlXN.8.5.m.OX*X).c.c.(.vX%X).vX] r LXLXLXLXLXLXLXLXLXLXLXLX",
"LXLXLX>.9 vXMXMXgX*X%X%XtXvXkX!.%XfXbXlX$XW.~.~.fXlXgX0X*XvXbXnXnXgX, LXLXLXLXLXLXLXLXLXLXLXLXLX",
"LXLXLXLX1 6.bXNXNXvXvXvXvXvXvXlXlXlXMXMXlXfXlXlXlXbXbXbXbXNXNXNXbXR u LXLXLXLXLXLXLXLXLXLXLXLXLX",
"LX< 0 > LX, 9.<.NXNXbXbXbXbXbXbXMXlXMXMXMXMXMXMXMXMXbXMXNXVXNXQ 1.7 e.y LXLXLX=.> > LXLXLX- LXLX",
"e.;.LX;.e.F 5 W bX^.0XhXnXbXlXlXMXMXMXMXMXMXMXMXMXMXNXxXxXVXnXqXb b D w LXLXLXw LXLXF LX=.- LXLX",
"P LXLXLXP LXi 8 zXbX0Xz.`.NXpXE.].fXMXMX_.R.K.W.BXmX_.5.NX[ qXZ b E % &   o w.=.LXLX< LXLX< LXLX",
"P LXLXLXP LXLX: 1 7X` NX5.hX].z.L.pXNXiXU.3X'.I.[.pXQ.L.MXA m b % E `.O f s o q LXLX< LXLX< LXLX",
"e.;.LX;.e.LXLX< :.; W zXnX].VX[.P.&XDXY.4XFXCXQ.`.BX[ gXU ; >.Z % % O v y.x s o LXLXF LXLX< LXLX",
"LX< < < LXLX< - 0 LX, 1 [ 0.bX9.z.&XxXP.^.DX^.MX].W Q 1 u :.> < % O j d c y.x s o * LXLX< - < LX",
"LXLXLXLXLXLXLXLXLXLXLX3.: ; 8 [ 6XqXgXxXgXqX5X` t , 5 LXLXLXLXLXO d . X d c y.x s o LXLXLXLXLXLX",
"LXLXLXLXLXLXLXLXLXLXLXLXLXLX-.: ; ; ; ; : : ; 2 :.LXLXLXLXLXLXLXo X x X @ d v y.x s o LXLXLXLXLX",
"LXLXLXLXLXLXLXLXLXLXLXLXLXLXLXLXLXLXLXLXLXLXLXLXLXLXLXLXLXLXLXLXLXX X j X . d c y.x s # LXLXLXLX",
"LXLXe.LXLXLX>.P LXLXLXLXLXLXLXLXP >.LXLXLXe.LXLXLX>.P LXLXLXLXLXLXLXa X g X a d v y.x s o q LXLX",
"LX< - LXLX>.F e.< LX>.> P LXLX< e.p >.LX0 - LXLX>.F e.< LX>.- P LXLX* X . x X X d c y.x s # < LX",
"LXLX< LXLXw LXLXF LXLXLXP LXLXp LXLXe LXLX0 LXLXw LXLXF LXLXLXP LXLXG LXX X j . a d c y.x s ;.;.",
"LXLX0 LXLX0 LXLXP LXLXLX=.LXLX=.LXLX0 LXLX< LXLX0 LXLXP LXLXLXP LXLX=.LXLX. X x X a d v y.X % L ",
"LXLX0 LXLX0 LXLXF LXLXLXP LXLXp LXLXw LXLX< LXLXw LXLXF LXLXLXP LXLXF LXLX= @ X j X . d k _.; ;.",
"LXLX> LXLX>.F e.0 LXLX;.e LXLX0 e.p >.LXLX- LXLX>.p e.0 LXLX;.y LXLX0 e.F >.LX@ X g X $ + % % LX",
"LXP P P LXLX>.P LXLXLX=.=.>.LXLX=.>.LXLX=.P =.LXLX>.=.LXLXLXP P >.LXLXP >.LXLXl @ X $ + q.E % LX",
"LXLXLXLXLXLXLXLXLXLXLXLXLXLXLXLXLXLXLXLXLXLXLXLXLXLXLXLXLXLXLXLXLXLXLXLXLXLXLXLXLXe % % % % t.LX",
"LXLXLXLXLXLXLXLXLXLXLXLXLXLXLXLXLXLXLXLXLXLXLXLXLXLXLXLXLXLXLXLXLXLXLXLXLXLXLXLXLXLXLXLXLXLXLXLX"
};
