/* XPM */
static const char *GBS1_xpm[] = {
/* columns rows colors chars-per-pixel */
"16 16 158 2",
"   c #39362E",
".  c #603104",
"X  c #633304",
"o  c #7A3D01",
"O  c #793E05",
"+  c #5B3C26",
"@  c #4B4846",
"#  c #464D53",
"$  c #474E54",
"%  c #495258",
"&  c #4A5359",
"*  c #4A545A",
"=  c #4B555B",
"-  c #4B565C",
";  c #4C565C",
":  c #4D585E",
">  c #4D595F",
",  c #515759",
"<  c #50585A",
"1  c #4E5B61",
"2  c #4F5C61",
"3  c #4F5C62",
"4  c #505C62",
"5  c #515D63",
"6  c #505E65",
"7  c #515E66",
"8  c #57646A",
"9  c #59656B",
"0  c #5F6B70",
"q  c #5C6C72",
"w  c #56697C",
"e  c #576A7D",
"r  c #586B7A",
"t  c #5B6F7E",
"y  c #5A6E7F",
"u  c #617076",
"i  c #677378",
"p  c #707A7F",
"a  c #9B5B13",
"s  c #A46316",
"d  c #586D89",
"f  c #586E8A",
"g  c #5F758A",
"h  c #5A708C",
"j  c #61778C",
"k  c #677E8D",
"l  c #657D8E",
"z  c #667D97",
"x  c #657E9D",
"c  c #7E888C",
"v  c #6A8390",
"b  c #69839B",
"n  c #68849F",
"m  c #6E899F",
"M  c #6682AA",
"N  c #6A86AB",
"B  c #6E89A8",
"V  c #6C8AB3",
"C  c #6F91BF",
"Z  c #6E93BE",
"A  c #7092C0",
"S  c #7295C0",
"D  c #7295C2",
"F  c #7496C3",
"G  c #7398C2",
"H  c #7599C4",
"J  c #7C9FC0",
"K  c #789BC9",
"L  c #799BC9",
"P  c #7A9DCA",
"I  c #7EA1C7",
"U  c #7FA2C8",
"Y  c #7EA2CC",
"T  c #808A8E",
"R  c #918781",
"E  c #95AABD",
"W  c #9AADBE",
"Q  c #F4D79E",
"!  c #88ABC2",
"~  c #80A3C8",
"^  c #97A9C1",
"/  c #9AAEC8",
"(  c #8BB0CA",
")  c #92B4C9",
"_  c #94BCC9",
"`  c #84A7D2",
"'  c #84A6D3",
"]  c #8BADD0",
"[  c #8CAFDB",
"{  c #8DAFDB",
"}  c #88B9D3",
"|  c #8EB1DC",
" . c #9EB4D7",
".. c #98BAD3",
"X. c #90B2DE",
"o. c #9FB6D8",
"O. c #94BAD9",
"+. c #99BBDF",
"@. c #A1B6CB",
"#. c #A5BBD0",
"$. c #A5BBD4",
"%. c #A9BFD5",
"&. c #95B6E2",
"*. c #96B9E1",
"=. c #96B8E2",
"-. c #A3BFE8",
";. c #A4BFEA",
":. c #9CC1CA",
">. c #9BC0DA",
",. c #BCC0C3",
"<. c #A5C9D1",
"1. c #A9CAD4",
"2. c #A3C5DE",
"3. c #A9C3DC",
"4. c #BFE1DD",
"5. c #9DC0E2",
"6. c #A4C7E2",
"7. c #A9C9E1",
"8. c #A4C3EF",
"9. c #AEC8E9",
"0. c #B1CAE5",
"q. c #ACD3E1",
"w. c #A6C7F2",
"e. c #A8C5F0",
"r. c #A9C7F1",
"t. c #AACAF3",
"y. c #ABCCF3",
"u. c #AACBF5",
"i. c #AACCF5",
"p. c #ABCCF5",
"a. c #ACCCF4",
"s. c #ADCEF5",
"d. c #ADCEF7",
"f. c #ADCEF8",
"g. c #B1D2F9",
"h. c #B0D0FB",
"j. c #B0D1FB",
"k. c #B0D2FB",
"l. c #B6DDFA",
"z. c #B6DFFB",
"x. c #BFDFFC",
"c. c #B5E5FD",
"v. c #B7E6FD",
"b. c #FDF3CA",
"n. c #CDDAE3",
"m. c #CCDFE2",
"M. c #D8E0E3",
"N. c #D9E2E5",
"B. c #DAE3E4",
"V. c #C1E2F6",
"C. c #C7EAFD",
"Z. c #CCF1FE",
"A. c #D0F2FE",
"S. c #E3E4E5",
"D. c #F6FFFF",
"F. c #FCFDFE",
"G. c #FFFFFF",
"H. c None",
/* pixels */
"# # # H., 4 4 1 1 = $ H.$ $ H.H.",
"# H.& 9 r h $. .d d 3 H.H.$ H.H.",
"# * 6 / B W %.G.E x f 7 & $ $ H.",
"H.q / r.V.M.S.G.M.+.;.^ q H.H.H.",
"- k r.j.H Y D u.[ F +.8.z ; H.H.",
"i z f.| P ' C w.+.F ' 8.#.> H.H.",
"3 B Z [ Z A L w.K C Z X.N 1 # H.",
"8 0.j.d.u.a.d.y.r.u.j.j.9.0 H.H.",
"3 b Z +.I O.l.l.] ~ ~ *.n ; H.H.",
"; v ^ V.>.} v.v.( 2...7.t = H.H.",
"$ 3 m A.<._ q.Z.:.1.) @., @ $ H.",
"H.H.4 <.C.m.B.D.n.6.#.4 + a H.H.",
"# # H.q r g M 3.j t , + . b.a H.",
"H.# H.H.& c : p T & H.o O s Q a ",
"# # # H.# # # H.$ # $ H.X O 4.  ",
"H.H.H.H.H.H.H.H.H.H.H.H.R X     "
};
