/* XPM */
static const char *loadfile0_xpm[] = {
/* columns rows colors chars-per-pixel */
"32 32 86 1",
"  c #484E52",
". c #4B545C",
"X c #4F5965",
"o c #505A66",
"O c #525F6F",
"+ c #536070",
"@ c #566578",
"# c #58677A",
"$ c #5B6C83",
"% c #5D718C",
"& c #627897",
"* c #647B9D",
"= c #657EA2",
"- c #6880A1",
"; c #6680A8",
": c #6A84AA",
"> c #6E8AB4",
", c #6D8CBB",
"< c #7190BD",
"1 c #6186C2",
"2 c #658BC7",
"3 c #6C8EC6",
"4 c #698CC9",
"5 c #6A90CC",
"6 c #7192C5",
"7 c #7294CB",
"8 c #7A9BCB",
"9 c #668CD0",
"0 c #6C93D3",
"q c #6E95D9",
"w c #7095D5",
"e c #7299D6",
"r c #7B9CD2",
"t c #739BDC",
"y c #7B9EDA",
"u c #7CA0D3",
"i c #7CA2DD",
"p c #739BE0",
"a c #77A1E5",
"s c #7BA4E3",
"d c #7FA8E3",
"f c #7BA4E9",
"g c #7AA8ED",
"h c #879DC0",
"j c #80A1D6",
"k c #83A4DA",
"l c #86A9DC",
"z c #8CABDD",
"x c #9CB5DF",
"c c #85ACE4",
"v c #83ADEA",
"b c #90AEE2",
"n c #87B2E5",
"m c #86B0EB",
"M c #89B3ED",
"N c #93BEEC",
"B c #86B0F0",
"V c #8BB4F2",
"C c #8EB8F4",
"Z c #90BBF6",
"A c #93BEF8",
"S c #A2BBE3",
"D c #95C1ED",
"F c #99C4EE",
"G c #9DCBEE",
"H c #96C1F3",
"J c #99C5F2",
"K c #9BC8F0",
"L c #B2C8EC",
"P c #AED2F3",
"I c #B6DAF5",
"U c #B9DCF7",
"Y c #B7DCF9",
"T c #B8DDF9",
"R c #BCE1FC",
"E c #C2E1F9",
"W c #CBE6FA",
"Q c #CFE9FB",
"! c #D4EAFC",
"~ c #DAEEFD",
"^ c #DFF1FD",
"/ c #E2EFFD",
"( c #E3F3FE",
") c #F1FAFF",
"_ c #F9FCFF",
"` c None",
/* pixels */
"````````````````````````````````",
"````````````````````````````````",
"````````````````````````````````",
"````````````````````````````````",
"``Lziiikicil````````````````````",
"``l_RRRRRRRTz```````````````````",
"``lGZZZZZZZZPzbzzzzzzzzzzz``````",
"``bGZZZZZZZZZQYYTTTTTTTTTTk`````",
"``zGCHZZZZZZHCHZZZZZZZZZZZc`````",
"``lGCCZZZZZZCCZZZZZZZZZZZZs`````",
"``kGnmMMMMVMMMMMMMMMmmmmmvi`````",
"``jKddddnmmmvvmmvccmvcmmvmixSSS`",
"``jKsisd)^^^~!!QWWEETTUUUTYIIIIl",
"``rKyyeDHCCCCCZCZZZZZZAAZZZAAAZz",
"``rKeeeGVVCVCCCCCCZZZZZCZZCZZZv`",
"``rJ05nHmm888VVC8Vc8888ClcCCCZj`",
"``rJ04JBv>#=o=B= uu- &:vo$VVVBS`",
"``7J4jNpv@7B>%<+#iv8@BB#*$BBBy``",
"``7J1Nvp6@vvo:X, vv@6v%%&*Bvvz``",
"``7J4Npv@6t%@X=*.g6@v%$=@=vft```",
"``7ABvpw  X=+3g6@f$,,@gg*:vfy```",
"``8RVppgfffffffffffgffffffptL```",
"``3/vqfpvppgffffffffpfffffpe````",
"``3Zp9qqqqqqqqqqqttqpppppqpb````",
"``7fgggggggggggggggggggggpe`````",
"```44444449444444444444444h`````",
"````````````````````````````````",
"````````````````````````````````",
"````````````````````````````````",
"````````````````````````````````",
"````````````````````````````````",
"````````````````````````````````"
};
