/* XPM */
static const char *saveprj1_xpm[] = {
/* columns rows colors chars-per-pixel */
"16 16 100 2",
"   c #1D1E1F",
".  c #1F2021",
"X  c #1E2121",
"o  c #1F2121",
"O  c #202223",
"+  c #212223",
"@  c #212324",
"#  c #212225",
"$  c #232526",
"%  c #242627",
"&  c #252728",
"*  c #262728",
"=  c #27292A",
"-  c #27292B",
";  c #27292C",
":  c #2B2B2E",
">  c #2A2C2E",
",  c #2B2C2E",
"<  c #2D2F30",
"1  c #2C2F31",
"2  c #2F2F32",
"3  c #2F3133",
"4  c #2E3134",
"5  c #2F3134",
"6  c #303134",
"7  c #323335",
"8  c #323336",
"9  c #323436",
"0  c #333537",
"q  c #343538",
"w  c #35363A",
"e  c #35373A",
"r  c #36363A",
"t  c #363839",
"y  c #37383A",
"u  c #37393A",
"i  c #36393B",
"p  c #37393B",
"a  c #38393D",
"s  c #393A3D",
"d  c #393A3E",
"f  c #393B3F",
"g  c #373C41",
"h  c #3C3E41",
"j  c #3D3E42",
"k  c #3F4145",
"l  c #404145",
"z  c #424448",
"x  c #434548",
"c  c #46474B",
"v  c #45484B",
"b  c #46484B",
"n  c #4A4B4D",
"m  c #464D53",
"M  c #494B50",
"N  c #4B4D50",
"B  c #4D4F51",
"V  c #505154",
"C  c #5F6060",
"Z  c #5F6061",
"A  c #6A6B6D",
"S  c #707074",
"D  c #707276",
"F  c #CA6C00",
"G  c #EE7F03",
"H  c #96A3AF",
"J  c #97A3AF",
"K  c #A4ADB3",
"L  c #A6B2B2",
"P  c #C2E8E8",
"I  c #C8E8E8",
"U  c #C9E8E8",
"Y  c #CBEAEA",
"T  c #CCE8E8",
"R  c #CDE8E8",
"E  c #CDEAEA",
"W  c #CEEAEA",
"Q  c #CFECEC",
"!  c #D3EEEE",
"~  c #D3EFEF",
"^  c #D4E9FB",
"/  c #D5EAFB",
"(  c #D5E9FC",
")  c #D6EAFC",
"_  c #D7EBFC",
"`  c #D8EBFB",
"'  c #D8EBFC",
"]  c #D4F0F0",
"[  c #D7F0F0",
"{  c #D6F1F1",
"}  c #D9F0F0",
"|  c #DBF2F2",
" . c #DDF2F2",
".. c #E1F4F4",
"X. c #E4F5F5",
"o. c #E8F6F6",
"O. c #E9F6F6",
"+. c #EAF8F8",
"@. c #EBF8F8",
"#. c None",
/* pixels */
"D d j d M L L L L L L L L   D #.",
"d A u g A O.@.@.X.X...v } + d S ",
"d v B d c  . .| ] ! Y c P % v d ",
"i z B d z ] ] ! ! W I c P , x i ",
"r l n d d W W R T P P ~ P 6 l r ",
"9 j V n i i u u y y u i i q f 9 ",
"8 d d d d d d d d d d d d d f q ",
"4 r H ` ` ` ' ' ' ` ` ` ` H t 6 ",
"< 8 ' ' ' ' ' ' ' ' ' ' ' ' 8 < ",
": < K m m m ` m m K _ K m m < : ",
"; : m ' ' K _ m g m ' m g K : ; ",
"& - m ( K m _ m K m _ _ K m - & ",
"$ $ K m m m / m m K / m m K % $ ",
"+ @ ' ' ' ' ' ' ' ' ' ' ' ' @ + ",
"X 4 G G G G G G G G G G G G 3 X ",
"Z   F F F F F F F F F F F F X Z "
};
