/* XPM */
static const char *up__ico__[] = {
/* columns rows colors chars-per-pixel */
"32 32 201 2",
"   c #7FB21F",
".  c #7FB31F",
"X  c #709F32",
"o  c #7CAF23",
"O  c #79AB27",
"+  c #7BAC26",
"@  c #7CAD24",
"#  c #76A62B",
"$  c #73A32E",
"%  c #75A52D",
"&  c #74A42E",
"*  c #76A82A",
"=  c #78A929",
"-  c #7EB021",
";  c #7FB220",
":  c #7FB320",
">  c #71A031",
",  c #71A131",
"<  c #72A230",
"1  c #7DAD34",
"2  c #8CB912",
"3  c #8CB913",
"4  c #8CBA12",
"5  c #8DBB12",
"6  c #8EBE10",
"7  c #8EBE11",
"8  c #80B31F",
"9  c #80B220",
"0  c #80B320",
"q  c #8EBF2E",
"w  c #8EBE2F",
"e  c #8DBD31",
"r  c #8DBE30",
"t  c #8DBD33",
"y  c #8BBB37",
"u  c #8CBB36",
"i  c #8CBC34",
"p  c #8CBC36",
"a  c #8FC10F",
"s  c #90C20F",
"d  c #91C30F",
"f  c #93C70D",
"g  c #92C40F",
"h  c #93C50F",
"j  c #94C70F",
"k  c #93C90C",
"l  c #93CA0C",
"z  c #94C90C",
"x  c #94CA0C",
"c  c #95CA0C",
"v  c #94CB0C",
"b  c #95CB0C",
"n  c #94CA0D",
"m  c #94CB0D",
"M  c #96CB0C",
"N  c #95C80F",
"B  c #96C90F",
"V  c #95CC0C",
"C  c #95CC0D",
"Z  c #96CC0C",
"A  c #97CC0C",
"S  c #96CD0C",
"D  c #96CC0D",
"F  c #97CD0D",
"G  c #98CB0F",
"H  c #98CD0C",
"J  c #98CD0D",
"K  c #98CE0D",
"L  c #99CE0D",
"P  c #98CF0D",
"I  c #99CF0D",
"U  c #9ACF0D",
"Y  c #99CD0F",
"T  c #9BCF0E",
"R  c #9AD00D",
"E  c #9AD10D",
"W  c #9BD10D",
"Q  c #9BD10E",
"!  c #9CD20D",
"~  c #9DD30D",
"^  c #9ED30D",
"/  c #9CD10F",
"(  c #9ED20F",
")  c #9ED30F",
"_  c #9DD40D",
"`  c #9FD40D",
"'  c #9ED50D",
"]  c #9FD50D",
"[  c #9DD40E",
"{  c #9FD40E",
"}  c #9FD50E",
"|  c #8FC110",
" . c #9FD11B",
".. c #9DD01F",
"X. c #9FD11E",
"o. c #A0D50E",
"O. c #A0D60E",
"+. c #A1D70E",
"@. c #A2D80E",
"#. c #A3D80E",
"$. c #A2D90E",
"%. c #A3D90E",
"&. c #A3DA0E",
"*. c #A4D90E",
"=. c #A4DA0E",
"-. c #A4DB0E",
";. c #A5DB0E",
":. c #A5DB0F",
">. c #A6DC0E",
",. c #A7DD0E",
"<. c #A6DC0F",
"1. c #A7DD0F",
"2. c #A7DE0E",
"3. c #A8DE0F",
"4. c #A9DE0F",
"5. c #A8DF0F",
"6. c #A9DF0F",
"7. c #AADF0F",
"8. c #A0D31D",
"9. c #A9DC1B",
"0. c #ABDE1D",
"q. c #ACDF1F",
"w. c #A9E00F",
"e. c #AAE00F",
"r. c #AAE10F",
"t. c #ABE10F",
"y. c #ACE10F",
"u. c #ACE20F",
"i. c #ADE20F",
"p. c #ADE30F",
"a. c #ADE40F",
"s. c #AEE40F",
"d. c #AEE50F",
"f. c #AFE50F",
"g. c #ACE210",
"h. c #ADE310",
"j. c #AEE410",
"k. c #8FC12B",
"l. c #8FC02C",
"z. c #91C326",
"x. c #92C425",
"c. c #91C427",
"v. c #99C726",
"b. c #9ACB22",
"n. c #9ACA23",
"m. c #9BCC22",
"M. c #9CCC21",
"N. c #9DCE20",
"B. c #99C924",
"V. c #99C825",
"C. c #99C925",
"Z. c #99C826",
"A. c #99C827",
"S. c #9AC926",
"D. c #90C228",
"F. c #90C22A",
"G. c #93C528",
"H. c #95C729",
"J. c #97C92A",
"K. c #99CA2D",
"L. c #9BCC2E",
"P. c #9DCE30",
"I. c #9ECF31",
"U. c #A4D327",
"Y. c #A5D427",
"T. c #A5D527",
"R. c #A6D527",
"E. c #A6D627",
"W. c #A5D62A",
"Q. c #A7D82E",
"!. c #A0D032",
"~. c #A2D134",
"^. c #A3D336",
"/. c #A4D337",
"(. c #A5D435",
"). c #AADA31",
"_. c #ACDB31",
"`. c #ACDC34",
"'. c #A5D538",
"]. c #A6D539",
"[. c #AFDD38",
"{. c #B1DF3C",
"}. c #AEE121",
"|. c #B0E223",
" X c #B2E425",
".X c #B3E527",
"XX c #B5E528",
"oX c #B5E72A",
"OX c #B6E82C",
"+X c #B8E92D",
"@X c #B8E92E",
"#X c #B9EA2F",
"$X c #B3E13F",
"%X c #B3D85F",
"&X c #B5E242",
"*X c #B6E345",
"=X c #B8E448",
"-X c #B9E54A",
";X c #BAE64C",
":X c #BBE64E",
">X c None",
/* pixels */
">X>X>X>X>X>X>X>X>X>X>X>X>X>X>X%X>X>X>X>X>X>X>X>X>X>X>X>X>X>X>X>X",
">X>X>X>X>X>X>X>X>X>X>X>X>X>X].#X:X>X>X>X>X>X>X>X>X>X>X>X>X>X>X>X",
">X>X>X>X>X>X>X>X>X>X>X>X>X].#Xf.f.:X>X>X>X>X>X>X>X>X>X>X>X>X>X>X",
">X>X>X>X>X>X>X>X>X>X>X>X].OXj.f.f.j.-X>X>X>X>X>X>X>X>X>X>X>X>X>X",
">X>X>X>X>X>X>X>X>X>X>X~.OXf.y.f.u.a.u.=X>X>X>X>X>X>X>X>X>X>X>X>X",
">X>X>X>X>X>X>X>X>X>X~.oXy.y.y.y.u.u.u.g.*X>X>X>X>X>X>X>X>X>X>X>X",
">X>X>X>X>X>X>X>X>XI. Xu.y.y.y.y.u.u.u.u.u.&X>X>X>X>X>X>X>X>X>X>X",
">X>X>X>X>X>X>X>XI. Xu.u.u.u.3.y.u.1.1.u.3.u.$X>X>X>X>X>X>X>X>X>X",
">X>X>X>X>X>X>XI. X1.g.1.7.3.7.7.7.7.3.3.7.3.3.{.>X>X>X>X>X>X>X>X",
">X>X>X>X>X>XP.}.1.1.1.1.1.1.3.3.3.3.3.3.3.3.3.1.[.>X>X>X>X>X>X>X",
">X>X>X>X>XK.E.3.3.3.1.1.1.1.1.1.3.,.1.,.3.3.1.1.1.`.>X>X>X>X>X>X",
">X>X>X>XK.h.t.1.-.3.1.1.1.-.1.1.-.,.>.,.1.-.1.1.1.-.).>X>X>X>X>X",
">X>X>XH.0.-.-.-.-.-.:.-.-.-.-.-.-.-.-.1.-.-.-.-.-.-.-.Q.>X>X>X>X",
">X>XG.9.+.-.%.-.*.-.*.*.*.*.-.-.-.-.#.#.-.%.-.-.*.*.-.%.W.>X>X>X",
">Xz._.E.E.U.U.U.U.T *.*.+.*.+.+.#.+.#.#.+.%. .U.U.U.U.E.E.(.>X>X",
">X8 9 : 8 9 9 : x.o.+.+.+.+.+.+.+.+.+.+.+.+.8.9 9 9 8 8 : . . >X",
">X>X>X>X>X>X>X>XD.! } } +.} } } +.+.o.+.+.+.N.- >X>X>X>X>X>X>X>X",
">X>X>X>X>X>X>X>Xk.! } } } } } } o.^ ^ ^ ' +.N.: >X>X>X>X>X>X>X>X",
">X>X>X>X>X>X>X>XD.L } ! } ! ! ! ^ ' ^ ^ ! ! N.o >X>X>X>X>X>X>X>X",
">X>X>X>X>X>X>X>Xl.G ! ! ! ! ! ! W W W ^ ! ! N.O >X>X>X>X>X>X>X>X",
">X>X>X>X>X>X>X>Xl.N ! L ! ! ! ! W ! ! ! L ! m.O >X>X>X>X>X>X>X>X",
">X>X>X>X>X>X>X>Xq M ! L L ! S ! I W ! L ! L m.* >X>X>X>X>X>X>X>X",
">X>X>X>X>X>X>X>Xe h L S L L S S P P P L S L n.# >X>X>X>X>X>X>X>X",
">X>X>X>X>X>X>X>Xe N S L S L L M P P A A S L C.# >X>X>X>X>X>X>X>X",
">X>X>X>X>X>X>X>Xe h P A l P A A M S S S S M C.& >X>X>X>X>X>X>X>X",
">X>X>X>X>X>X>X>Xe d l A A l k A M M M l M M C.& >X>X>X>X>X>X>X>X",
">X>X>X>X>X>X>X>Xi a M l l A l A l l l M M M C.& >X>X>X>X>X>X>X>X",
">X>X>X>X>X>X>X>Xy 7 l A l k k l l M l l l h C.> >X>X>X>X>X>X>X>X",
">X>X>X>X>X>X>X>Xp 3 6 a a a a a | | a a a 3 C.> >X>X>X>X>X>X>X>X",
">X>X>X>X>X>X>X>Xp 3 3 3 3 3 3 3 3 3 3 3 3 3 C.> >X>X>X>X>X>X>X>X",
">X>X>X>X>X>X>X>X1 y y y y y y y y y y y y y y X >X>X>X>X>X>X>X>X",
">X>X>X>X>X>X>X>X>X>X>X>X>X>X>X>X>X>X>X>X>X>X>X>X>X>X>X>X>X>X>X>X"
};
