/* XPM */
static const char *about_xpm[] = {
/* columns rows colors chars-per-pixel */
"16 16 161 2",
"   c #6183C3",
".  c #6284C4",
"X  c #6385C5",
"o  c #6F8FC8",
"O  c #6B8DCF",
"+  c #6B8ECE",
"@  c #6F8FCC",
"#  c #6D8FCE",
"$  c #7191CE",
"%  c #6F92D4",
"&  c #7192D2",
"*  c #7A9AD3",
"=  c #799AD5",
"-  c #7599DC",
";  c #759ADE",
":  c #769ADE",
">  c #779BDE",
",  c #779BDF",
"<  c #789ADA",
"1  c #7D9EDA",
"2  c #779CE0",
"3  c #789CE0",
"4  c #789DE0",
"5  c #789DE1",
"6  c #799DE1",
"7  c #799EE1",
"8  c #7A9FE0",
"9  c #799EE2",
"0  c #7A9FE2",
"q  c #7A9FE3",
"w  c #7B9FE3",
"e  c #7BA0E2",
"r  c #7BA0E3",
"t  c #7CA1E1",
"y  c #7EA2E0",
"u  c #7BA0E4",
"i  c #7CA0E4",
"p  c #7EA2E4",
"a  c #7EA3E5",
"s  c #7EA3E7",
"d  c #7FA4E7",
"f  c #7FA4E8",
"g  c #7FA5E8",
"h  c #879ABE",
"j  c #88A0CB",
"k  c #80A2DC",
"l  c #81A2DE",
"z  c #81A4E0",
"x  c #82A5E1",
"c  c #83A6E5",
"v  c #80A5E7",
"b  c #84A8E3",
"n  c #85A9E5",
"m  c #8EABE0",
"M  c #8BABE6",
"N  c #89ACE7",
"B  c #80A5E8",
"V  c #80A5E9",
"C  c #80A6E9",
"Z  c #81A6E9",
"A  c #82A7E9",
"S  c #82A8E9",
"D  c #83A8EA",
"F  c #83A9EA",
"G  c #85A9E8",
"H  c #87ABE9",
"J  c #85AAEA",
"K  c #85AAEB",
"L  c #85ABEB",
"P  c #86ABEB",
"I  c #87ACEB",
"U  c #88ACE9",
"Y  c #88ADEC",
"T  c #88AEEC",
"R  c #89AEEC",
"E  c #89AFEC",
"W  c #8AAFEC",
"Q  c #8BAFEC",
"!  c #8AAFED",
"~  c #8CB2EA",
"^  c #8DB3EB",
"/  c #8EB3EB",
"(  c #8CB1ED",
")  c #8CB2EC",
"_  c #8EB2EC",
"`  c #8EB3EC",
"'  c #8CB2EE",
"]  c #8DB2EE",
"[  c #8DB3EE",
"{  c #8EB3EE",
"}  c #8FB4EC",
"|  c #96B4EB",
" . c #90B5EF",
".. c #93B4EE",
"X. c #90B6EF",
"o. c #91B6EF",
"O. c #9FBDEF",
"+. c #91B7F0",
"@. c #93B9F1",
"#. c #94B8F0",
"$. c #94B9F1",
"%. c #96B8F1",
"&. c #95BAF1",
"*. c #97BAF1",
"=. c #96BCF2",
"-. c #98BAF1",
";. c #99BDF2",
":. c #99BCF3",
">. c #9ABDF2",
",. c #98BEF2",
"<. c #98BEF3",
"1. c #99BFF3",
"2. c #9ABFF3",
"3. c #9CBDF3",
"4. c #9CBEF3",
"5. c #9BBEF4",
"6. c #A3BBE5",
"7. c #A3BEED",
"8. c #9CC1F5",
"9. c #9DC2F5",
"0. c #9FC2F5",
"q. c #B1C7ED",
"w. c #B7CAEB",
"e. c #B3C9EF",
"r. c #BACDEE",
"t. c #A5C2F3",
"y. c #A2C7F7",
"u. c #ACC7F3",
"i. c #A5C8F7",
"p. c #ABCFF2",
"a. c #AFC9F4",
"s. c #A3C5F8",
"d. c #A5C9F9",
"f. c #A8CBF9",
"g. c #AACDFB",
"h. c #ACCFFB",
"j. c #B6CCF1",
"k. c #B1CAF4",
"l. c #B9CFF2",
"z. c #ACD0F2",
"x. c #AED1FC",
"c. c #BCD0F0",
"v. c #BFD3F2",
"b. c #B9D2F5",
"n. c #BCD2F5",
"m. c #BCD4F6",
"M. c #B4D8F4",
"N. c #B8D7FC",
"B. c #B9D8FB",
"V. c #C0D3F4",
"C. c #C3D6F4",
"Z. c #C5D9F6",
"A. c #D1E2F9",
"S. c #D3E3FA",
"D. c #F3F3F3",
"F. c #F6F6F6",
"G. c #F7FAFE",
"H. c #F9F9F9",
"J. c #FCFCFC",
"K. c #FFFFFF",
"L. c None",
/* pixels */
"L.L.L.L.L.L.u.;.5.;.a.L.L.L.L.L.",
"L.L.L.L.t.d.x.N.B.N.x.y.k.L.L.L.",
"L.L.L.%.h.y.;.{ _ ~ =.y.h.-.L.L.",
"L.L...f.8.=.} S.K.S._ &.=.i.O.L.",
"L.V.;.0.@.@._ m.G.b._ +...8.@.L.",
"L.| 0.+.+.{  .z y n _ _ _ ' 5.7.",
"L.N ;._ _ ' ' Z.K.n.E E E E %.N ",
"L.n _ E E Y Y C.J.l.Y K K K _ x ",
"L.y U I K K K v.H.j.F F C C U l ",
"L.1 c c F C F c.F.e.C C C v M l ",
"L.6.i i d d f r.D.q.d f a w 1 w.",
"L.L.& i , i a p.M.p.d w > w = L.",
"L.L.L.# w , > w 2 > > w - # L.L.",
"L.L.L.L.$ % , r u w > O * L.L.L.",
"L.L.L.L.L.j #   X X o h L.L.L.L.",
"L.L.L.L.L.L.L.L.L.L.L.L.L.L.L.L."
};
