/* XPM */
static const char *aclockwise1_xpm[] = {
/* columns rows colors chars-per-pixel */
"32 32 149 2",
"   c #428100",
".  c #438200",
"X  c #438201",
"o  c #438202",
"O  c #448202",
"+  c #448302",
"@  c #448203",
"#  c #458303",
"$  c #458304",
"%  c #468404",
"&  c #478405",
"*  c #468406",
"=  c #478406",
"-  c #488507",
";  c #488508",
":  c #498609",
">  c #4A860A",
",  c #4A860B",
"<  c #4A870B",
"1  c #4B870B",
"2  c #4B870C",
"3  c #4D880E",
"4  c #4F8911",
"5  c #4F8A10",
"6  c #4F8A12",
"7  c #508A13",
"8  c #538C16",
"9  c #538D16",
"0  c #538C17",
"q  c #548D18",
"w  c #558E19",
"e  c #568E1A",
"r  c #568E1B",
"t  c #568F1B",
"y  c #578F1C",
"u  c #5A9120",
"i  c #5B9121",
"p  c #5B9221",
"a  c #5C9223",
"s  c #5E9326",
"d  c #5E9425",
"f  c #5F9528",
"g  c #609528",
"h  c #609529",
"j  c #619529",
"k  c #62962A",
"l  c #62962B",
"z  c #62972B",
"x  c #659830",
"c  c #669931",
"v  c #679931",
"b  c #679A32",
"n  c #6B9C37",
"m  c #6D9E39",
"M  c #6E9F3C",
"N  c #6F9F3C",
"B  c #6F9F3D",
"V  c #709F3D",
"C  c #71A03F",
"Z  c #73A141",
"A  c #73A243",
"S  c #74A243",
"D  c #74A244",
"F  c #75A244",
"G  c #75A344",
"H  c #75A345",
"J  c #76A346",
"K  c #76A446",
"L  c #79A549",
"P  c #79A64A",
"I  c #7BA74D",
"U  c #7CA74E",
"Y  c #7CA74F",
"T  c #7CA84F",
"R  c #7DA950",
"E  c #7DA951",
"W  c #7EA951",
"Q  c #82AC57",
"!  c #83AC57",
"~  c #86AE5C",
"^  c #87AF5E",
"/  c #8AB162",
"(  c #8CB263",
")  c #8DB264",
"_  c #8DB365",
"`  c #8EB467",
"'  c #8FB467",
"]  c #91B56A",
"[  c #93B76D",
"{  c #95B871",
"}  c #97B973",
"|  c #97BA73",
" . c #98BA74",
".. c #99B67A",
"X. c #9BBC78",
"o. c #9CBD7A",
"O. c #9FBF7D",
"+. c #A6BF8C",
"@. c #A1C080",
"#. c #A1C081",
"$. c #A2C081",
"%. c #A2C182",
"&. c #A3C182",
"*. c #A4C284",
"=. c #A5C286",
"-. c #A5C386",
";. c #A6C488",
":. c #A7C488",
">. c #A8C58A",
",. c #A9C68B",
"<. c #ADC891",
"1. c #B1CA96",
"2. c #B5CE9C",
"3. c #B8CFA0",
"4. c #B9D0A1",
"5. c #BAD1A2",
"6. c #C0D5AB",
"7. c #C1D6AD",
"8. c #CADCB8",
"9. c #CEDEBE",
"0. c #CACDC7",
"q. c #D6D7D5",
"w. c #D5E2C6",
"e. c #D6E3CA",
"r. c #D8E5CB",
"t. c #E0EAD7",
"y. c #E2ECD9",
"u. c #E3E3E3",
"i. c #E8E8E8",
"p. c #E9E9E9",
"a. c #EAEAEA",
"s. c #EBEBEB",
"d. c #ECECEC",
"f. c #EDEDED",
"g. c #EEEEEE",
"h. c #EFEFEF",
"j. c #F0F0F0",
"k. c #F2F2F2",
"l. c #F4F4F4",
"z. c #F5F5F5",
"x. c #F6F6F6",
"c. c #F7F7F7",
"v. c #F8F8F8",
"b. c #F9F9F9",
"n. c #FAFAFA",
"m. c #FBFBFB",
"M. c #FCFCFC",
"N. c #FDFDFD",
"B. c None",
/* pixels */
"B.B.B.B.B.B.B.B.B.B.B.B.B.B.B.B.B.B.B.B.B.B.B.B.B.B.B.B.B.B.B.B.",
"B.B.B.B.B.B.B.B.B.B.B.B.B.B.B.B.B.B.B.B.B.B.B.B.B.B.B.B.B.B.B.B.",
"B.B.B.B.B.B.B.B.B.B.A C B.B.B.B.B.B.B.B.B.B.B.B.B.B.B.B.B.B.B.B.",
"B.B.B.B.B.B.B.B.B.T . w B.C E z 0 0 c Q I B.B.B.B.B.B.B.B.B.B.B.",
"B.B.B.B.B.B.B.B./ %   e 5                 0 | B.B.B.B.B.B.B.B.B.",
"B.B.B.B.B.B.B.` & .   .                       y <.B.B.B.B.B.B.B.",
"B.B.B.B.B.B.:.& . . . . 2 c U U c >             & _ B.B.B.B.B.B.",
"B.B.B.B.B.B.3.M 3 . . . t.B.B.B.B.e.] a           . ( B.B.B.B.B.",
"B.B.B.B.B.B.B.B.B.T y % r.B.B.B.B.B.B.B.A &         > :.B.B.B.B.",
"B.B.B.B.B.B.B.B.B.B.B.L 9.B.B.B.B.B.B.B.B. .$         z B.B.B.B.",
"B.B.B.B.B.B.B.B.B.B.B.B.B.B.B.B.B.B.B.B.B.B.~           _ B.B.B.",
"B.B.B.B.B.B.B.B.B.B.B.B.B.B.B.B.B.B.B.B.B.B.B.c         z B.B.B.",
"B.B.B.B.B.B.B.B.B.B.B.B.B.B.B.B.B.B.B.B.B.B.B.@.          O.B.B.",
"B.B.B.B.B.B.B.B.B.B.B.B.B.B.B.B.B.B.B.B.B.B.B.B.e         E B.B.",
"B.B.z     .   -.B.B.B.B.B.B.B.B.B.B.B.B.B.B.B.B.F         A B.B.",
"B.B.d     .   O.B.B.B.B.B.B.B.B.B.B.B.B.B.B.B.B.[         z B.B.",
"B.B.c   . .   ` B.B.B.B.B.B.B.B.B.B.B.B.B.B.B.B.@.        i B.B.",
"B.B.E   .     N B.B.B.B.B.B.B.B.B.B.B.B.B.B.B.B.1.y e y y A B.B.",
"B.B.c   . .   5 B.B.B.B.B.B.B.B.B.B.B.B.B.B.B.B.B.B.B.B.B.B.B.B.",
"B.B.2.- . .   . ' B.B.B.B.B.B.B.B.B.B.B.B.B.B.B.B.B.B.B.B.B.B.B.",
"B.B.B.C . .   . i B.B.B.B.B.B.B.B.B.B.B.B.B.B.B.B.B.B.B.B.B.B.B.",
"B.B.B.>.. .   .   m B.B.B.B.B.B.B.B.B.B.B.B.B.B.B.B.B.B.B.B.B.B.",
"B.B.B.B.K .   . . . L B.B.B.B.B.B.B.B.8.F 5.B.B.B.B.B.B.B.B.B.B.",
"B.B.B.B.B.0   . .   % K 6.B.B.B.B.B.B.y.$ > U o.B.B.B.B.B.B.B.B.",
"B.B.B.B.B.| >   . . . . 3 S =.B.B.B.B.7.$       M X.B.B.B.B.B.B.",
"B.B.B.B.B.B.o.5 . . . .     . 7 s z 5 $         2 =.B.B.B.B.B.B.",
"B.B.B.B.B.B.B.5.m       .                     > :.B.B.B.B.B.B.B.",
"B.B.B.B.B.B.B.B.B.@.c   .             z z   > @.B.B.B.B.B.B.B.B.",
"B.B.B.B.B.B.B.B.B.B.B.w.:.~ S S ! +.O.B.i & | B.B.B.B.B.B.B.B.B.",
"B.m.m.m.m.m.c.c.c.c.c.c.c.l.c.k.c.z.c.l.+...g.j.c.m.B.B.B.B.B.B.",
"N.m.m.c.k.g.k.g.d.d.d.s.s.s.s.i.s.s.s.i.0.q.u.g.c.m.N.B.B.B.B.B.",
"B.B.N.N.m.m.m.m.m.m.m.v.c.v.b.m.b.b.m.m.c.m.m.B.B.B.B.B.B.B.B.B."
};
