/* XPM */
static const char *aclockwise2_xpm[] = {
/* columns rows colors chars-per-pixel */
"16 16 60 1",
"  c #428100",
". c #428101",
"X c #438200",
"o c #458303",
"O c #458304",
"+ c #468305",
"@ c #478406",
"# c #478506",
"$ c #4A860A",
"% c #4C870D",
"& c #4C880D",
"* c #4F8910",
"= c #518B14",
"- c #528C15",
"; c #538C16",
": c #558E19",
"> c #568E1B",
", c #58901E",
"< c #59901E",
"1 c #59901F",
"2 c #5A9120",
"3 c #5B9222",
"4 c #5C9223",
"5 c #5D9324",
"6 c #5E9325",
"7 c #5E9426",
"8 c #609528",
"9 c #63972C",
"0 c #64972D",
"q c #689A33",
"w c #6C9D38",
"e c #6C9D39",
"r c #6D9D39",
"t c #6F9F3D",
"y c #72A141",
"u c #73A242",
"i c #75A345",
"p c #76A345",
"a c #7BA64C",
"s c #7BA74D",
"d c #7CA551",
"f c #B4CB9C",
"g c #C3D5B0",
"h c #C6D7B4",
"j c #D2DDC6",
"k c #DEDFDC",
"l c #E5EBDE",
"z c #EBEFE6",
"x c #ECECEC",
"c c #F0F0F0",
"v c #F1F1F1",
"b c #F2F2F2",
"n c #F3F3F3",
"m c #F5F5F5",
"M c #F6F6F6",
"N c #F7F7F7",
"B c #F8F8F8",
"V c #F9F9F9",
"C c #FBFBFB",
"Z c None",
/* pixels */
"ZZZZZZZZZZZZZZZZ",
"ZZZZZ5ZXXXZZZZZZ",
"ZZZZ=#OX.XOeZZZZ",
"ZZZsXXXZZ1..;ZZZ",
"ZZZZZXXZZZeXX2ZZ",
"ZZZZZZZZZZZrX.ZZ",
"ZZZZZZZZZZZZOX5Z",
"Z=XyZZZZZZZZ0X>Z",
"Z2X7ZZZZZZZZs%1Z",
"Z5XOZZZZZZZZZZZZ",
"ZZXX8ZZZZZZZZZZZ",
"ZZ5XXtZZZZ0ZZZZZ",
"ZZZ>XX*q7iXXyZZZ",
"ZZZZi%XXX$$1ZZZZ",
"ZCVBMzhfgzdjZZZZ",
"ZBMnnbcccckxVZZZ"
};
