/* XPM */
static const char *bmpin0_xpm[] = {
/* columns rows colors chars-per-pixel */
"32 32 231 2",
"   c #3D561C",
".  c #435E1B",
"X  c #49661A",
"o  c #547518",
"O  c #557518",
"+  c #557618",
"@  c #567618",
"#  c #577718",
"$  c #567719",
"%  c #618516",
"&  c #668B15",
"*  c #658C15",
"=  c #719A14",
"-  c #739D14",
";  c #769E14",
":  c #709F32",
">  c #709F33",
",  c #7DAF23",
"<  c #7BAB26",
"1  c #7AAA27",
"2  c #7BAC26",
"3  c #7CAD24",
"4  c #75A62B",
"5  c #77A72A",
"6  c #76A62B",
"7  c #76A72B",
"8  c #77A72B",
"9  c #74A32F",
"0  c #75A52D",
"q  c #75A62C",
"w  c #76A62C",
"e  c #76A72C",
"r  c #74A42E",
"t  c #78A829",
"y  c #78A929",
"u  c #7AAA28",
"i  c #7FB121",
"p  c #7FB220",
"a  c #7FB022",
"s  c #72A131",
"d  c #71A230",
"f  c #73A330",
"g  c #70A032",
"h  c #71A032",
"j  c #83B211",
"k  c #84B312",
"l  c #86B412",
"z  c #86B512",
"x  c #88B712",
"c  c #89B712",
"v  c #87BB16",
"b  c #87BB17",
"n  c #88B910",
"m  c #8AB912",
"M  c #8BBE13",
"N  c #8ABF13",
"B  c #8BBF13",
"V  c #8EBF10",
"C  c #89BD14",
"Z  c #88BC16",
"A  c #89BC16",
"S  c #83B71B",
"D  c #84B61B",
"F  c #81B31E",
"G  c #81B31F",
"H  c #82B41C",
"J  c #82B51D",
"K  c #85B918",
"L  c #84B819",
"P  c #85BA18",
"I  c #85B81A",
"U  c #80B220",
"Y  c #8FC10F",
"T  c #8DC20F",
"R  c #8FC20F",
"E  c #8EC30F",
"W  c #8FC40E",
"Q  c #90C20F",
"!  c #90C30F",
"~  c #92C40F",
"^  c #93C70F",
"/  c #94CA0D",
"(  c #95CB0D",
")  c #95C90E",
"_  c #95C90F",
"`  c #96CA0E",
"'  c #95CC0D",
"]  c #96CD0D",
"[  c #97CD0D",
"{  c #97CC0F",
"}  c #98CE0D",
"|  c #98CF0D",
" . c #99CF0D",
".. c #9ACF0D",
"X. c #98CC0F",
"o. c #98CE0E",
"O. c #99CF0E",
"+. c #9ACF0E",
"@. c #9ACF0F",
"#. c #99D00D",
"$. c #9AD00D",
"%. c #9AD10D",
"&. c #9BD10D",
"*. c #9BD20D",
"=. c #99D00E",
"-. c #9AD00E",
";. c #9AD10E",
":. c #9BD10E",
">. c #9BD20E",
",. c #9CD20D",
"<. c #9DD20D",
"1. c #9CD30D",
"2. c #9CD20E",
"3. c #9DD20E",
"4. c #9CD30E",
"5. c #9DD30E",
"6. c #9DD20F",
"7. c #9ED40D",
"8. c #9DD40E",
"9. c #9ED40E",
"0. c #9ED50E",
"q. c #9FD50E",
"w. c #9FD60E",
"e. c #8AC013",
"r. c #8BC013",
"t. c #8CC111",
"y. c #8EC010",
"u. c #8FC010",
"i. c #8FC110",
"p. c #8DC210",
"a. c #8DC211",
"s. c #8CC112",
"d. c #91C111",
"f. c #93C510",
"g. c #94C610",
"h. c #94C517",
"j. c #95CA17",
"k. c #95C819",
"l. c #97C919",
"z. c #99CB19",
"x. c #9ACE19",
"c. c #9ACE1F",
"v. c #9BD014",
"b. c #9CD017",
"n. c #9FD219",
"m. c #A0D50E",
"M. c #A1D50F",
"N. c #A0D60E",
"B. c #A1D60E",
"V. c #A1D70E",
"C. c #A1D70F",
"Z. c #A2D80E",
"A. c #A3D80E",
"S. c #A2D90E",
"D. c #A3D90E",
"F. c #A2D80F",
"G. c #A3D80F",
"H. c #A3D90F",
"J. c #A4D90E",
"K. c #A4D90F",
"L. c #A4DA0E",
"P. c #A5DA0E",
"I. c #A5DB0E",
"U. c #A4DA0F",
"Y. c #A5DB0F",
"T. c #A6DB0E",
"R. c #A6DB0F",
"E. c #A5DC0F",
"W. c #A6DC0E",
"Q. c #A7DC0E",
"!. c #A7DD0E",
"~. c #A6DC0F",
"^. c #A7DC0F",
"/. c #A7DD0F",
"(. c #A9DE0E",
"). c #A9DE0F",
"_. c #A9DF0F",
"`. c #AADF0F",
"'. c #A9E00F",
"]. c #AAE00F",
"[. c #ABE10F",
"{. c #ACE20F",
"}. c #ADE30F",
"|. c #AEE30F",
" X c #ABE010",
".X c #ABE110",
"XX c #ADE110",
"oX c #AFE310",
"OX c #ACE016",
"+X c #9ED128",
"@X c #A2D620",
"#X c #A6D927",
"$X c #A2D42E",
"%X c #ACDE2A",
"&X c #ACDC2E",
"*X c #A2D430",
"=X c #A3D431",
"-X c #A4D534",
";X c #A5D537",
":X c #A5D637",
">X c #A6D639",
",X c #A7D73B",
"<X c #A7D73C",
"1X c #B0DF34",
"2X c #B1E321",
"3X c #B6E62D",
"4X c #B1E133",
"5X c #B4E23C",
"6X c #B5E43C",
"7X c #BBEA3A",
"8X c #B7E542",
"9X c #BAE746",
"0X c #BBE849",
"qX c #BEE94E",
"wX c #BFEA4F",
"eX c #C0EC46",
"rX c #C1EB53",
"tX c #C4EE50",
"yX c #C2ED56",
"uX c #C3ED58",
"iX c #C7F057",
"pX c #C8EF62",
"aX c #CCF26B",
"sX c #CFF473",
"dX c #D2F57C",
"fX c #D5F783",
"gX c #D7F889",
"hX c #D8F98E",
"jX c #D9F990",
"kX c #F7F9F5",
"lX c None",
/* pixels */
"lXlXlXlXlXlXlXlXlXlXlXlXlXlXlXlX~ lXlXlXlXlXlXlXlXlXlXlXlXlXlXlX",
"lXlXlXlXlXlXlXlXlXlXlXlXlXlXlXlXW W lXlXlXlXlXlXlXlXlXlXlXlXlXlX",
"lXlXlXlXlXlXlXlXlXlXlXlXlXlXlXlXp.kXE lXlXlXlXlXlXlXlXlXlXlXlXlX",
"lXlXlXlXlXlXlXlXlXlXlXlXlXlXlXlXp.iXhXp.lXlXlXlXlXlXlXlXlXlXlXlX",
"lXlXlXlXlXlXlXlXlXlXlXlXlXlXlXlXe.tXoXgXp.lXlXlXlXlXlXlXlXlXlXlX",
"lXlXlXlXlXlXlXlXlXlXlXlXlXlXlXlXe.eX}.}.fXB lXlXlXlXlXlXlXlXlXlX",
"lXlXlXlXlXlXlXlXlXlXlXlXlXlXlXlXB 7X}.XX}.dXB lXlXlXlXlXlXlXlXlX",
"lXlXlXlXlXlXlXlXlXlXlXlXlXlXlXlXC 3X[. X.X XsXC lXlXlXlXlXlXlXlX",
"e.e.e.e.e.e.e.e.e.e.e.e.e.e.e.e.A 2X[._.[._.~.aXC lXlXlXlXlXlXlX",
"b kXjXjXjXhXjXjXjXjXjXjXjXhXjXjXkXOX_._._._._. XpXb lXlXlXlXlXlX",
"K yX~.~.~.~.~.~.T._._.~.~.~.~.~.~.Q.~.~.~.~././.^.uXL lXlXlXlXlX",
"K rXD.T.T.T.T.T.T.~.~.~.~.~.~.~.T.T.T.~.~.T.T.~.^.T.qXK lXlXlXlX",
"S qXv.T.T.  D.T.m   d.T.T.m $ D.T.D.D.T.D.E.D.D.D.D.T.9XD lXlXlX",
"H 0X9.D.D.  D.S.c . # M.D.z $ D.M.D.D.F.D.D.D.D.D.D.D.D.6XJ lXlX",
"H 8X@.M.M.  S.V.z # # ; D.z # M.w.D.M.M.D.M.D.D.D.M.D.0.D.4XU lX",
"a 5X@.9.M.  w.w.z # f.X f.z # 0.0.M.0.0.0.0.0.0.w.0.M.0.0.M.%Xa ",
"U 1X) 9.9.  9.9.k # 0.- # k o 9.0.0.9.9.0.9.9.9.9.7.0.9.@.n., lX",
", &X~ 9.9.  7.9.k o 9.*.o % # 9.9.*.*.9.9.v.9.*.9.,.9.( x.3 lXlX",
"3 #XQ (  .  9.*.k o *...E   # ..*.*.*...*.*.9...*.*.( z.3 lXlXlX",
"< @XQ V ) o ....z * ......= * ..[ *.....[ ........~ l.< lXlXlXlX",
"u n.Q E E d.E V E E V d.d.E p.Q p.d.~ ..[  ...[ Q l.< lXlXlXlXlX",
"8 v.d.V d.p.B Q V d.V E E d.V d.d.p.V [ [ [ Q E h.y lXlXlXlXlXlX",
"y <X,X<X<X<X<X<X<X<X<X<X,X<X<X,X<X( B ( [ E V $X6 lXlXlXlXlXlXlX",
"0 6 6 0 6 0 6 6 6 6 0 6 0 8 0 0 6 :XV ( E V =X6 lXlXlXlXlXlXlXlX",
"lXlXlXlXlXlXlXlXlXlXlXlXlXlXlXlX0 $XV V V :X0 lXlXlXlXlXlXlXlXlX",
"lXlXlXlXlXlXlXlXlXlXlXlXlXlXlXlX9 +XV V :X9 lXlXlXlXlXlXlXlXlXlX",
"lXlXlXlXlXlXlXlXlXlXlXlXlXlXlXlXf c.B :X9 lXlXlXlXlXlXlXlXlXlXlX",
"lXlXlXlXlXlXlXlXlXlXlXlXlXlXlXlXf j.,X9 lXlXlXlXlXlXlXlXlXlXlXlX",
"lXlXlXlXlXlXlXlXlXlXlXlXlXlXlXlX> ,X> lXlXlXlXlXlXlXlXlXlXlXlXlX",
"lXlXlXlXlXlXlXlXlXlXlXlXlXlXlXlX> > lXlXlXlXlXlXlXlXlXlXlXlXlXlX",
"lXlXlXlXlXlXlXlXlXlXlXlXlXlXlXlX> lXlXlXlXlXlXlXlXlXlXlXlXlXlXlX",
"lXlXlXlXlXlXlXlXlXlXlXlXlXlXlXlXlXlXlXlXlXlXlXlXlXlXlXlXlXlXlXlX"
};
