/* XPM */
static const char *bmpout1_xpm[] = {
/* columns rows colors chars-per-pixel */
"16 16 64 1",
"  c #3D561C",
". c #6F9E34",
"X c #719F33",
"o c #79AA27",
"O c #7CAE24",
"+ c #7DAE24",
"@ c #76A72A",
"# c #77A72A",
"$ c #76A72B",
"% c #77A72B",
"& c #74A42D",
"* c #75A42E",
"= c #77A82B",
"- c #7AAB28",
"; c #7FB120",
": c #7FB121",
"> c #72A130",
", c #72A231",
"< c #71A032",
"1 c #87BB16",
"2 c #8EBE10",
"3 c #8ABD14",
"4 c #8ABE14",
"5 c #85B71A",
"6 c #82B41D",
"7 c #8EC20F",
"8 c #8FC40E",
"9 c #91C20F",
"0 c #94C70F",
"q c #95C70F",
"w c #98CC0F",
"e c #9ACE0E",
"r c #9BCE0F",
"t c #9FD40E",
"y c #8EC210",
"u c #8CC012",
"i c #9CCF1E",
"p c #9ED21E",
"a c #A1D70E",
"s c #A2D70E",
"d c #A2D70F",
"f c #A5D90E",
"g c #A5DA0E",
"h c #A4DA0F",
"j c #A5DA0F",
"k c #A8DD0F",
"l c #ABDF10",
"z c #A9DA2A",
"x c #ABDC2A",
"c c #A7D73C",
"v c #AFE030",
"b c #B6E43D",
"n c #87AE52",
"m c #BCE848",
"M c #BDE84C",
"N c #BEEA4C",
"B c #C0EB4C",
"V c #C8EF61",
"C c #D1F478",
"Z c #A6B398",
"A c #D7F889",
"S c #D9F990",
"D c #F7F9F5",
"F c None",
/* pixels */
"FFFFFFFFF   Fn n",
"FFFFFFF8Fn nF F ",
"FFFFFFyyFn nF F ",
"FFFFFuD2Fn nFn n",
"FFFF4AS4FFFFFFFF",
"FFF1ClB08889888F",
"FF5VkkmDSSSSSD5F",
"F6mhhhhhhhhhhM6F",
":vwssssdsssssb:F",
"F+cwtw00qqqq0x+F",
"FF-c92cccccccz-F",
"FFF#c2p$=#=#$$#F",
"FFFF$ci$FFFFFFFF",
"FFFFF<c<FFFFFFFF",
"FFFFFFX<FFFFFFFF",
"FFFFFFZ.FFFFFFFF"
};
