/* XPM */
static const char *clockwise1_xpm[] = {
/* columns rows colors chars-per-pixel */
"32 32 145 2",
"   c #428100",
".  c #438200",
"X  c #438201",
"o  c #438202",
"O  c #448201",
"+  c #448202",
"@  c #458302",
"#  c #448203",
"$  c #458303",
"%  c #458304",
"&  c #468304",
"*  c #468405",
"=  c #478506",
"-  c #488507",
";  c #488508",
":  c #4A8609",
">  c #4A860A",
",  c #4A860B",
"<  c #4B870B",
"1  c #4B870C",
"2  c #4C880E",
"3  c #4E8910",
"4  c #4F8911",
"5  c #4F8A10",
"6  c #4F8A12",
"7  c #508A13",
"8  c #538C16",
"9  c #538D16",
"0  c #538C17",
"q  c #548D18",
"w  c #558E19",
"e  c #568E1A",
"r  c #568E1B",
"t  c #568F1B",
"y  c #578F1C",
"u  c #5A9120",
"i  c #5B9221",
"p  c #5C9323",
"a  c #5D9325",
"s  c #5E9326",
"d  c #5F9528",
"f  c #609528",
"g  c #619529",
"h  c #619629",
"j  c #62962A",
"k  c #62962B",
"l  c #62972B",
"z  c #659830",
"x  c #669931",
"c  c #679931",
"v  c #679932",
"b  c #6B9C37",
"n  c #6D9E39",
"m  c #6E9F3C",
"M  c #6F9F3C",
"N  c #6F9F3D",
"B  c #709F3D",
"V  c #71A03F",
"C  c #73A141",
"Z  c #74A243",
"A  c #74A244",
"S  c #75A244",
"D  c #75A344",
"F  c #75A345",
"G  c #76A346",
"H  c #76A446",
"J  c #79A549",
"K  c #79A64A",
"L  c #7BA74D",
"P  c #7CA74E",
"I  c #7CA74F",
"U  c #7CA84F",
"Y  c #7DA950",
"T  c #7DA951",
"R  c #7EA951",
"E  c #83AC57",
"W  c #86AE5C",
"Q  c #87AF5E",
"!  c #8AB162",
"~  c #8CB263",
"^  c #8DB264",
"/  c #8DB365",
"(  c #8EB467",
")  c #8FB467",
"_  c #91B56A",
"`  c #93B76D",
"'  c #95B871",
"]  c #97B973",
"[  c #97BA73",
"{  c #98BA74",
"}  c #99B67A",
"|  c #9BBC78",
" . c #9CBD7A",
".. c #9FBF7D",
"X. c #A6BF8C",
"o. c #A1C080",
"O. c #A1C081",
"+. c #A2C182",
"@. c #A3C182",
"#. c #A4C284",
"$. c #A5C286",
"%. c #A5C386",
"&. c #A6C488",
"*. c #A7C488",
"=. c #A8C58A",
"-. c #A9C68B",
";. c #ADC891",
":. c #B1CB96",
">. c #B5CE9C",
",. c #B8CFA0",
"<. c #B9D0A1",
"1. c #BAD1A2",
"2. c #C0D5AB",
"3. c #C1D6AD",
"4. c #CADCB8",
"5. c #CEDEBE",
"6. c #CACDC7",
"7. c #D6D7D5",
"8. c #D5E2C6",
"9. c #D6E3CA",
"0. c #D8E5CB",
"q. c #E0EAD7",
"w. c #E2ECD9",
"e. c #E3E3E3",
"r. c #E8E8E8",
"t. c #E9E9E9",
"y. c #EAEAEA",
"u. c #EBEBEB",
"i. c #ECECEC",
"p. c #EDEDED",
"a. c #EEEEEE",
"s. c #EFEFEF",
"d. c #F0F0F0",
"f. c #F2F2F2",
"g. c #F4F4F4",
"h. c #F5F5F5",
"j. c #F6F6F6",
"k. c #F7F7F7",
"l. c #F8F8F8",
"z. c #F9F9F9",
"x. c #FAFAFA",
"c. c #FBFBFB",
"v. c #FCFCFC",
"b. c #FDFDFD",
"n. c None",
/* pixels */
"n.n.n.n.n.n.n.n.n.n.n.n.n.n.n.n.n.n.n.n.n.n.n.n.n.n.n.n.n.n.n.n.",
"n.n.n.n.n.n.n.n.n.n.n.n.n.n.n.n.n.n.n.n.n.n.n.n.n.n.n.n.n.n.n.n.",
"n.n.n.n.n.n.n.n.n.n.n.n.n.n.n.n.n.n.n.n.N A n.n.n.n.n.n.n.n.n.n.",
"n.n.n.n.n.n.n.n.n.n.n.L E z r 8 g T N n.w # T n.n.n.n.n.n.n.n.n.",
"n.n.n.n.n.n.n.n.n.[ 9 . .   . . . .   3 w   # ! n.n.n.n.n.n.n.n.",
"n.n.n.n.n.n.n.;.r . . . .     .   . . .     . % ( n.n.n.n.n.n.n.",
"n.n.n.n.n.n./ = . . . . .   > v L L x ,       . = &.n.n.n.n.n.n.",
"n.n.n.n.n.~ # . . . . . p _ 9.n.n.n.n.q.# .   , N ,.n.n.n.n.n.n.",
"n.n.n.n.-.>   . . . % C n.n.n.n.n.n.n.0.% r T n.n.n.n.n.n.n.n.n.",
"n.n.n.n.d .   . . % { n.n.n.n.n.n.n.n.5.J n.n.n.n.n.n.n.n.n.n.n.",
"n.n.n./ . .   . # W n.n.n.n.n.n.n.n.n.n.n.n.n.n.n.n.n.n.n.n.n.n.",
"n.n.n.f . .   . x n.n.n.n.n.n.n.n.n.n.n.n.n.n.n.n.n.n.n.n.n.n.n.",
"n.n.... . .   . ..n.n.n.n.n.n.n.n.n.n.n.n.n.n.n.n.n.n.n.n.n.n.n.",
"n.n.T   . .   r n.n.n.n.n.n.n.n.n.n.n.n.n.n.n.n.n.n.n.n.n.n.n.n.",
"n.n.D . . .   D n.n.n.n.n.n.n.n.n.n.n.n.n.n.n.n.%..     . g n.n.",
"n.n.g . . .   ` n.n.n.n.n.n.n.n.n.n.n.n.n.n.n.n....   . . a n.n.",
"n.n.p . . . . +.n.n.n.n.n.n.n.n.n.n.n.n.n.n.n.n./ .       x n.n.",
"n.n.C r r r r :.n.n.n.n.n.n.n.n.n.n.n.n.n.n.n.n.N .       T n.n.",
"n.n.n.n.n.n.n.n.n.n.n.n.n.n.n.n.n.n.n.n.n.n.n.n.4       . z n.n.",
"n.n.n.n.n.n.n.n.n.n.n.n.n.n.n.n.n.n.n.n.n.n.n./ .       ; >.n.n.",
"n.n.n.n.n.n.n.n.n.n.n.n.n.n.n.n.n.n.n.n.n.n.n.p         N n.n.n.",
"n.n.n.n.n.n.n.n.n.n.n.n.n.n.n.n.n.n.n.n.n.n.n           -.n.n.n.",
"n.n.n.n.n.n.n.n.n.n.1.D 4.n.n.n.n.n.n.n.n.J .       . D n.n.n.n.",
"n.n.n.n.n.n.n.n. .I , % w.n.n.n.n.n.n.2.H . . .     9 n.n.n.n.n.",
"n.n.n.n.n.n.| N @ . . @ 3.n.n.n.n.$.C ,       .   > { n.n.n.n.n.",
"n.n.n.n.n.n.%., . . . . # 8 k a 4 % .         . 4  .n.n.n.n.n.n.",
"n.n.n.n.n.n.n.*.> . . . . . .   . .         . b 1.n.n.n.n.n.n.n.",
"n.n.n.n.n.n.n.n.+.; . g g . . .         % x +.n.n.n.n.n.n.n.n.n.",
"n.n.n.n.n.n.n.n.n.[ = u n.o.X.E A A W &.8.n.n.n.n.n.n.n.n.n.n.n.",
"n.n.n.n.n.n.v.j.d.d.} X.f.h.f.h.g.h.h.j.j.j.j.j.j.l.z.z.c.c.v.n.",
"n.n.n.n.n.v.z.j.s.e.7.6.y.i.i.y.y.y.y.y.i.i.s.s.d.d.f.j.j.z.c.v.",
"n.n.n.n.n.n.n.n.n.b.z.l.c.z.c.z.z.z.z.l.z.z.z.z.z.z.z.c.v.v.n.n."
};
