/* XPM */
static const char *folder__ico__[] = {
/* columns rows colors chars-per-pixel */
"64 64 79 1",
"  c #557ABB",
". c #587DBE",
"X c #5A7FC0",
"o c #5D82C2",
"O c #6086C6",
"+ c #6187C8",
"@ c #658ACB",
"# c #698ECD",
"$ c #7395CE",
"% c #698FD0",
"& c #6C92D2",
"* c #6E95DB",
"= c #7196D1",
"- c #7499D3",
"; c #799DD5",
": c #7097DB",
"> c #7299DB",
", c #799EDB",
"< c #77A0DE",
"1 c #7AA1DD",
"2 c #749CE1",
"3 c #77A0E4",
"4 c #7CA4E3",
"5 c #7FA8E6",
"6 c #7CA5EA",
"7 c #7CA8EC",
"8 c #9EABC0",
"9 c #82A0D4",
"0 c #8BA6D6",
"q c #80A5DD",
"w c #89A8D8",
"e c #91ACD9",
"r c #9CB3DC",
"t c #A5BDDC",
"y c #80A7E5",
"u c #81A9E5",
"i c #82ACEC",
"p c #88ADEA",
"a c #8AB4E6",
"s c #86B0ED",
"d c #8AB2ED",
"f c #92BEEC",
"g c #9ABEE9",
"h c #85AEF0",
"j c #86B0F0",
"k c #8BB4F1",
"l c #8EB8F4",
"z c #91BCF6",
"x c #93BEF8",
"c c #A5BDE2",
"v c #A9BEE1",
"b c #96C2ED",
"n c #98C4ED",
"m c #9CC9EE",
"M c #95C1F0",
"N c #99C4F0",
"B c #ACC0E2",
"V c #ACCEEF",
"C c #B1C4E4",
"Z c #A3C9F5",
"A c #AFCFF8",
"S c #AED4FA",
"D c #B3D5F4",
"F c #BCD8F2",
"G c #B0D6FA",
"H c #B6DCFC",
"J c #B9DDFC",
"K c #BEE0FD",
"L c #C4DCF9",
"P c #C3E2FD",
"I c #CBE5FD",
"U c #C3E8FE",
"Y c #CFE8FD",
"T c #D4E6FB",
"R c #D1E9FC",
"E c #E6F1FD",
"W c #EBF6FE",
"Q c #FBFDFF",
"! c None",
/* pixels */
"!!!!!!!!!!!!!!!!!!!!!!!!!!!!!!!!!!!!!!!!!!!!!!!!!!!!!!!!!!!!!!!!",
"!!!!!!!!!!!!!!!!!!!!!!!!!!!!!!!!!!!!!!!!!!!!!!!!!!!!!!!!!!!!!!!!",
"!!!!!!!!!!!!!!!!!!!!!!!!!!!!!!!!!!!!!!!!!!!!!!!!!!!!!!!!!!!!!!!!",
"!!!!!!!!!!!!!!!!!!!!!!!!!!!!!!!!!!!!!!!!!!!!!!!!!!!!!!!!!!!!!!!!",
"!!!!!!!!!!!!!!!!!!!!!!!!!!!!!!!!!!!!!!!!!!!!!!!!!!!!!!!!!!!!!!!!",
"!!!!!!!!!!!!!!!!!!!!!!!!!!!!!!!!!!!!!!!!!!!!!!!!!!!!!!!!!!!!!!!!",
"!!!!!!!!!!!!!!!!!!!!!!!!!!!!!!!!!!!!!!!!!!!!!!!!!!!!!!!!!!!!!!!!",
"!!!!!!!!!!!!!!!!!!!!!!!!!!!!!!!!!!!!!!!!!!!!!!!!!!!!!!!!!!!!!!!!",
"!!!!!!!!!!!!!!!!!!!!!!!!!!!!!!!!!!!!!!!!!!!!!!!!!!!!!!!!!!!!!!!!",
"!v-www00wwwwwwww000wqe!!!!!!!!!!!!!!!!!!!!!!!!!!!!!!!!!!!!!!!!!!",
"!=TQTGGASSSSSSSGGGGDJw!!!!!!!!!!!!!!!!!!!!!!!!!!!!!!!!!!!!!!!!!!",
"!;DLlkkdkkdkkdkkkdkkkZ-!!!!!!!!!!!!!!!!!!!!!!!!!!!!!!!!!!!!!!!!!",
"!;Nkdkkkkkkkkkdkkkkdkkge!!!!!!!!!!!!!!!!!!!!!!!!!!!!!!!!!!!!!!!!",
"!;mkkkkkdkkdkkkkkkkkkkf1v!!!!!!!!!!!!!!!!!!!!!!!!!!!!!!!!!!!!!!!",
"!;NkkkkkkkkkkkkkkkkkkkkJBwwwww00wwwwwwwwwwwwwwwwwwww!!!!!!!!!!!!",
"!;NkkdkkkkkkkkkdkkkdkkkNEWUPUUUUUUUUUUUUUUUUUUUUUPUg0!!!!!!!!!!!",
"!;NkkkkkkkkkkdkkdlkkkkkkdkkkkkdkkkkkkkkkkkkdkkdlkkzJ$!!!!!!!!!!!",
"!;Mkkkkdkdkkklkkdkkkkkkkldlkkklkkkkkkkkkkkklkkkkkkkf$!!!!!!!!!!!",
"!;Mikkkkklkkkldkldlkkkkkkkkkklkdkdfdkklkkkkkldldkkdk$!!!!!!!!!!!",
"!;Mupkdzkkkkkklkklkkkkfddlkkldklkkkkkkkkkkdlklkkkkkk$!!!!!!!!!!!",
"!-b5upkkkkllkkkdlkkkkkklkkkkkdkkkkklkkkklklkklkkkkld$!!!!!!!!!!!",
"!;b4y5udkdkddlkddlkkkkkklkklllklkzlkkklkkklkklkklkkl$!!!!!!!!!!!",
"!;b41455udipsdddppijppdddddkkkkddddlkkkdkkkkkdlkkkkk$!!!!!!!!!!!",
"!-z,1444155555uuypyppuppupiiuppippppppppppppupppppdp$!!!!!!!!!!!",
"!;f:<<<114444y5y5yy445455yyyuuuupyuui5uuupyuppippppp$!!!!!!!!!!!",
"!-b:>,<14114444y54y455454515445yyy5iupaps7pppus7puppyqqyqqqyq19!",
"!-f><<<<41414kLWRRRRYYIIIIYIUIPPPLLPKKKHHKHHKHHHHHHHHHJHJJHHHSu!",
"!-b:>-<<<<14ySQTllklzllllzlllzzzxxzzzMlMxMzxMMzMMMxxxxxxxxxxzxu!",
"!-f::>>-<<<1nZlkklkllllllllllzzzzzzzzxxxzxxxzxxxxxxxxxxxxxxxxz-!",
"!-b&=->>>-<<mfkkkklllkllllllllzMlzzzzMzzxxxzxxxxMxxxxNxxxxxxxde!",
"!-f&&:=:>><bfjkkkkkkkklllllllllllzzzzzzzzzxzxzxxxxxxxxxxxxxxx;!!",
"!=f&&&=:>->mdjjkkkkkklkkllllllllllllzzzzzzzzxzzzxxxxxxxxxxxNk;!!",
"!=f%%&&===pxhjhhkjljklljkkkkllllllllzzlzzzzzzzzzxzxxxzxMzMMM5!!!",
"!=f#%%%&%&ZdhhjhjjhljjjlkkkkkkkkllllllllzllzlzzzzzzzzxxzzxMl=!!!",
"!=f@#%##&1xihhhhjjjjjkljkkkkkkkkjllklllllzlllzlzzzzzzzzzxMz5B!!!",
"!=f@@@###nhiihhhhjjjjjjjhkkjkkkkljkljllllllllzzllzzzzzzzzzz:!!!!",
"!=b@+@@@=n55hihhhhhhhhjjjjkkkkkjkllkllkkllllllzllllzzzzzzzie!!!!",
"!=fo+++@fd2iii6hhhhhhhhjjhjhhkhk7l7kjljlklklllkzlzlllzzzzz;!!!!!",
"!=foOOO@Ny5hiiiihhh7hhhhhhhhhjhhlkkkkkljlkllkllklllllllkzk9!!!!!",
"!=boXOOak277i6ih77hhh7hhhhhjhhhhl7k7kjkkjljkkklllllllljlz;!!!!!!",
"!$fXXooni36h6ii6iii7iiiiihihhhihjjkjjkkkkkjlkkkkkkkllkklk=!!!!!!",
"!&bXXX<f2666i66ii7iiii7iiihiihhh7kl7hjhjjkjjjkkkklkkliklqC!!!!!!",
"!=b..Xf436666i6i76i77iiiiiiihhihhj7jhhhhjjjkkkjklkjkkikk=!!!!!!!",
"!=f  &f,666666666i6ii6i77i7i7ihih7hjhhhhjjjjjjkkkjkkiikyr!!!!!!!",
"!$f  du266666666676i66i7ii7iii7ih7iihhhhjhhhjjjjjkkj5ij;!!!!!!!!",
"!$f @k2366366666y6667ii66ii677ii7hiih7iihhhhjjjjjjk76ki9!!!!!!!!",
"!$f si>66366666666676666i7i7i7i7hiii7hiihhhhhhhjjjj6ik;!!!!!!!!!",
"!&Vol22366336666666666676i26i657777ih7ii7h7hhhh7hj56ip-!!!!!!!!!",
"!=Fdp*263726627766666676676675777757i7777iiiih7hhh56i1!!!!!!!!!!",
"!=DE>***222*2:22222222232333333663665656575757577325i$!!!!!!!!!!",
"!-zd*************************2**:*2***2*2:2*222*>22h2t!!!!!!!!!!",
"!:Mp2*******************2*****>**>>**2*2*2>*2*22227i=!!!!!!!!!!!",
"!&f7777777777777777777777777777777777777777777777776&!!!!!!!!!!!",
"ty@&**::*>*>**:*>::>::>::*:>>>,:>>>*>>>>>>*2>>>,,>>#8!!!!!!!!!!!",
"!!!!!!!!!!!!!!!!!!!!!!!!!!!!!!!!!!!!!!!!!!!!!!!!!!!!!!!!!!!!!!!!",
"!!!!!!!!!!!!!!!!!!!!!!!!!!!!!!!!!!!!!!!!!!!!!!!!!!!!!!!!!!!!!!!!",
"!!!!!!!!!!!!!!!!!!!!!!!!!!!!!!!!!!!!!!!!!!!!!!!!!!!!!!!!!!!!!!!!",
"!!!!!!!!!!!!!!!!!!!!!!!!!!!!!!!!!!!!!!!!!!!!!!!!!!!!!!!!!!!!!!!!",
"!!!!!!!!!!!!!!!!!!!!!!!!!!!!!!!!!!!!!!!!!!!!!!!!!!!!!!!!!!!!!!!!",
"!!!!!!!!!!!!!!!!!!!!!!!!!!!!!!!!!!!!!!!!!!!!!!!!!!!!!!!!!!!!!!!!",
"!!!!!!!!!!!!!!!!!!!!!!!!!!!!!!!!!!!!!!!!!!!!!!!!!!!!!!!!!!!!!!!!",
"!!!!!!!!!!!!!!!!!!!!!!!!!!!!!!!!!!!!!!!!!!!!!!!!!!!!!!!!!!!!!!!!",
"!!!!!!!!!!!!!!!!!!!!!!!!!!!!!!!!!!!!!!!!!!!!!!!!!!!!!!!!!!!!!!!!",
"!!!!!!!!!!!!!!!!!!!!!!!!!!!!!!!!!!!!!!!!!!!!!!!!!!!!!!!!!!!!!!!!"
};
