/* XPM */
static const char *folder__ico__[] = {
/* columns rows colors chars-per-pixel */
"32 32 55 1",
"  c #5D82C2",
". c #648ACA",
"X c #688ECE",
"o c #6B91CE",
"O c #7495CE",
"+ c #6C92D2",
"@ c #6E96DB",
"# c #7196D0",
"$ c #749AD3",
"% c #799CD5",
"& c #7097DD",
"* c #739ADC",
"= c #7AA1D6",
"- c #7AA2DC",
"; c #7FA8DE",
": c #759EE3",
"> c #76A0E4",
", c #7BA4E4",
"< c #7CA5E9",
"1 c #7EA8EB",
"2 c #879EC6",
"3 c #83A2D5",
"4 c #81A5DC",
"5 c #86A8DD",
"6 c #89A8D8",
"7 c #82A6E0",
"8 c #82AAE5",
"9 c #8CADE1",
"0 c #83ACEC",
"q c #86B0E5",
"w c #89B2E5",
"e c #86B0EC",
"r c #89B1ED",
"t c #90B3E3",
"y c #9CBCE5",
"u c #91BBEC",
"i c #85AFF0",
"p c #86B0F0",
"a c #8BB4F1",
"s c #8EB8F4",
"d c #91BCF5",
"f c #93BEF8",
"g c #9BC2EF",
"h c #9CC3F4",
"j c #A6C8EB",
"k c #A6C9F6",
"l c #A5CDFA",
"z c #A9CFFA",
"x c #ADD0F8",
"c c #B6D3F3",
"v c #B0D0F8",
"b c #C0D3EE",
"n c #D1E5F9",
"m c #E0EDFC",
"M c None",
/* pixels */
"MMMMMMMMMMMMMMMMMMMMMMMMMMMMMMMM",
"MMMMMMMMMMMMMMMMMMMMMMMMMMMMMMMM",
"MMMMMMMMMMMMMMMMMMMMMMMMMMMMMMMM",
"MMMMMMMMMMMMMMMMMMMMMMMMMMMMMMMM",
"M3666666666MMMMMMMMMMMMMMMMMMMMM",
"$nkhhhhhfkgMMMMMMMMMMMMMMMMMMMMM",
"%daaraaaaaatMMMMMMMMMMMMMMMMMMMM",
"%uaaaaaaarahbjjjjjjjjjjjjyMMMMMM",
"%uaaaaaaaraaaaaaaraarsaaahOMMMMM",
"%rrsaaaaassaaaaaaaaasaaaaaOMMMMM",
"$r8raaarsrrdaaaaasaaaaaaaaOMMMMM",
"%w,,88808e80rrr0rrrrrrrrrrOMMMMM",
"$8%>-,,187,,8,78788888e0e8-447-M",
"O8*--,unvzvvvzzzzzzzllzkzlllzll8",
"$8$**-gaasssdssdddfddfffffffffd3",
"O;++$qaaaaaassssaddddfdddfffff8M",
"O;X+@uiipaaaaasassdsddddddfdff%M",
"+-XX%iiippppapaaaasssssdddddd0MM",
"#-..w<iiiipppppaaaaasssssssdd5MM",
"#= oe11ii11iippppppapspssssarMMM",
"#$ ;:<11111piiiiiiiiapsaasas9MMM",
"#= q<<1<11111010iiiiiipppa0p3MMM",
"#$$><><<<1111111iiiiiiiipp87MMMM",
"#=1><<><<<1111111110ii0i000%MMMM",
"#c:*::::>><:<<<<<<<111110,,MMMMM",
"$u@@@@@@@@@@@@&&@@****:*:14MMMMM",
"4->>>:>>>:>>::>>>>>>>>>,:*2MMMMM",
"MMMMMMMMMMMMMMMMMMMMMMMMMMMMMMMM",
"MMMMMMMMMMMMMMMMMMMMMMMMMMMMMMMM",
"MMMMMMMMMMMMMMMMMMMMMMMMMMMMMMMM",
"MMMMMMMMMMMMMMMMMMMMMMMMMMMMMMMM",
"MMMMMMMMMMMMMMMMMMMMMMMMMMMMMMMM"
};
