/* XPM */
static const char *loadprj0_xpm[] = {
/* rows colors chars-per-pixel */
"32 32 94 2",
"   c #484E52",
".  c #4B545C",
"X  c #4F5965",
"o  c #505A66",
"O  c #535F6F",
"+  c #53606F",
"@  c #546170",
"#  c #566578",
"$  c #59687A",
"%  c #5A6B83",
"&  c #5D718C",
"*  c #5F7595",
"=  c #617696",
"-  c #637997",
";  c #647B9C",
":  c #657EA3",
">  c #6880A2",
",  c #6882A9",
"<  c #6E88AC",
"1  c #6C88B3",
"2  c #6C8ABA",
"3  c #728EB6",
"4  c #708FBD",
"5  c #7493BF",
"6  c #6186C2",
"7  c #658BC7",
"8  c #6C8EC6",
"9  c #698CC9",
"0  c #6A90CC",
"q  c #7494C4",
"w  c #7897C1",
"e  c #7294CB",
"r  c #7A9ACD",
"t  c #668CD0",
"y  c #6C93D3",
"u  c #6E95D9",
"i  c #7095D5",
"p  c #7299D6",
"a  c #7A9BD1",
"s  c #739BDC",
"d  c #7A9ED9",
"f  c #7EA0CD",
"g  c #7DA1D3",
"h  c #7CA2DD",
"j  c #739BE0",
"k  c #77A1E5",
"l  c #7CA4E3",
"z  c #7FA8E3",
"x  c #7BA4E9",
"c  c #7AA8ED",
"v  c #879DC0",
"b  c #80A1D6",
"n  c #83A4DA",
"m  c #86A9DC",
"M  c #8CABDD",
"N  c #9CB5DF",
"B  c #80A7E4",
"V  c #82AAE5",
"C  c #84ADEA",
"Z  c #90AEE2",
"A  c #87B2E5",
"S  c #86B0EB",
"D  c #89B3ED",
"F  c #93BEEC",
"G  c #86B0F0",
"H  c #8AB4F2",
"J  c #8EB8F4",
"K  c #90BBF6",
"L  c #93BEF8",
"P  c #A2BBE3",
"I  c #95C1ED",
"U  c #99C4EE",
"Y  c #9DCBEE",
"T  c #96C1F3",
"R  c #99C5F2",
"E  c #9BC8F0",
"W  c #B2C8EC",
"Q  c #AED2F3",
"!  c #B6DAF5",
"~  c #B9DCF7",
"^  c #B7DCF9",
"/  c #B8DDF9",
"(  c #BCE1FC",
")  c #C2E1F9",
"_  c #CBE6FA",
"`  c #CFE9FB",
"'  c #D4EAFC",
"]  c #DAEEFD",
"[  c #DFF1FD",
"{  c #E2EFFD",
"}  c #E3F3FE",
"|  c #F1FAFF",
" . c #F9FCFF",
".. c None",
/* pixels */
"................................................................",
"................................................................",
"................................................................",
"................................................................",
"....W M h h h n h n l m ........................................",
"....m  .( ( ( ( ( ( ( ( M ......................................",
"....m Y K K K K K K K K Q M M M M M M M M M M M M M ............",
"....Z Y K K K K K K K K K ` ^ ( / / / / / / / / / / n ..........",
"....M Y T J J K K K K K K K K K K K K L K K K K K K z ..........",
"....m Y J J T K K K K K K J K K K K K K K K K K K K l ..........",
"....n Y S S D D D D H D D D D D S D S S S S C S S C h ..........",
"....b E z z z z A S S S C C A S C S A C C S C C S C h N P P P ..",
"....b E l h h z | [ [ [ ] ' ' ` ` _ ) ) ~ ) ~ ~ ~ ^ ! ! ! ~ ! m ",
"....a E s h s I T J J J K J J K K K K K K K K L L L L L L L K M ",
"....a E p p p Y H H J J r D J J J K K J J K K K r D J K K L C ..",
"....a R 0 i A I S H ; . $   5 J < o +   w J 3 . $   w J J J b ..",
"....r R 0 0 F C C = & V S > % G + 5 D - > H . a J 3 3 H H G P ..",
"....e R 9 n F l e o B B e e z a   # # + B G . o & V G G G d ....",
"....i R 6 F C x & = C 1 + . z & = q : # z p z 2 O # C G x Z ....",
"....e T 9 I j c # ; x l & & d   l l % ; q O l l % , C x s ......",
"....e L G C j x 2 .   X X i :     X * x s o   . ; c x x d ......",
"....r ( H j j x x x x x x x x x x x x x x x x x x x l d W ......",
"....8 { C u c j x j x x x x x x x x x x x x x x x x j p ........",
"....8 K j t u u u u y u u u u u u s u j s s j j j s j Z ........",
"....e z c c c c c c c c c c c c c c c c c c c c x x u ..........",
"......9 9 9 9 9 9 9 9 9 9 9 9 9 9 9 9 9 9 9 9 9 9 9 v ..........",
"................................................................",
"................................................................",
"................................................................",
"................................................................",
"................................................................",
"................................................................"
};
