/* XPM */
static const char *loadprj1_xpm[] = {
/* columns rows colors chars-per-pixel */
"16 16 54 1",
"  c #373C41",
". c #464D53",
"X c #658ABF",
"o c #698FCE",
"O c #6D93C8",
"+ c #6C92D3",
"@ c #769DD1",
"# c #7399D4",
"$ c #7399D6",
"% c #7499D7",
"& c #749AD7",
"* c #799DD7",
"= c #749AD8",
"- c #759BD8",
"; c #759BD9",
": c #759DD9",
"> c #769ED9",
", c #769CDA",
"< c #7BA0D9",
"1 c #7FA8E7",
"2 c #A4ADB3",
"3 c #8DABDC",
"4 c #8EACDD",
"5 c #9AB2DD",
"6 c #80A8E2",
"7 c #86AFE2",
"8 c #82ABE6",
"9 c #84ADE7",
"0 c #82ACEE",
"q c #8FB3E2",
"w c #86B0EF",
"e c #8CB7E8",
"r c #88B0EE",
"t c #8AB3EF",
"y c #8CB4EE",
"u c #97BCEA",
"i c #89B4F1",
"p c #8BB5F1",
"a c #8DB6F0",
"s c #8CB7F3",
"d c #91BCF6",
"f c #99C3F1",
"g c #9EC5F1",
"h c #9FC8F6",
"j c #AEC6ED",
"k c #A2C8F0",
"l c #A0C8F4",
"z c #A3CBF6",
"x c #A8CFF6",
"c c #B3D7F3",
"v c #B7DBF6",
"b c #EBF7FE",
"n c #F1FAFF",
"m c None",
/* pixels */
"j44444mmmmmmmmmm",
",bvvvc4444444mmm",
",fddddxxxzzh9mmm",
";e8#########,mmm",
";7,>nvvvvvvvvvvm",
"&@&lssssssssss6m",
"&Ouatiiiiiiits4m",
"&Xg0wwwwwwwww1mm",
"=qi0000010000*mm",
"%kraaaaassaay5mm",
"m*++++++++++Ommm",
"mmmmmmmmmmmmmmmm",
"2...mmm..2mmm2..",
".mm2mmm. .mmm. 2",
".m2.mmm.2.mmmm2.",
"2...mmm..2mmm..2"
};
