/* XPM */
static const char *saveprj0_xpm[] = {
/* columns rows colors chars-per-pixel */
"32 32 246 2",
"   c #222425",
".  c #232526",
"X  c #232527",
"o  c #242526",
"O  c #242626",
"+  c #242627",
"@  c #252627",
"#  c #242727",
"$  c #242728",
"%  c #252728",
"&  c #262829",
"*  c #262929",
"=  c #272929",
"-  c #27282A",
";  c #27292A",
":  c #27292B",
">  c #272A2B",
",  c #282A2B",
"<  c #282B2B",
"1  c #282A2C",
"2  c #292A2C",
"3  c #292B2C",
"4  c #2A2C2D",
"5  c #2A2D2E",
"6  c #2B2E2F",
"7  c #2C2D2F",
"8  c #2C2E2F",
"9  c #2C2E30",
"0  c #2D2E30",
"q  c #2C2F30",
"w  c #2E2F31",
"e  c #2E3032",
"r  c #2F3132",
"t  c #2F3033",
"y  c #2E3133",
"u  c #303133",
"i  c #303233",
"p  c #313334",
"a  c #313335",
"s  c #333336",
"d  c #323436",
"f  c #333637",
"g  c #343537",
"h  c #343637",
"j  c #333638",
"k  c #343638",
"l  c #353739",
"z  c #35373A",
"x  c #36383A",
"c  c #36383B",
"v  c #38393C",
"b  c #383A3C",
"n  c #393A3C",
"m  c #383A3D",
"M  c #393A3D",
"N  c #383B3D",
"B  c #393B3D",
"V  c #3A3B3D",
"C  c #3A3C3E",
"Z  c #3A3C3F",
"A  c #3A3D3F",
"S  c #3C3E3F",
"D  c #3B3D40",
"F  c #3B3E40",
"G  c #3C3D41",
"H  c #3C3E40",
"J  c #3D3E41",
"K  c #3E3F42",
"L  c #3C4043",
"P  c #3D4143",
"I  c #3E4042",
"U  c #3E4043",
"Y  c #3F4043",
"T  c #3C4044",
"R  c #3D4144",
"E  c #404144",
"W  c #404245",
"Q  c #414245",
"!  c #414345",
"~  c #404346",
"^  c #414346",
"/  c #414347",
"(  c #424448",
")  c #434548",
"_  c #434648",
"`  c #444548",
"'  c #454649",
"]  c #45464A",
"[  c #46484A",
"{  c #46484B",
"}  c #484A4D",
"|  c #494A4D",
" . c #484A4E",
".. c #494A4E",
"X. c #484B4E",
"o. c #494B4E",
"O. c #464C50",
"+. c #474C50",
"@. c #4B4D50",
"#. c #4B4D51",
"$. c #4B4E50",
"%. c #4D4F53",
"&. c #4D5052",
"*. c #4D5053",
"=. c #4E5053",
"-. c #4F5255",
";. c #505255",
":. c #535355",
">. c #525454",
",. c #525457",
"<. c #525458",
"1. c #545559",
"2. c #545659",
"3. c #54565A",
"4. c #56575B",
"5. c #50575C",
"6. c #51575C",
"7. c #55585B",
"8. c #56585B",
"9. c #55585C",
"0. c #56585C",
"q. c #57595D",
"w. c #575A5D",
"e. c #58595D",
"r. c #595A5E",
"t. c #595B5E",
"y. c #585A5F",
"u. c #595A5F",
"i. c #585B5F",
"p. c #595B5F",
"a. c #5B6268",
"s. c #5C6368",
"d. c #6A6B6D",
"f. c #656D74",
"g. c #656D75",
"h. c #656E75",
"j. c #666E75",
"k. c #78797A",
"l. c #CA6C00",
"z. c #EE7F03",
"x. c #F2860E",
"c. c #6E7881",
"v. c #6F7881",
"b. c #6F7981",
"n. c #707981",
"m. c #78838D",
"M. c #79838D",
"N. c #79848D",
"B. c #7B858D",
"V. c #8B8C8D",
"C. c #828F99",
"Z. c #838F99",
"A. c #85909A",
"S. c #9A9B9E",
"D. c #8C9AA5",
"F. c #8E9BA5",
"G. c #8D9AA6",
"H. c #8E9BA6",
"J. c #909CA6",
"K. c #98A6B2",
"L. c #99A6B2",
"P. c #99A7B2",
"I. c #9AA6B2",
"U. c #A1B1B1",
"Y. c #A2B1BF",
"T. c #A3B1BF",
"R. c #A2B2BF",
"E. c #A4B2BF",
"W. c #AABBCA",
"Q. c #ABBBCA",
"!. c #ABBBCB",
"~. c #ABBCCB",
"^. c #ADBDCA",
"/. c #ACBDCB",
"(. c #ADBDCB",
"). c #B5C3C3",
"_. c #B4C6D6",
"`. c #B4C6D7",
"'. c #B7C7D7",
"]. c #B7C8D7",
"[. c #B9C9D7",
"{. c #BFD2E3",
"}. c #C1D3E3",
"|. c #C2D3E3",
" X c #C3D4E3",
".X c #C8DDEF",
"XX c #C9DDEF",
"oX c #CBDFEF",
"OX c #CCDFEF",
"+X c #CCDFF0",
"@X c #C2E8E8",
"#X c #C4E9E8",
"$X c #C5E9E8",
"%X c #C4E8E9",
"&X c #C4E9E9",
"*X c #C5E9E9",
"=X c #C9E9E9",
"-X c #C9EAE9",
";X c #C9E9EA",
":X c #C8EAEA",
">X c #CCEBEB",
",X c #CDEBEB",
"<X c #CCECEB",
"1X c #D0ECEC",
"2X c #D1ECEC",
"3X c #D0EDEC",
"4X c #D0ECED",
"5X c #D0EDED",
"6X c #D1EDED",
"7X c #D5EEEE",
"8X c #D9EFEF",
"9X c #DAEFEF",
"0X c #D9F0EF",
"qX c #DAF0EF",
"wX c #CEE6FB",
"eX c #CFE6FB",
"rX c #CFE6FC",
"tX c #DAEFF0",
"yX c #D2E8FB",
"uX c #D3E8FB",
"iX c #D3E9FB",
"pX c #D5E9FB",
"aX c #D6E9FB",
"sX c #D5EAFB",
"dX c #D6EAFB",
"fX c #D7EAFB",
"gX c #D7EBFB",
"hX c #D3E8FC",
"jX c #D4E8FC",
"kX c #D4E9FC",
"lX c #D5E9FC",
"zX c #D6E9FC",
"xX c #D5EAFC",
"cX c #D6EAFC",
"vX c #D7EAFC",
"bX c #D7EBFC",
"nX c #D8EAFC",
"mX c #D8EBFC",
"MX c #D9F0F0",
"NX c #DAF0F0",
"BX c #DDF1F1",
"VX c #DEF1F0",
"CX c #DEF1F1",
"ZX c #E4F3F4",
"AX c #F5FBFB",
"SX c None",
/* pixels */
"SXSXSXSXSXSXSXSXSXSXSXSXSXSXSXSXSXSXSXSXSXSXSXSXSXSXSXSXSXSXSXSX",
"SXSXSXSXSXSXSXSXSXSXSXSXSXSXSXSXSXSXSXSXSXSXSXSXSXSXSXSXSXSXSXSX",
"SXSXS.Q Q Q i.] Q ).).).).).).).).).).).).).).ZXs Q Q Q SXSXSXSX",
"SXSXQ V.d.d.i.] d.AXAXAXAXAXAXAXAXAXAXAXAXAXAXAX,.d.d.V.Q SXSXSX",
"SXSXQ i.w.i.i.] i.qXZXqXVXqXZXqXZXqXqX8 8 8 NXVX] i.i.i.d.Q SXSX",
"SXSXK w.i.w.i.] i.8X8X8XNXqX8XqXqX8X8X8 _ Q tXtX` w.w.w.w.K SXSX",
"SXSXY 8.0.1.i.] w.6X7X7X7X7X7X7X7X7X7X8 Q Q 7X7XQ 0.w.w.1.K SXSX",
"SXSXK 1.1.1.i.] 1.2X2X6X6X6X6X6X6X6X3X8 ( ( 6X2XQ 1.1.1.1.K SXSX",
"SXSXK ,.,.,.w.] <.,X,X,X<X<X<X<X,X,X,X6 _ ! ,X;XQ <.,.,.,.S SXSX",
"SXSXC -.,.-.w.] ,.*X*X;X;X;X;X*X;X;X*X0 ( ! ;X;XK ,.,.,.=.A SXSX",
"SXSXC #.=.=.i.] ] *X*X*X*X@X*X*X*X@X%X0 R ( $X*XG #.#.=.=.n SXSX",
"SXSXC #.#.#.d.i.i.U.@X@X@X@X@X@X@X@X@X@X@X@X@X@XC @.#.#.o.C SXSX",
"SXSXv X.X.X.X.X.X.C C v C c C c C n c C n n C C n | X.X.X.c SXSX",
"SXSXk { { { { { ] ] { { { { { { { { { { ] ] ] { { { { { { k SXSX",
"SXSXk _ _ P.mXmXmXmXmXmXmXmXmXmXmXmXmXmXmXmXmXmXmXmXP.` ] h SXSX",
"SXSXd Q Q bXgXmXmXmXmXmXmXgXbXbXgXmXgXmXmXmXmXmXmXmXmX! Q d SXSX",
"SXSXy K K bXbXbXmX`.+XmXbX+X(.!.|.bXgXbXmXbX(.gXgXbXbXK K y SXSX",
"SXSXy K D bXbXD.o.+.j h.bX(.j j d +.!.bXD.R 5.Y G.bXgXK K y SXSX",
"SXSX0 C v jXK.j R.gXOX+.K.!.j bXbXb.h.bXR R.gX].K oXyXv C y SXSX",
"SXSX0 c k bXg.a.jXzXgX|.`.(.j (.P.5.R.hXa.+.D.}.hXgXgXc k q SXSX",
"SXSXq j d bXa.m.bXhXa.a.M.!.k a.a.j A.yX.XG.6.j a.yXbXd d 6 SXSX",
"SXSX2 s s hXc.+.hXyX!.D.a.!.j yXyX!.j {.A.yXyX`.K !.hXs d 6 SXSX",
"SXSX2 y u hX`.k b.!.C.K a.!.h !.!.m.<.hX+.h.W.D.K .XyXt u < SXSX",
"SXSX: q 0 mXmX XZ.+.n.D.B.[.a.a.a.B.[.mX].b.X.h.W.bXbXq 0 > SXSX",
"SXSX> 6 2 mXmXmXbXmXmXbXbXbXmXmXbXbXmXbXmXmXmXmXuXpXgX2 2 < SXSX",
"SXSX% 2 > wXwXrXwXyXwXhXeXwXwXeXwXyXwXwXyXwXwXwXwXwXyX< < % SXSX",
"SXSX% % > z.z.z.z.z.z.z.z.z.z.z.z.z.z.z.z.z.z.z.z.z.z.@ % @ SXSX",
"SXSXX $ @ z.z.z.z.z.z.z.z.z.z.z.z.z.z.z.z.z.z.z.z.z.z.o SXX SXSX",
"SXSX  X X x.x.x.x.x.x.x.x.x.x.x.x.x.x.x.x.x.x.x.x.x.x.X @   SXSX",
"SXSXk.X   l.l.l.l.l.l.l.l.l.l.l.l.l.l.l.l.l.l.l.l.l.l.X   ,.SXSX",
"SXSXSXSXSXSXSXSXSXSXSXSXSXSXSXSXSXSXSXSXSXSXSXSXSXSXSXSXSXSXSXSX",
"SXSXSXSXSXSXSXSXSXSXSXSXSXSXSXSXSXSXSXSXSXSXSXSXSXSXSXSXSXSXSXSX"
};
