/* XPM */
static const char *settings_xpm[] = {
/* columns rows colors chars-per-pixel */
"16 16 123 2",
"   c #788483",
".  c #798584",
"X  c #7A8685",
"o  c #7A8786",
"O  c #7B8887",
"+  c #7D8887",
"@  c #7B8B89",
"#  c #7C8988",
"$  c #7D8989",
"%  c #7E8A89",
"&  c #7E8C8A",
"*  c #818D8C",
"=  c #818E8C",
"-  c #83918F",
";  c #84908F",
":  c #879392",
">  c #879393",
",  c #879493",
"<  c #879593",
"1  c #889493",
"2  c #899494",
"3  c #889594",
"4  c #899594",
"5  c #899695",
"6  c #8A9695",
"7  c #8A9696",
"8  c #8B9796",
"9  c #8B9797",
"0  c #8B9896",
"q  c #8B9897",
"w  c #8C9897",
"e  c #8E9998",
"r  c #8F9A9A",
"t  c #8F9B9A",
"y  c #909D9C",
"u  c #919D9C",
"i  c #919D9D",
"p  c #939E9D",
"a  c #949F9E",
"s  c #94A09F",
"d  c #98A09E",
"f  c #95A0A0",
"g  c #95A1A0",
"h  c #96A1A0",
"j  c #97A1A1",
"k  c #96A2A1",
"l  c #9BA1A0",
"z  c #98A2A2",
"x  c #98A4A3",
"c  c #99A5A4",
"v  c #9AA4A4",
"b  c #9BA6A5",
"n  c #9AA7A6",
"m  c #9BA8A7",
"M  c #9CA9A8",
"N  c #9DAAA8",
"B  c #9EAAAA",
"V  c #9EABAA",
"C  c #9FABAA",
"Z  c #9FABAB",
"A  c #A1ABAA",
"S  c #A0ACAB",
"D  c #A1ACAB",
"F  c #A4ACAB",
"G  c #A0ADAC",
"H  c #A1ADAC",
"J  c #A2AEAD",
"K  c #A3AEAD",
"L  c #A3AFAD",
"P  c #A2AFAE",
"I  c #A3AFAE",
"U  c #A3AFAF",
"Y  c #A4ADAC",
"T  c #A3B0AF",
"R  c #A4B0AE",
"E  c #A5B0AE",
"W  c #A4B0AF",
"Q  c #A6B2B1",
"!  c #A7B2B1",
"~  c #A7B2B2",
"^  c #A8B2B1",
"/  c #A8B3B2",
"(  c #A9B4B4",
")  c #A9B5B4",
"_  c #AAB5B4",
"`  c #AAB6B4",
"'  c #ADB9B7",
"]  c #AEB8B6",
"[  c #AEB8B7",
"{  c #ADB8B8",
"}  c #ADB9B8",
"|  c #AFB8B8",
" . c #AFBAB9",
".. c #B0BAB8",
"X. c #B1BBB9",
"o. c #B1BBBB",
"O. c #B1BCBA",
"+. c #B2BCBB",
"@. c #B0BEBC",
"#. c #B2BEBD",
"$. c #B5BEBD",
"%. c #B5BEBE",
"&. c #B5BFBE",
"*. c #B6BFBE",
"=. c #B7C0BF",
"-. c #B9C2C1",
";. c #BAC4C3",
":. c #BBC4C4",
">. c #BBC5C4",
",. c #BCC4C4",
"<. c #BCC5C4",
"1. c #BEC7C5",
"2. c #BDC7C7",
"3. c #BEC8C7",
"4. c #BFC8C7",
"5. c #BFC9C7",
"6. c #BFC8C8",
"7. c #C0C9C9",
"8. c #C2CBC9",
"9. c #D7E4E3",
"0. c #D7E5E3",
"q. c #E9FAF8",
"w. c None",
/* pixels */
"w.w.w.w.w.w.F f E v w.w.w.w.w.w.",
"w.w.w., r w.3 q.q.1 w.a , w.w.w.",
"w.w., 0.] 3 / 7.7./ 3 ] 0.1 w.w.",
"w.w.3 2.4.4.2.4.7.4.7.4.2.0 w.w.",
"w.w.f A :.2.;.;.=.-.2.:.D u w.w.",
"w.w., %.-.=./ u x a +.-.$.1 w.w.",
"3 y O.%.%.+.1 w.w.w.a %.%.%.f & ",
"3 +.+.+.O.E v w.w.w.s  . .+.+.% ",
", c I { ] ( 3 w.w.w.t  .] I x @ ",
"w.w.= ( ` ] f 3 r > a ` ) : w.w.",
"w.w.a a ~ ~ ~ I V E ~ ~ f 3 w.w.",
"w.w.@ I I I I I I I I T E = w.w.",
"w.w.O V N 3 D I I V w V Z = w.w.",
"w.w.w.o o F   N V o b = + w.w.w.",
"w.w.w.w.w.w.o M b o w.w.w.w.w.w.",
"w.w.w.w.w.w.v + % a w.w.w.w.w.w."
};
