/* XPM */
static const char *up__ico__[] = {
/* columns rows colors chars-per-pixel */
"64 64 53 1",
"  c #7FB31F",
". c #709F32",
"X c #7BAD25",
"o c #74A42D",
"O c #76A82A",
"+ c #78A928",
"@ c #7EB220",
"# c #70A031",
"$ c #86BB17",
"% c #8CBA13",
"& c #81B41E",
"* c #84B919",
"= c #90BF12",
"- c #80B220",
"; c #84B436",
": c #8DC50F",
"> c #95CB0C",
", c #98CE0D",
"< c #9CD20D",
"1 c #8BC211",
"2 c #92C211",
"3 c #96C810",
"4 c #99CB10",
"5 c #9DD010",
"6 c #A0D60D",
"7 c #A4DA0E",
"8 c #A8DE0E",
"9 c #A9DE10",
"0 c #ABE10F",
"q c #ACE210",
"w c #B0E510",
"e c #A4D62D",
"r c #A4D633",
"t c #A6D63B",
"y c #AAD93D",
"u c #B0DC3E",
"i c #B3E236",
"p c #B6E43B",
"a c #B9E643",
"s c #BAE846",
"d c #BDE94B",
"f c #C1EB53",
"g c #C4ED5A",
"h c #C8EF60",
"j c #C9F065",
"k c #CCF26B",
"l c #CFF371",
"z c #D0F475",
"x c #D2F57B",
"c c #D5F683",
"v c #D7F889",
"b c #D8F88D",
"n c None",
/* pixels */
"nnnnnnnnnnnnnnnnnnnnnnnnnnnnnnn:nnnnnnnnnnnnnnnnnnnnnnnnnnnnnnnn",
"nnnnnnnnnnnnnnnnnnnnnnnnnnnnnn:;:nnnnnnnnnnnnnnnnnnnnnnnnnnnnnnn",
"nnnnnnnnnnnnnnnnnnnnnnnnnnnnn:bwb:nnnnnnnnnnnnnnnnnnnnnnnnnnnnnn",
"nnnnnnnnnnnnnnnnnnnnnnnnnnnn:vwwwb:nnnnnnnnnnnnnnnnnnnnnnnnnnnnn",
"nnnnnnnnnnnnnnnnnnnnnnnnnnn1vwwwwwv1nnnnnnnnnnnnnnnnnnnnnnnnnnnn",
"nnnnnnnnnnnnnnnnnnnnnnnnnn:vwwwwwwwc1nnnnnnnnnnnnnnnnnnnnnnnnnnn",
"nnnnnnnnnnnnnnnnnnnnnnnnn1vwwwwwwwwwv1nnnnnnnnnnnnnnnnnnnnnnnnnn",
"nnnnnnnnnnnnnnnnnnnnnnnn1v000ww0wqw0wv1nnnnnnnnnnnnnnnnnnnnnnnnn",
"nnnnnnnnnnnnnnnnnnnnnnn1cqww0wqqqqqwqqc1nnnnnnnnnnnnnnnnnnnnnnnn",
"nnnnnnnnnnnnnnnnnnnnnn1x0qq00w0qqwqqqqwx:nnnnnnnnnnnnnnnnnnnnnnn",
"nnnnnnnnnnnnnnnnnnnnn$x00000w0q00q00qq00x1nnnnnnnnnnnnnnnnnnnnnn",
"nnnnnnnnnnnnnnnnnnnn1x00w0qw0qqqwq0qq000qx1nnnnnnnnnnnnnnnnnnnnn",
"nnnnnnnnnnnnnnnnnnn1l0q0q000qqq00q000000qqz$nnnnnnnnnnnnnnnnnnnn",
"nnnnnnnnnnnnnnnnnn1lq08qq00q0090q0000000000l1nnnnnnnnnnnnnnnnnnn",
"nnnnnnnnnnnnnnnnn$kqq9000000q08q000000000000l$nnnnnnnnnnnnnnnnnn",
"nnnnnnnnnnnnnnnn$k999q0000q098q0000000000009qk$nnnnnnnnnnnnnnnnn",
"nnnnnnnnnnnnnnn$k0808008808880q900090799090080j$nnnnnnnnnnnnnnnn",
"nnnnnnnnnnnnnn$j08088880888q9908779900907990000h$nnnnnnnnnnnnnnn",
"nnnnnnnnnnnnn$h888088888888898880000700009078888h$nnnnnnnnnnnnnn",
"nnnnnnnnnnnn*g88888888888888888999707900078888809g$nnnnnnnnnnnnn",
"nnnnnnnnnnn*g88988888888887878787977070<9070888798g*nnnnnnnnnnnn",
"nnnnnnnnnn*g787987878878888888887070707077778778788f*nnnnnnnnnnn",
"nnnnnnnnn*f78797787888777888778879777790079788888777d*nnnnnnnnnn",
"nnnnnnnn*d7877777787777887777877777070<0<797777778889d&nnnnnnnnn",
"nnnnnnn*d777767987777977778777789<9<00<077777877777787s&nnnnnnnn",
"nnnnnn*s777777777777777769677777700<9<<9777777777777777s*nnnnnnn",
"nnnnn&a7777777777777777777777776<0<00<0<8777777877777777s&nnnnnn",
"nnnn-p777667777767677667677767770<0<<0<0<77777<7767776787p&nnnnn",
"nnn&p,554444444444376776776767770<<090<077675444443444445,p&nnnn",
"nn&iuuuuuuuuuuuuuy56669666776767<0<<<<<<677<5yuuuuuuuuuuuuuu&nnn",
"n--&---@---------e<7676676666756<0<0<90<76664e@------&----@ @&nn",
"nnnnnnnnnnnnnnnn-e,6667666766666<<<0<<0<<7675e-nnnnnnnnnnnnnnnnn",
"nnnnnnnnnnnnnnnn@e,6666666666666<077<<7<6666,e-nnnnnnnnnnnnnnnnn",
"nnnnnnnnnnnnnnnn@e,666<66666<666<<<<<7<766<6,e-nnnnnnnnnnnnnnnnn",
"nnnnnnnnnnnnnnnnXe,6<666<66<6666<<<<<7<7<666,eXnnnnnnnnnnnnnnnnn",
"nnnnnnnnnnnnnnnnXe,<6<<6<6<66<<6<9<9<<<<6<<63eXnnnnnnnnnnnnnnnnn",
"nnnnnnnnnnnnnnnnXe3<6<<6<<<66<6<<<7<<<<<6<6<3eXnnnnnnnnnnnnnnnnn",
"nnnnnnnnnnnnnnnnXe36<<<<<6<<<<<<<<<<7<<<<<<<3rXnnnnnnnnnnnnnnnnn",
"nnnnnnnnnnnnnnnnXe2<<<<<<<<<<<<<<<<<<<<<<<<<2rXnnnnnnnnnnnnnnnnn",
"nnnnnnnnnnnnnnnnXr2<<<<<<<<<<<<<<<<<<<<<<<<<2rXnnnnnnnnnnnnnnnnn",
"nnnnnnnnnnnnnnnn+r2<<<<<,6,6,<<,<<5<<<<<<,<<2rXnnnnnnnnnnnnnnnnn",
"nnnnnnnnnnnnnnnnXr=<,<<,<<<,,<<<<<<5,<,<,<,<=r+nnnnnnnnnnnnnnnnn",
"nnnnnnnnnnnnnnnnOr=<,<,,,,<,<<,,,<<<,<<,<,<,2r+nnnnnnnnnnnnnnnnn",
"nnnnnnnnnnnnnnnnOr=,,,,<<,,<,,<,<,,<,<,<,,<,=r+nnnnnnnnnnnnnnnnn",
"nnnnnnnnnnnnnnnnOr=,,,,<,,,,,,,,,,,,,,,,,,,,1rOnnnnnnnnnnnnnnnnn",
"nnnnnnnnnnnnnnnnOr=,,,,,,,,,,,,,,,,,,,,,,,,,1rOnnnnnnnnnnnnnnnnn",
"nnnnnnnnnnnnnnnnOr=,>,,,,,,,,,,,,,,,,,,,,,,,%tOnnnnnnnnnnnnnnnnn",
"nnnnnnnnnnnnnnnnor%,,,,>>,,,,,,>,,>>,,,>,>,,1rOnnnnnnnnnnnnnnnnn",
"nnnnnnnnnnnnnnnnor%,,,>,>,>,>,>,>,>,>,>>>,>,%tonnnnnnnnnnnnnnnnn",
"nnnnnnnnnnnnnnnnor=3>3>,,>>>>>,>,>,,,>,>,,>>%ronnnnnnnnnnnnnnnnn",
"nnnnnnnnnnnnnnnnot%>>>>,>>>>>>>>>>>>>>>>>>>,%tonnnnnnnnnnnnnnnnn",
"nnnnnnnnnnnnnnnnor%>>>>>>,>>>>>>>>>>>>>>>>,,%ronnnnnnnnnnnnnnnnn",
"nnnnnnnnnnnnnnnnor%>>>>>>>>>>>>>>>>>>>>>>>>>%ronnnnnnnnnnnnnnnnn",
"nnnnnnnnnnnnnnnn#t%3>>>:>>>>>>>>>>>>>>>:>>>>%t#nnnnnnnnnnnnnnnnn",
"nnnnnnnnnnnnnnnnor%>>>>>>>>>>>>:>>>>>>>>>>>2%tonnnnnnnnnnnnnnnnn",
"nnnnnnnnnnnnnnnn#r%%>:>>3>>:>:>>:>>>>:>>:>>:%t#nnnnnnnnnnnnnnnnn",
"nnnnnnnnnnnnnnnn#t%%%>>:>:>>2>>2>:>=>>>>22%%%t#nnnnnnnnnnnnnnnnn",
"nnnnnnnnnnnnnnnn#t%%%%%%%%%%%%%%%%%%%%%%%%%%%t#nnnnnnnnnnnnnnnnn",
"nnnnnnnnnnnnnnnn#y%%%%%%%%%%%%%%%%%%%%%%%%%%%tonnnnnnnnnnnnnnnnn",
"nnnnnnnnnnnnnnnn#y%%%%%%%%%%%%%%%%%%%%%%%%%%=t.nnnnnnnnnnnnnnnnn",
"nnnnnnnnnnnnnnnn.tytttttrttttttttttyrrrttytttt#nnnnnnnnnnnnnnnnn",
"nnnnnnnnnnnnnnnn....#..........#...............nnnnnnnnnnnnnnnnn",
"nnnnnnnnnnnnnnnnnnnnnnnnnnnnnnnnnnnnnnnnnnnnnnnnnnnnnnnnnnnnnnnn",
"nnnnnnnnnnnnnnnnnnnnnnnnnnnnnnnnnnnnnnnnnnnnnnnnnnnnnnnnnnnnnnnn"
};
