/* XPM */
static const char *up__ico__[] = {
/* columns rows colors chars-per-pixel */
"16 16 64 1",
"  c #8DBB12",
". c #8DBC11",
"X c #8DBD11",
"o c #8EBE22",
"O c #8CBB24",
"+ c #8EBE26",
"@ c #8CBB29",
"# c #8CBB2A",
"$ c #8DBC28",
"% c #84B436",
"& c #8BBB37",
"* c #94C90C",
"= c #94CA0C",
"- c #96CC0C",
"; c #98CE0C",
": c #98CE0D",
"> c #9AD00D",
", c #9DD30D",
"< c #9FD50D",
"1 c #9FD50E",
"2 c #90C21F",
"3 c #92C41E",
"4 c #94C71D",
"5 c #96C91B",
"6 c #9CCF1A",
"7 c #A2D80E",
"8 c #A4DA0E",
"9 c #A6DC0E",
"0 c #A6DD0E",
"q c #A7DD0E",
"w c #A7DC0F",
"e c #A8DF0F",
"r c #A9DF0F",
"t c #A5DB12",
"y c #A5D916",
"u c #A8DD13",
"i c #A8DC18",
"p c #ABDF1A",
"a c #ABE10F",
"s c #ADE30F",
"d c #ABE014",
"f c #ADE215",
"g c #AFE416",
"h c #ADE11C",
"j c #AFE31D",
"k c #B1E517",
"l c #B1E41E",
"z c #8FC021",
"x c #8FC024",
"c c #91C222",
"v c #93C520",
"b c #9ACC20",
"n c #9CCF23",
"m c #98C924",
"M c #98C825",
"N c #99C929",
"B c #9BCB28",
"V c #A0D226",
"C c #A4D52A",
"Z c #A7D82D",
"A c #AADA31",
"S c #ACDC33",
"D c #B2DE40",
"F c None",
/* pixels */
"FFFFFFFSFFFFFFFF",
"FFFFFFSklFFFFFFF",
"FFFFFSgskjFFFFFF",
"FFFFCfaafshFFFFF",
"FFFCudeeeqdiFFFF",
"FFVuqqqqqqqqiFFF",
"Fnt8888888887yFF",
"FBmm6777777bmMBF",
"FFFF5<,7<<<vFFFF",
"FFFF4,,,,,,cFFFF",
"FFFF3>>>>>>xFFFF",
"FFFFc;;;;;;+FFFF",
"FFFFo-----=+FFFF",
"FFFFo======#FFFF",
"FFFFOXXXXX #FFFF",
"FFFF%&&&&&&%FFFF"
};
